G04 #@! TF.FileFunction,Soldermask,Top*
%FSLAX46Y46*%
G04 Gerber Fmt 4.6, Leading zero omitted, Abs format (unit mm)*
G04 Created by KiCad (PCBNEW 4.0.1-stable) date 9.10.2016. 16:00:34*
%MOMM*%
G01*
G04 APERTURE LIST*
%ADD10C,0.100000*%
%ADD11R,1.300000X2.100000*%
%ADD12R,3.600000X1.400000*%
%ADD13O,6.400000X3.400000*%
%ADD14O,3.400000X6.400000*%
%ADD15R,7.400000X3.400000*%
%ADD16R,3.400000X7.400000*%
%ADD17C,2.000000*%
%ADD18C,2.600000*%
%ADD19R,2.800000X1.800000*%
%ADD20R,2.100000X1.300000*%
%ADD21C,3.400000*%
%ADD22R,2.400000X4.500000*%
G04 APERTURE END LIST*
D10*
D11*
X141850000Y-98400000D03*
X138950000Y-98400000D03*
D12*
X122100000Y-95300000D03*
X122100000Y-101500000D03*
D13*
X184500000Y-98000000D03*
X103500000Y-76000000D03*
X103500000Y-98000000D03*
X184500000Y-76000000D03*
D14*
X133000000Y-58000000D03*
X155000000Y-58000000D03*
X133000000Y-116000000D03*
X155000000Y-116000000D03*
D15*
X104000000Y-65000000D03*
X104000000Y-109000000D03*
X184000000Y-65000000D03*
X184000000Y-109000000D03*
D16*
X111000000Y-58000000D03*
X177000000Y-58000000D03*
X111000000Y-116000000D03*
X177000000Y-116000000D03*
D17*
X102000000Y-118000000D03*
X186000000Y-118000000D03*
X186000000Y-56000000D03*
X102000000Y-56000000D03*
D18*
X134000000Y-86500000D03*
X111500000Y-86500000D03*
D19*
X134900000Y-76500000D03*
X134800000Y-71500000D03*
X123900000Y-76500000D03*
X123900000Y-71500000D03*
D20*
X127600000Y-109850000D03*
X127600000Y-106950000D03*
D12*
X132900000Y-95300000D03*
X132900000Y-101500000D03*
D20*
X158000000Y-73750000D03*
X158000000Y-76650000D03*
D21*
X145500000Y-87000000D03*
X153800000Y-87000000D03*
D22*
X148200000Y-70850000D03*
X148200000Y-79550000D03*
M02*
