G04 #@! TF.FileFunction,Legend,Bot*
%FSLAX46Y46*%
G04 Gerber Fmt 4.6, Leading zero omitted, Abs format (unit mm)*
G04 Created by KiCad (PCBNEW 4.0.1-stable) date 9.10.2016. 16:00:34*
%MOMM*%
G01*
G04 APERTURE LIST*
%ADD10C,0.100000*%
%ADD11C,0.200000*%
%ADD12C,0.150000*%
%ADD13C,0.010000*%
G04 APERTURE END LIST*
D10*
D11*
X132250000Y-86500000D02*
X125000000Y-86500000D01*
X113250000Y-86500000D02*
X119500000Y-86500000D01*
X135802776Y-86500000D02*
G75*
G03X135802776Y-86500000I-1802776J0D01*
G01*
X113302776Y-86500000D02*
G75*
G03X113302776Y-86500000I-1802776J0D01*
G01*
D12*
X184000000Y-108175000D02*
X182000000Y-108175000D01*
X182000000Y-110325000D02*
X184000000Y-110325000D01*
X182300000Y-92500000D02*
X182900000Y-93100000D01*
X182900000Y-93100000D02*
X182900000Y-92000000D01*
X182900000Y-92000000D02*
X182300000Y-92500000D01*
X182300000Y-92500000D02*
X182800000Y-92900000D01*
X182800000Y-92900000D02*
X182800000Y-92200000D01*
X182800000Y-92200000D02*
X182500000Y-92500000D01*
X182500000Y-92500000D02*
X182700000Y-92700000D01*
X182700000Y-92700000D02*
X182700000Y-92400000D01*
X182700000Y-92400000D02*
X182600000Y-92500000D01*
X182600000Y-92500000D02*
X182200000Y-92500000D01*
X182000000Y-93300000D02*
X182000000Y-91800000D01*
X183000000Y-93300000D02*
X183000000Y-91800000D01*
X183000000Y-91800000D02*
X182100000Y-92500000D01*
X182100000Y-92500000D02*
X183000000Y-93300000D01*
X180100000Y-91250000D02*
X180100000Y-91150000D01*
X180100000Y-93800000D02*
X180100000Y-91250000D01*
X184100000Y-91100000D02*
X180900000Y-91100000D01*
X180900000Y-93900000D02*
X184100000Y-93900000D01*
X182300000Y-114500000D02*
X182900000Y-115100000D01*
X182900000Y-115100000D02*
X182900000Y-114000000D01*
X182900000Y-114000000D02*
X182300000Y-114500000D01*
X182300000Y-114500000D02*
X182800000Y-114900000D01*
X182800000Y-114900000D02*
X182800000Y-114200000D01*
X182800000Y-114200000D02*
X182500000Y-114500000D01*
X182500000Y-114500000D02*
X182700000Y-114700000D01*
X182700000Y-114700000D02*
X182700000Y-114400000D01*
X182700000Y-114400000D02*
X182600000Y-114500000D01*
X182600000Y-114500000D02*
X182200000Y-114500000D01*
X182000000Y-115300000D02*
X182000000Y-113800000D01*
X183000000Y-115300000D02*
X183000000Y-113800000D01*
X183000000Y-113800000D02*
X182100000Y-114500000D01*
X182100000Y-114500000D02*
X183000000Y-115300000D01*
X180100000Y-113250000D02*
X180100000Y-113150000D01*
X180100000Y-115800000D02*
X180100000Y-113250000D01*
X184100000Y-113100000D02*
X180900000Y-113100000D01*
X180900000Y-115900000D02*
X184100000Y-115900000D01*
X171300000Y-114500000D02*
X171900000Y-115100000D01*
X171900000Y-115100000D02*
X171900000Y-114000000D01*
X171900000Y-114000000D02*
X171300000Y-114500000D01*
X171300000Y-114500000D02*
X171800000Y-114900000D01*
X171800000Y-114900000D02*
X171800000Y-114200000D01*
X171800000Y-114200000D02*
X171500000Y-114500000D01*
X171500000Y-114500000D02*
X171700000Y-114700000D01*
X171700000Y-114700000D02*
X171700000Y-114400000D01*
X171700000Y-114400000D02*
X171600000Y-114500000D01*
X171600000Y-114500000D02*
X171200000Y-114500000D01*
X171000000Y-115300000D02*
X171000000Y-113800000D01*
X172000000Y-115300000D02*
X172000000Y-113800000D01*
X172000000Y-113800000D02*
X171100000Y-114500000D01*
X171100000Y-114500000D02*
X172000000Y-115300000D01*
X169100000Y-113250000D02*
X169100000Y-113150000D01*
X169100000Y-115800000D02*
X169100000Y-113250000D01*
X173100000Y-113100000D02*
X169900000Y-113100000D01*
X169900000Y-115900000D02*
X173100000Y-115900000D01*
X160300000Y-114500000D02*
X160900000Y-115100000D01*
X160900000Y-115100000D02*
X160900000Y-114000000D01*
X160900000Y-114000000D02*
X160300000Y-114500000D01*
X160300000Y-114500000D02*
X160800000Y-114900000D01*
X160800000Y-114900000D02*
X160800000Y-114200000D01*
X160800000Y-114200000D02*
X160500000Y-114500000D01*
X160500000Y-114500000D02*
X160700000Y-114700000D01*
X160700000Y-114700000D02*
X160700000Y-114400000D01*
X160700000Y-114400000D02*
X160600000Y-114500000D01*
X160600000Y-114500000D02*
X160200000Y-114500000D01*
X160000000Y-115300000D02*
X160000000Y-113800000D01*
X161000000Y-115300000D02*
X161000000Y-113800000D01*
X161000000Y-113800000D02*
X160100000Y-114500000D01*
X160100000Y-114500000D02*
X161000000Y-115300000D01*
X158100000Y-113250000D02*
X158100000Y-113150000D01*
X158100000Y-115800000D02*
X158100000Y-113250000D01*
X162100000Y-113100000D02*
X158900000Y-113100000D01*
X158900000Y-115900000D02*
X162100000Y-115900000D01*
X149300000Y-114500000D02*
X149900000Y-115100000D01*
X149900000Y-115100000D02*
X149900000Y-114000000D01*
X149900000Y-114000000D02*
X149300000Y-114500000D01*
X149300000Y-114500000D02*
X149800000Y-114900000D01*
X149800000Y-114900000D02*
X149800000Y-114200000D01*
X149800000Y-114200000D02*
X149500000Y-114500000D01*
X149500000Y-114500000D02*
X149700000Y-114700000D01*
X149700000Y-114700000D02*
X149700000Y-114400000D01*
X149700000Y-114400000D02*
X149600000Y-114500000D01*
X149600000Y-114500000D02*
X149200000Y-114500000D01*
X149000000Y-115300000D02*
X149000000Y-113800000D01*
X150000000Y-115300000D02*
X150000000Y-113800000D01*
X150000000Y-113800000D02*
X149100000Y-114500000D01*
X149100000Y-114500000D02*
X150000000Y-115300000D01*
X147100000Y-113250000D02*
X147100000Y-113150000D01*
X147100000Y-115800000D02*
X147100000Y-113250000D01*
X151100000Y-113100000D02*
X147900000Y-113100000D01*
X147900000Y-115900000D02*
X151100000Y-115900000D01*
X138300000Y-114500000D02*
X138900000Y-115100000D01*
X138900000Y-115100000D02*
X138900000Y-114000000D01*
X138900000Y-114000000D02*
X138300000Y-114500000D01*
X138300000Y-114500000D02*
X138800000Y-114900000D01*
X138800000Y-114900000D02*
X138800000Y-114200000D01*
X138800000Y-114200000D02*
X138500000Y-114500000D01*
X138500000Y-114500000D02*
X138700000Y-114700000D01*
X138700000Y-114700000D02*
X138700000Y-114400000D01*
X138700000Y-114400000D02*
X138600000Y-114500000D01*
X138600000Y-114500000D02*
X138200000Y-114500000D01*
X138000000Y-115300000D02*
X138000000Y-113800000D01*
X139000000Y-115300000D02*
X139000000Y-113800000D01*
X139000000Y-113800000D02*
X138100000Y-114500000D01*
X138100000Y-114500000D02*
X139000000Y-115300000D01*
X136100000Y-113250000D02*
X136100000Y-113150000D01*
X136100000Y-115800000D02*
X136100000Y-113250000D01*
X140100000Y-113100000D02*
X136900000Y-113100000D01*
X136900000Y-115900000D02*
X140100000Y-115900000D01*
X127300000Y-114500000D02*
X127900000Y-115100000D01*
X127900000Y-115100000D02*
X127900000Y-114000000D01*
X127900000Y-114000000D02*
X127300000Y-114500000D01*
X127300000Y-114500000D02*
X127800000Y-114900000D01*
X127800000Y-114900000D02*
X127800000Y-114200000D01*
X127800000Y-114200000D02*
X127500000Y-114500000D01*
X127500000Y-114500000D02*
X127700000Y-114700000D01*
X127700000Y-114700000D02*
X127700000Y-114400000D01*
X127700000Y-114400000D02*
X127600000Y-114500000D01*
X127600000Y-114500000D02*
X127200000Y-114500000D01*
X127000000Y-115300000D02*
X127000000Y-113800000D01*
X128000000Y-115300000D02*
X128000000Y-113800000D01*
X128000000Y-113800000D02*
X127100000Y-114500000D01*
X127100000Y-114500000D02*
X128000000Y-115300000D01*
X125100000Y-113250000D02*
X125100000Y-113150000D01*
X125100000Y-115800000D02*
X125100000Y-113250000D01*
X129100000Y-113100000D02*
X125900000Y-113100000D01*
X125900000Y-115900000D02*
X129100000Y-115900000D01*
X116300000Y-114500000D02*
X116900000Y-115100000D01*
X116900000Y-115100000D02*
X116900000Y-114000000D01*
X116900000Y-114000000D02*
X116300000Y-114500000D01*
X116300000Y-114500000D02*
X116800000Y-114900000D01*
X116800000Y-114900000D02*
X116800000Y-114200000D01*
X116800000Y-114200000D02*
X116500000Y-114500000D01*
X116500000Y-114500000D02*
X116700000Y-114700000D01*
X116700000Y-114700000D02*
X116700000Y-114400000D01*
X116700000Y-114400000D02*
X116600000Y-114500000D01*
X116600000Y-114500000D02*
X116200000Y-114500000D01*
X116000000Y-115300000D02*
X116000000Y-113800000D01*
X117000000Y-115300000D02*
X117000000Y-113800000D01*
X117000000Y-113800000D02*
X116100000Y-114500000D01*
X116100000Y-114500000D02*
X117000000Y-115300000D01*
X114100000Y-113250000D02*
X114100000Y-113150000D01*
X114100000Y-115800000D02*
X114100000Y-113250000D01*
X118100000Y-113100000D02*
X114900000Y-113100000D01*
X114900000Y-115900000D02*
X118100000Y-115900000D01*
X105300000Y-114500000D02*
X105900000Y-115100000D01*
X105900000Y-115100000D02*
X105900000Y-114000000D01*
X105900000Y-114000000D02*
X105300000Y-114500000D01*
X105300000Y-114500000D02*
X105800000Y-114900000D01*
X105800000Y-114900000D02*
X105800000Y-114200000D01*
X105800000Y-114200000D02*
X105500000Y-114500000D01*
X105500000Y-114500000D02*
X105700000Y-114700000D01*
X105700000Y-114700000D02*
X105700000Y-114400000D01*
X105700000Y-114400000D02*
X105600000Y-114500000D01*
X105600000Y-114500000D02*
X105200000Y-114500000D01*
X105000000Y-115300000D02*
X105000000Y-113800000D01*
X106000000Y-115300000D02*
X106000000Y-113800000D01*
X106000000Y-113800000D02*
X105100000Y-114500000D01*
X105100000Y-114500000D02*
X106000000Y-115300000D01*
X103100000Y-113250000D02*
X103100000Y-113150000D01*
X103100000Y-115800000D02*
X103100000Y-113250000D01*
X107100000Y-113100000D02*
X103900000Y-113100000D01*
X103900000Y-115900000D02*
X107100000Y-115900000D01*
X182700000Y-103500000D02*
X182100000Y-102900000D01*
X182100000Y-102900000D02*
X182100000Y-104000000D01*
X182100000Y-104000000D02*
X182700000Y-103500000D01*
X182700000Y-103500000D02*
X182200000Y-103100000D01*
X182200000Y-103100000D02*
X182200000Y-103800000D01*
X182200000Y-103800000D02*
X182500000Y-103500000D01*
X182500000Y-103500000D02*
X182300000Y-103300000D01*
X182300000Y-103300000D02*
X182300000Y-103600000D01*
X182300000Y-103600000D02*
X182400000Y-103500000D01*
X182400000Y-103500000D02*
X182800000Y-103500000D01*
X183000000Y-102700000D02*
X183000000Y-104200000D01*
X182000000Y-102700000D02*
X182000000Y-104200000D01*
X182000000Y-104200000D02*
X182900000Y-103500000D01*
X182900000Y-103500000D02*
X182000000Y-102700000D01*
X184900000Y-104750000D02*
X184900000Y-104850000D01*
X184900000Y-102200000D02*
X184900000Y-104750000D01*
X180900000Y-104900000D02*
X184100000Y-104900000D01*
X184100000Y-102100000D02*
X180900000Y-102100000D01*
X171700000Y-103500000D02*
X171100000Y-102900000D01*
X171100000Y-102900000D02*
X171100000Y-104000000D01*
X171100000Y-104000000D02*
X171700000Y-103500000D01*
X171700000Y-103500000D02*
X171200000Y-103100000D01*
X171200000Y-103100000D02*
X171200000Y-103800000D01*
X171200000Y-103800000D02*
X171500000Y-103500000D01*
X171500000Y-103500000D02*
X171300000Y-103300000D01*
X171300000Y-103300000D02*
X171300000Y-103600000D01*
X171300000Y-103600000D02*
X171400000Y-103500000D01*
X171400000Y-103500000D02*
X171800000Y-103500000D01*
X172000000Y-102700000D02*
X172000000Y-104200000D01*
X171000000Y-102700000D02*
X171000000Y-104200000D01*
X171000000Y-104200000D02*
X171900000Y-103500000D01*
X171900000Y-103500000D02*
X171000000Y-102700000D01*
X173900000Y-104750000D02*
X173900000Y-104850000D01*
X173900000Y-102200000D02*
X173900000Y-104750000D01*
X169900000Y-104900000D02*
X173100000Y-104900000D01*
X173100000Y-102100000D02*
X169900000Y-102100000D01*
X160700000Y-103500000D02*
X160100000Y-102900000D01*
X160100000Y-102900000D02*
X160100000Y-104000000D01*
X160100000Y-104000000D02*
X160700000Y-103500000D01*
X160700000Y-103500000D02*
X160200000Y-103100000D01*
X160200000Y-103100000D02*
X160200000Y-103800000D01*
X160200000Y-103800000D02*
X160500000Y-103500000D01*
X160500000Y-103500000D02*
X160300000Y-103300000D01*
X160300000Y-103300000D02*
X160300000Y-103600000D01*
X160300000Y-103600000D02*
X160400000Y-103500000D01*
X160400000Y-103500000D02*
X160800000Y-103500000D01*
X161000000Y-102700000D02*
X161000000Y-104200000D01*
X160000000Y-102700000D02*
X160000000Y-104200000D01*
X160000000Y-104200000D02*
X160900000Y-103500000D01*
X160900000Y-103500000D02*
X160000000Y-102700000D01*
X162900000Y-104750000D02*
X162900000Y-104850000D01*
X162900000Y-102200000D02*
X162900000Y-104750000D01*
X158900000Y-104900000D02*
X162100000Y-104900000D01*
X162100000Y-102100000D02*
X158900000Y-102100000D01*
X149700000Y-103500000D02*
X149100000Y-102900000D01*
X149100000Y-102900000D02*
X149100000Y-104000000D01*
X149100000Y-104000000D02*
X149700000Y-103500000D01*
X149700000Y-103500000D02*
X149200000Y-103100000D01*
X149200000Y-103100000D02*
X149200000Y-103800000D01*
X149200000Y-103800000D02*
X149500000Y-103500000D01*
X149500000Y-103500000D02*
X149300000Y-103300000D01*
X149300000Y-103300000D02*
X149300000Y-103600000D01*
X149300000Y-103600000D02*
X149400000Y-103500000D01*
X149400000Y-103500000D02*
X149800000Y-103500000D01*
X150000000Y-102700000D02*
X150000000Y-104200000D01*
X149000000Y-102700000D02*
X149000000Y-104200000D01*
X149000000Y-104200000D02*
X149900000Y-103500000D01*
X149900000Y-103500000D02*
X149000000Y-102700000D01*
X151900000Y-104750000D02*
X151900000Y-104850000D01*
X151900000Y-102200000D02*
X151900000Y-104750000D01*
X147900000Y-104900000D02*
X151100000Y-104900000D01*
X151100000Y-102100000D02*
X147900000Y-102100000D01*
X138700000Y-103500000D02*
X138100000Y-102900000D01*
X138100000Y-102900000D02*
X138100000Y-104000000D01*
X138100000Y-104000000D02*
X138700000Y-103500000D01*
X138700000Y-103500000D02*
X138200000Y-103100000D01*
X138200000Y-103100000D02*
X138200000Y-103800000D01*
X138200000Y-103800000D02*
X138500000Y-103500000D01*
X138500000Y-103500000D02*
X138300000Y-103300000D01*
X138300000Y-103300000D02*
X138300000Y-103600000D01*
X138300000Y-103600000D02*
X138400000Y-103500000D01*
X138400000Y-103500000D02*
X138800000Y-103500000D01*
X139000000Y-102700000D02*
X139000000Y-104200000D01*
X138000000Y-102700000D02*
X138000000Y-104200000D01*
X138000000Y-104200000D02*
X138900000Y-103500000D01*
X138900000Y-103500000D02*
X138000000Y-102700000D01*
X140900000Y-104750000D02*
X140900000Y-104850000D01*
X140900000Y-102200000D02*
X140900000Y-104750000D01*
X136900000Y-104900000D02*
X140100000Y-104900000D01*
X140100000Y-102100000D02*
X136900000Y-102100000D01*
X127700000Y-103500000D02*
X127100000Y-102900000D01*
X127100000Y-102900000D02*
X127100000Y-104000000D01*
X127100000Y-104000000D02*
X127700000Y-103500000D01*
X127700000Y-103500000D02*
X127200000Y-103100000D01*
X127200000Y-103100000D02*
X127200000Y-103800000D01*
X127200000Y-103800000D02*
X127500000Y-103500000D01*
X127500000Y-103500000D02*
X127300000Y-103300000D01*
X127300000Y-103300000D02*
X127300000Y-103600000D01*
X127300000Y-103600000D02*
X127400000Y-103500000D01*
X127400000Y-103500000D02*
X127800000Y-103500000D01*
X128000000Y-102700000D02*
X128000000Y-104200000D01*
X127000000Y-102700000D02*
X127000000Y-104200000D01*
X127000000Y-104200000D02*
X127900000Y-103500000D01*
X127900000Y-103500000D02*
X127000000Y-102700000D01*
X129900000Y-104750000D02*
X129900000Y-104850000D01*
X129900000Y-102200000D02*
X129900000Y-104750000D01*
X125900000Y-104900000D02*
X129100000Y-104900000D01*
X129100000Y-102100000D02*
X125900000Y-102100000D01*
X116700000Y-103500000D02*
X116100000Y-102900000D01*
X116100000Y-102900000D02*
X116100000Y-104000000D01*
X116100000Y-104000000D02*
X116700000Y-103500000D01*
X116700000Y-103500000D02*
X116200000Y-103100000D01*
X116200000Y-103100000D02*
X116200000Y-103800000D01*
X116200000Y-103800000D02*
X116500000Y-103500000D01*
X116500000Y-103500000D02*
X116300000Y-103300000D01*
X116300000Y-103300000D02*
X116300000Y-103600000D01*
X116300000Y-103600000D02*
X116400000Y-103500000D01*
X116400000Y-103500000D02*
X116800000Y-103500000D01*
X117000000Y-102700000D02*
X117000000Y-104200000D01*
X116000000Y-102700000D02*
X116000000Y-104200000D01*
X116000000Y-104200000D02*
X116900000Y-103500000D01*
X116900000Y-103500000D02*
X116000000Y-102700000D01*
X118900000Y-104750000D02*
X118900000Y-104850000D01*
X118900000Y-102200000D02*
X118900000Y-104750000D01*
X114900000Y-104900000D02*
X118100000Y-104900000D01*
X118100000Y-102100000D02*
X114900000Y-102100000D01*
X105700000Y-103500000D02*
X105100000Y-102900000D01*
X105100000Y-102900000D02*
X105100000Y-104000000D01*
X105100000Y-104000000D02*
X105700000Y-103500000D01*
X105700000Y-103500000D02*
X105200000Y-103100000D01*
X105200000Y-103100000D02*
X105200000Y-103800000D01*
X105200000Y-103800000D02*
X105500000Y-103500000D01*
X105500000Y-103500000D02*
X105300000Y-103300000D01*
X105300000Y-103300000D02*
X105300000Y-103600000D01*
X105300000Y-103600000D02*
X105400000Y-103500000D01*
X105400000Y-103500000D02*
X105800000Y-103500000D01*
X106000000Y-102700000D02*
X106000000Y-104200000D01*
X105000000Y-102700000D02*
X105000000Y-104200000D01*
X105000000Y-104200000D02*
X105900000Y-103500000D01*
X105900000Y-103500000D02*
X105000000Y-102700000D01*
X107900000Y-104750000D02*
X107900000Y-104850000D01*
X107900000Y-102200000D02*
X107900000Y-104750000D01*
X103900000Y-104900000D02*
X107100000Y-104900000D01*
X107100000Y-102100000D02*
X103900000Y-102100000D01*
X171300000Y-92500000D02*
X171900000Y-93100000D01*
X171900000Y-93100000D02*
X171900000Y-92000000D01*
X171900000Y-92000000D02*
X171300000Y-92500000D01*
X171300000Y-92500000D02*
X171800000Y-92900000D01*
X171800000Y-92900000D02*
X171800000Y-92200000D01*
X171800000Y-92200000D02*
X171500000Y-92500000D01*
X171500000Y-92500000D02*
X171700000Y-92700000D01*
X171700000Y-92700000D02*
X171700000Y-92400000D01*
X171700000Y-92400000D02*
X171600000Y-92500000D01*
X171600000Y-92500000D02*
X171200000Y-92500000D01*
X171000000Y-93300000D02*
X171000000Y-91800000D01*
X172000000Y-93300000D02*
X172000000Y-91800000D01*
X172000000Y-91800000D02*
X171100000Y-92500000D01*
X171100000Y-92500000D02*
X172000000Y-93300000D01*
X169100000Y-91250000D02*
X169100000Y-91150000D01*
X169100000Y-93800000D02*
X169100000Y-91250000D01*
X173100000Y-91100000D02*
X169900000Y-91100000D01*
X169900000Y-93900000D02*
X173100000Y-93900000D01*
X160300000Y-92500000D02*
X160900000Y-93100000D01*
X160900000Y-93100000D02*
X160900000Y-92000000D01*
X160900000Y-92000000D02*
X160300000Y-92500000D01*
X160300000Y-92500000D02*
X160800000Y-92900000D01*
X160800000Y-92900000D02*
X160800000Y-92200000D01*
X160800000Y-92200000D02*
X160500000Y-92500000D01*
X160500000Y-92500000D02*
X160700000Y-92700000D01*
X160700000Y-92700000D02*
X160700000Y-92400000D01*
X160700000Y-92400000D02*
X160600000Y-92500000D01*
X160600000Y-92500000D02*
X160200000Y-92500000D01*
X160000000Y-93300000D02*
X160000000Y-91800000D01*
X161000000Y-93300000D02*
X161000000Y-91800000D01*
X161000000Y-91800000D02*
X160100000Y-92500000D01*
X160100000Y-92500000D02*
X161000000Y-93300000D01*
X158100000Y-91250000D02*
X158100000Y-91150000D01*
X158100000Y-93800000D02*
X158100000Y-91250000D01*
X162100000Y-91100000D02*
X158900000Y-91100000D01*
X158900000Y-93900000D02*
X162100000Y-93900000D01*
X149300000Y-92500000D02*
X149900000Y-93100000D01*
X149900000Y-93100000D02*
X149900000Y-92000000D01*
X149900000Y-92000000D02*
X149300000Y-92500000D01*
X149300000Y-92500000D02*
X149800000Y-92900000D01*
X149800000Y-92900000D02*
X149800000Y-92200000D01*
X149800000Y-92200000D02*
X149500000Y-92500000D01*
X149500000Y-92500000D02*
X149700000Y-92700000D01*
X149700000Y-92700000D02*
X149700000Y-92400000D01*
X149700000Y-92400000D02*
X149600000Y-92500000D01*
X149600000Y-92500000D02*
X149200000Y-92500000D01*
X149000000Y-93300000D02*
X149000000Y-91800000D01*
X150000000Y-93300000D02*
X150000000Y-91800000D01*
X150000000Y-91800000D02*
X149100000Y-92500000D01*
X149100000Y-92500000D02*
X150000000Y-93300000D01*
X147100000Y-91250000D02*
X147100000Y-91150000D01*
X147100000Y-93800000D02*
X147100000Y-91250000D01*
X151100000Y-91100000D02*
X147900000Y-91100000D01*
X147900000Y-93900000D02*
X151100000Y-93900000D01*
X138300000Y-92500000D02*
X138900000Y-93100000D01*
X138900000Y-93100000D02*
X138900000Y-92000000D01*
X138900000Y-92000000D02*
X138300000Y-92500000D01*
X138300000Y-92500000D02*
X138800000Y-92900000D01*
X138800000Y-92900000D02*
X138800000Y-92200000D01*
X138800000Y-92200000D02*
X138500000Y-92500000D01*
X138500000Y-92500000D02*
X138700000Y-92700000D01*
X138700000Y-92700000D02*
X138700000Y-92400000D01*
X138700000Y-92400000D02*
X138600000Y-92500000D01*
X138600000Y-92500000D02*
X138200000Y-92500000D01*
X138000000Y-93300000D02*
X138000000Y-91800000D01*
X139000000Y-93300000D02*
X139000000Y-91800000D01*
X139000000Y-91800000D02*
X138100000Y-92500000D01*
X138100000Y-92500000D02*
X139000000Y-93300000D01*
X136100000Y-91250000D02*
X136100000Y-91150000D01*
X136100000Y-93800000D02*
X136100000Y-91250000D01*
X140100000Y-91100000D02*
X136900000Y-91100000D01*
X136900000Y-93900000D02*
X140100000Y-93900000D01*
X127300000Y-92500000D02*
X127900000Y-93100000D01*
X127900000Y-93100000D02*
X127900000Y-92000000D01*
X127900000Y-92000000D02*
X127300000Y-92500000D01*
X127300000Y-92500000D02*
X127800000Y-92900000D01*
X127800000Y-92900000D02*
X127800000Y-92200000D01*
X127800000Y-92200000D02*
X127500000Y-92500000D01*
X127500000Y-92500000D02*
X127700000Y-92700000D01*
X127700000Y-92700000D02*
X127700000Y-92400000D01*
X127700000Y-92400000D02*
X127600000Y-92500000D01*
X127600000Y-92500000D02*
X127200000Y-92500000D01*
X127000000Y-93300000D02*
X127000000Y-91800000D01*
X128000000Y-93300000D02*
X128000000Y-91800000D01*
X128000000Y-91800000D02*
X127100000Y-92500000D01*
X127100000Y-92500000D02*
X128000000Y-93300000D01*
X125100000Y-91250000D02*
X125100000Y-91150000D01*
X125100000Y-93800000D02*
X125100000Y-91250000D01*
X129100000Y-91100000D02*
X125900000Y-91100000D01*
X125900000Y-93900000D02*
X129100000Y-93900000D01*
X116300000Y-92500000D02*
X116900000Y-93100000D01*
X116900000Y-93100000D02*
X116900000Y-92000000D01*
X116900000Y-92000000D02*
X116300000Y-92500000D01*
X116300000Y-92500000D02*
X116800000Y-92900000D01*
X116800000Y-92900000D02*
X116800000Y-92200000D01*
X116800000Y-92200000D02*
X116500000Y-92500000D01*
X116500000Y-92500000D02*
X116700000Y-92700000D01*
X116700000Y-92700000D02*
X116700000Y-92400000D01*
X116700000Y-92400000D02*
X116600000Y-92500000D01*
X116600000Y-92500000D02*
X116200000Y-92500000D01*
X116000000Y-93300000D02*
X116000000Y-91800000D01*
X117000000Y-93300000D02*
X117000000Y-91800000D01*
X117000000Y-91800000D02*
X116100000Y-92500000D01*
X116100000Y-92500000D02*
X117000000Y-93300000D01*
X114100000Y-91250000D02*
X114100000Y-91150000D01*
X114100000Y-93800000D02*
X114100000Y-91250000D01*
X118100000Y-91100000D02*
X114900000Y-91100000D01*
X114900000Y-93900000D02*
X118100000Y-93900000D01*
X105300000Y-92500000D02*
X105900000Y-93100000D01*
X105900000Y-93100000D02*
X105900000Y-92000000D01*
X105900000Y-92000000D02*
X105300000Y-92500000D01*
X105300000Y-92500000D02*
X105800000Y-92900000D01*
X105800000Y-92900000D02*
X105800000Y-92200000D01*
X105800000Y-92200000D02*
X105500000Y-92500000D01*
X105500000Y-92500000D02*
X105700000Y-92700000D01*
X105700000Y-92700000D02*
X105700000Y-92400000D01*
X105700000Y-92400000D02*
X105600000Y-92500000D01*
X105600000Y-92500000D02*
X105200000Y-92500000D01*
X105000000Y-93300000D02*
X105000000Y-91800000D01*
X106000000Y-93300000D02*
X106000000Y-91800000D01*
X106000000Y-91800000D02*
X105100000Y-92500000D01*
X105100000Y-92500000D02*
X106000000Y-93300000D01*
X103100000Y-91250000D02*
X103100000Y-91150000D01*
X103100000Y-93800000D02*
X103100000Y-91250000D01*
X107100000Y-91100000D02*
X103900000Y-91100000D01*
X103900000Y-93900000D02*
X107100000Y-93900000D01*
X182700000Y-81500000D02*
X182100000Y-80900000D01*
X182100000Y-80900000D02*
X182100000Y-82000000D01*
X182100000Y-82000000D02*
X182700000Y-81500000D01*
X182700000Y-81500000D02*
X182200000Y-81100000D01*
X182200000Y-81100000D02*
X182200000Y-81800000D01*
X182200000Y-81800000D02*
X182500000Y-81500000D01*
X182500000Y-81500000D02*
X182300000Y-81300000D01*
X182300000Y-81300000D02*
X182300000Y-81600000D01*
X182300000Y-81600000D02*
X182400000Y-81500000D01*
X182400000Y-81500000D02*
X182800000Y-81500000D01*
X183000000Y-80700000D02*
X183000000Y-82200000D01*
X182000000Y-80700000D02*
X182000000Y-82200000D01*
X182000000Y-82200000D02*
X182900000Y-81500000D01*
X182900000Y-81500000D02*
X182000000Y-80700000D01*
X184900000Y-82750000D02*
X184900000Y-82850000D01*
X184900000Y-80200000D02*
X184900000Y-82750000D01*
X180900000Y-82900000D02*
X184100000Y-82900000D01*
X184100000Y-80100000D02*
X180900000Y-80100000D01*
X171700000Y-81500000D02*
X171100000Y-80900000D01*
X171100000Y-80900000D02*
X171100000Y-82000000D01*
X171100000Y-82000000D02*
X171700000Y-81500000D01*
X171700000Y-81500000D02*
X171200000Y-81100000D01*
X171200000Y-81100000D02*
X171200000Y-81800000D01*
X171200000Y-81800000D02*
X171500000Y-81500000D01*
X171500000Y-81500000D02*
X171300000Y-81300000D01*
X171300000Y-81300000D02*
X171300000Y-81600000D01*
X171300000Y-81600000D02*
X171400000Y-81500000D01*
X171400000Y-81500000D02*
X171800000Y-81500000D01*
X172000000Y-80700000D02*
X172000000Y-82200000D01*
X171000000Y-80700000D02*
X171000000Y-82200000D01*
X171000000Y-82200000D02*
X171900000Y-81500000D01*
X171900000Y-81500000D02*
X171000000Y-80700000D01*
X173900000Y-82750000D02*
X173900000Y-82850000D01*
X173900000Y-80200000D02*
X173900000Y-82750000D01*
X169900000Y-82900000D02*
X173100000Y-82900000D01*
X173100000Y-80100000D02*
X169900000Y-80100000D01*
X160700000Y-81500000D02*
X160100000Y-80900000D01*
X160100000Y-80900000D02*
X160100000Y-82000000D01*
X160100000Y-82000000D02*
X160700000Y-81500000D01*
X160700000Y-81500000D02*
X160200000Y-81100000D01*
X160200000Y-81100000D02*
X160200000Y-81800000D01*
X160200000Y-81800000D02*
X160500000Y-81500000D01*
X160500000Y-81500000D02*
X160300000Y-81300000D01*
X160300000Y-81300000D02*
X160300000Y-81600000D01*
X160300000Y-81600000D02*
X160400000Y-81500000D01*
X160400000Y-81500000D02*
X160800000Y-81500000D01*
X161000000Y-80700000D02*
X161000000Y-82200000D01*
X160000000Y-80700000D02*
X160000000Y-82200000D01*
X160000000Y-82200000D02*
X160900000Y-81500000D01*
X160900000Y-81500000D02*
X160000000Y-80700000D01*
X162900000Y-82750000D02*
X162900000Y-82850000D01*
X162900000Y-80200000D02*
X162900000Y-82750000D01*
X158900000Y-82900000D02*
X162100000Y-82900000D01*
X162100000Y-80100000D02*
X158900000Y-80100000D01*
X149700000Y-81500000D02*
X149100000Y-80900000D01*
X149100000Y-80900000D02*
X149100000Y-82000000D01*
X149100000Y-82000000D02*
X149700000Y-81500000D01*
X149700000Y-81500000D02*
X149200000Y-81100000D01*
X149200000Y-81100000D02*
X149200000Y-81800000D01*
X149200000Y-81800000D02*
X149500000Y-81500000D01*
X149500000Y-81500000D02*
X149300000Y-81300000D01*
X149300000Y-81300000D02*
X149300000Y-81600000D01*
X149300000Y-81600000D02*
X149400000Y-81500000D01*
X149400000Y-81500000D02*
X149800000Y-81500000D01*
X150000000Y-80700000D02*
X150000000Y-82200000D01*
X149000000Y-80700000D02*
X149000000Y-82200000D01*
X149000000Y-82200000D02*
X149900000Y-81500000D01*
X149900000Y-81500000D02*
X149000000Y-80700000D01*
X151900000Y-82750000D02*
X151900000Y-82850000D01*
X151900000Y-80200000D02*
X151900000Y-82750000D01*
X147900000Y-82900000D02*
X151100000Y-82900000D01*
X151100000Y-80100000D02*
X147900000Y-80100000D01*
X138700000Y-81500000D02*
X138100000Y-80900000D01*
X138100000Y-80900000D02*
X138100000Y-82000000D01*
X138100000Y-82000000D02*
X138700000Y-81500000D01*
X138700000Y-81500000D02*
X138200000Y-81100000D01*
X138200000Y-81100000D02*
X138200000Y-81800000D01*
X138200000Y-81800000D02*
X138500000Y-81500000D01*
X138500000Y-81500000D02*
X138300000Y-81300000D01*
X138300000Y-81300000D02*
X138300000Y-81600000D01*
X138300000Y-81600000D02*
X138400000Y-81500000D01*
X138400000Y-81500000D02*
X138800000Y-81500000D01*
X139000000Y-80700000D02*
X139000000Y-82200000D01*
X138000000Y-80700000D02*
X138000000Y-82200000D01*
X138000000Y-82200000D02*
X138900000Y-81500000D01*
X138900000Y-81500000D02*
X138000000Y-80700000D01*
X140900000Y-82750000D02*
X140900000Y-82850000D01*
X140900000Y-80200000D02*
X140900000Y-82750000D01*
X136900000Y-82900000D02*
X140100000Y-82900000D01*
X140100000Y-80100000D02*
X136900000Y-80100000D01*
X127700000Y-81500000D02*
X127100000Y-80900000D01*
X127100000Y-80900000D02*
X127100000Y-82000000D01*
X127100000Y-82000000D02*
X127700000Y-81500000D01*
X127700000Y-81500000D02*
X127200000Y-81100000D01*
X127200000Y-81100000D02*
X127200000Y-81800000D01*
X127200000Y-81800000D02*
X127500000Y-81500000D01*
X127500000Y-81500000D02*
X127300000Y-81300000D01*
X127300000Y-81300000D02*
X127300000Y-81600000D01*
X127300000Y-81600000D02*
X127400000Y-81500000D01*
X127400000Y-81500000D02*
X127800000Y-81500000D01*
X128000000Y-80700000D02*
X128000000Y-82200000D01*
X127000000Y-80700000D02*
X127000000Y-82200000D01*
X127000000Y-82200000D02*
X127900000Y-81500000D01*
X127900000Y-81500000D02*
X127000000Y-80700000D01*
X129900000Y-82750000D02*
X129900000Y-82850000D01*
X129900000Y-80200000D02*
X129900000Y-82750000D01*
X125900000Y-82900000D02*
X129100000Y-82900000D01*
X129100000Y-80100000D02*
X125900000Y-80100000D01*
X116700000Y-81500000D02*
X116100000Y-80900000D01*
X116100000Y-80900000D02*
X116100000Y-82000000D01*
X116100000Y-82000000D02*
X116700000Y-81500000D01*
X116700000Y-81500000D02*
X116200000Y-81100000D01*
X116200000Y-81100000D02*
X116200000Y-81800000D01*
X116200000Y-81800000D02*
X116500000Y-81500000D01*
X116500000Y-81500000D02*
X116300000Y-81300000D01*
X116300000Y-81300000D02*
X116300000Y-81600000D01*
X116300000Y-81600000D02*
X116400000Y-81500000D01*
X116400000Y-81500000D02*
X116800000Y-81500000D01*
X117000000Y-80700000D02*
X117000000Y-82200000D01*
X116000000Y-80700000D02*
X116000000Y-82200000D01*
X116000000Y-82200000D02*
X116900000Y-81500000D01*
X116900000Y-81500000D02*
X116000000Y-80700000D01*
X118900000Y-82750000D02*
X118900000Y-82850000D01*
X118900000Y-80200000D02*
X118900000Y-82750000D01*
X114900000Y-82900000D02*
X118100000Y-82900000D01*
X118100000Y-80100000D02*
X114900000Y-80100000D01*
X105700000Y-81500000D02*
X105100000Y-80900000D01*
X105100000Y-80900000D02*
X105100000Y-82000000D01*
X105100000Y-82000000D02*
X105700000Y-81500000D01*
X105700000Y-81500000D02*
X105200000Y-81100000D01*
X105200000Y-81100000D02*
X105200000Y-81800000D01*
X105200000Y-81800000D02*
X105500000Y-81500000D01*
X105500000Y-81500000D02*
X105300000Y-81300000D01*
X105300000Y-81300000D02*
X105300000Y-81600000D01*
X105300000Y-81600000D02*
X105400000Y-81500000D01*
X105400000Y-81500000D02*
X105800000Y-81500000D01*
X106000000Y-80700000D02*
X106000000Y-82200000D01*
X105000000Y-80700000D02*
X105000000Y-82200000D01*
X105000000Y-82200000D02*
X105900000Y-81500000D01*
X105900000Y-81500000D02*
X105000000Y-80700000D01*
X107900000Y-82750000D02*
X107900000Y-82850000D01*
X107900000Y-80200000D02*
X107900000Y-82750000D01*
X103900000Y-82900000D02*
X107100000Y-82900000D01*
X107100000Y-80100000D02*
X103900000Y-80100000D01*
X182300000Y-70500000D02*
X182900000Y-71100000D01*
X182900000Y-71100000D02*
X182900000Y-70000000D01*
X182900000Y-70000000D02*
X182300000Y-70500000D01*
X182300000Y-70500000D02*
X182800000Y-70900000D01*
X182800000Y-70900000D02*
X182800000Y-70200000D01*
X182800000Y-70200000D02*
X182500000Y-70500000D01*
X182500000Y-70500000D02*
X182700000Y-70700000D01*
X182700000Y-70700000D02*
X182700000Y-70400000D01*
X182700000Y-70400000D02*
X182600000Y-70500000D01*
X182600000Y-70500000D02*
X182200000Y-70500000D01*
X182000000Y-71300000D02*
X182000000Y-69800000D01*
X183000000Y-71300000D02*
X183000000Y-69800000D01*
X183000000Y-69800000D02*
X182100000Y-70500000D01*
X182100000Y-70500000D02*
X183000000Y-71300000D01*
X180100000Y-69250000D02*
X180100000Y-69150000D01*
X180100000Y-71800000D02*
X180100000Y-69250000D01*
X184100000Y-69100000D02*
X180900000Y-69100000D01*
X180900000Y-71900000D02*
X184100000Y-71900000D01*
X171300000Y-70500000D02*
X171900000Y-71100000D01*
X171900000Y-71100000D02*
X171900000Y-70000000D01*
X171900000Y-70000000D02*
X171300000Y-70500000D01*
X171300000Y-70500000D02*
X171800000Y-70900000D01*
X171800000Y-70900000D02*
X171800000Y-70200000D01*
X171800000Y-70200000D02*
X171500000Y-70500000D01*
X171500000Y-70500000D02*
X171700000Y-70700000D01*
X171700000Y-70700000D02*
X171700000Y-70400000D01*
X171700000Y-70400000D02*
X171600000Y-70500000D01*
X171600000Y-70500000D02*
X171200000Y-70500000D01*
X171000000Y-71300000D02*
X171000000Y-69800000D01*
X172000000Y-71300000D02*
X172000000Y-69800000D01*
X172000000Y-69800000D02*
X171100000Y-70500000D01*
X171100000Y-70500000D02*
X172000000Y-71300000D01*
X169100000Y-69250000D02*
X169100000Y-69150000D01*
X169100000Y-71800000D02*
X169100000Y-69250000D01*
X173100000Y-69100000D02*
X169900000Y-69100000D01*
X169900000Y-71900000D02*
X173100000Y-71900000D01*
X160300000Y-70500000D02*
X160900000Y-71100000D01*
X160900000Y-71100000D02*
X160900000Y-70000000D01*
X160900000Y-70000000D02*
X160300000Y-70500000D01*
X160300000Y-70500000D02*
X160800000Y-70900000D01*
X160800000Y-70900000D02*
X160800000Y-70200000D01*
X160800000Y-70200000D02*
X160500000Y-70500000D01*
X160500000Y-70500000D02*
X160700000Y-70700000D01*
X160700000Y-70700000D02*
X160700000Y-70400000D01*
X160700000Y-70400000D02*
X160600000Y-70500000D01*
X160600000Y-70500000D02*
X160200000Y-70500000D01*
X160000000Y-71300000D02*
X160000000Y-69800000D01*
X161000000Y-71300000D02*
X161000000Y-69800000D01*
X161000000Y-69800000D02*
X160100000Y-70500000D01*
X160100000Y-70500000D02*
X161000000Y-71300000D01*
X158100000Y-69250000D02*
X158100000Y-69150000D01*
X158100000Y-71800000D02*
X158100000Y-69250000D01*
X162100000Y-69100000D02*
X158900000Y-69100000D01*
X158900000Y-71900000D02*
X162100000Y-71900000D01*
X149300000Y-70500000D02*
X149900000Y-71100000D01*
X149900000Y-71100000D02*
X149900000Y-70000000D01*
X149900000Y-70000000D02*
X149300000Y-70500000D01*
X149300000Y-70500000D02*
X149800000Y-70900000D01*
X149800000Y-70900000D02*
X149800000Y-70200000D01*
X149800000Y-70200000D02*
X149500000Y-70500000D01*
X149500000Y-70500000D02*
X149700000Y-70700000D01*
X149700000Y-70700000D02*
X149700000Y-70400000D01*
X149700000Y-70400000D02*
X149600000Y-70500000D01*
X149600000Y-70500000D02*
X149200000Y-70500000D01*
X149000000Y-71300000D02*
X149000000Y-69800000D01*
X150000000Y-71300000D02*
X150000000Y-69800000D01*
X150000000Y-69800000D02*
X149100000Y-70500000D01*
X149100000Y-70500000D02*
X150000000Y-71300000D01*
X147100000Y-69250000D02*
X147100000Y-69150000D01*
X147100000Y-71800000D02*
X147100000Y-69250000D01*
X151100000Y-69100000D02*
X147900000Y-69100000D01*
X147900000Y-71900000D02*
X151100000Y-71900000D01*
X138300000Y-70500000D02*
X138900000Y-71100000D01*
X138900000Y-71100000D02*
X138900000Y-70000000D01*
X138900000Y-70000000D02*
X138300000Y-70500000D01*
X138300000Y-70500000D02*
X138800000Y-70900000D01*
X138800000Y-70900000D02*
X138800000Y-70200000D01*
X138800000Y-70200000D02*
X138500000Y-70500000D01*
X138500000Y-70500000D02*
X138700000Y-70700000D01*
X138700000Y-70700000D02*
X138700000Y-70400000D01*
X138700000Y-70400000D02*
X138600000Y-70500000D01*
X138600000Y-70500000D02*
X138200000Y-70500000D01*
X138000000Y-71300000D02*
X138000000Y-69800000D01*
X139000000Y-71300000D02*
X139000000Y-69800000D01*
X139000000Y-69800000D02*
X138100000Y-70500000D01*
X138100000Y-70500000D02*
X139000000Y-71300000D01*
X136100000Y-69250000D02*
X136100000Y-69150000D01*
X136100000Y-71800000D02*
X136100000Y-69250000D01*
X140100000Y-69100000D02*
X136900000Y-69100000D01*
X136900000Y-71900000D02*
X140100000Y-71900000D01*
X127300000Y-70500000D02*
X127900000Y-71100000D01*
X127900000Y-71100000D02*
X127900000Y-70000000D01*
X127900000Y-70000000D02*
X127300000Y-70500000D01*
X127300000Y-70500000D02*
X127800000Y-70900000D01*
X127800000Y-70900000D02*
X127800000Y-70200000D01*
X127800000Y-70200000D02*
X127500000Y-70500000D01*
X127500000Y-70500000D02*
X127700000Y-70700000D01*
X127700000Y-70700000D02*
X127700000Y-70400000D01*
X127700000Y-70400000D02*
X127600000Y-70500000D01*
X127600000Y-70500000D02*
X127200000Y-70500000D01*
X127000000Y-71300000D02*
X127000000Y-69800000D01*
X128000000Y-71300000D02*
X128000000Y-69800000D01*
X128000000Y-69800000D02*
X127100000Y-70500000D01*
X127100000Y-70500000D02*
X128000000Y-71300000D01*
X125100000Y-69250000D02*
X125100000Y-69150000D01*
X125100000Y-71800000D02*
X125100000Y-69250000D01*
X129100000Y-69100000D02*
X125900000Y-69100000D01*
X125900000Y-71900000D02*
X129100000Y-71900000D01*
X116300000Y-70500000D02*
X116900000Y-71100000D01*
X116900000Y-71100000D02*
X116900000Y-70000000D01*
X116900000Y-70000000D02*
X116300000Y-70500000D01*
X116300000Y-70500000D02*
X116800000Y-70900000D01*
X116800000Y-70900000D02*
X116800000Y-70200000D01*
X116800000Y-70200000D02*
X116500000Y-70500000D01*
X116500000Y-70500000D02*
X116700000Y-70700000D01*
X116700000Y-70700000D02*
X116700000Y-70400000D01*
X116700000Y-70400000D02*
X116600000Y-70500000D01*
X116600000Y-70500000D02*
X116200000Y-70500000D01*
X116000000Y-71300000D02*
X116000000Y-69800000D01*
X117000000Y-71300000D02*
X117000000Y-69800000D01*
X117000000Y-69800000D02*
X116100000Y-70500000D01*
X116100000Y-70500000D02*
X117000000Y-71300000D01*
X114100000Y-69250000D02*
X114100000Y-69150000D01*
X114100000Y-71800000D02*
X114100000Y-69250000D01*
X118100000Y-69100000D02*
X114900000Y-69100000D01*
X114900000Y-71900000D02*
X118100000Y-71900000D01*
X105300000Y-70500000D02*
X105900000Y-71100000D01*
X105900000Y-71100000D02*
X105900000Y-70000000D01*
X105900000Y-70000000D02*
X105300000Y-70500000D01*
X105300000Y-70500000D02*
X105800000Y-70900000D01*
X105800000Y-70900000D02*
X105800000Y-70200000D01*
X105800000Y-70200000D02*
X105500000Y-70500000D01*
X105500000Y-70500000D02*
X105700000Y-70700000D01*
X105700000Y-70700000D02*
X105700000Y-70400000D01*
X105700000Y-70400000D02*
X105600000Y-70500000D01*
X105600000Y-70500000D02*
X105200000Y-70500000D01*
X105000000Y-71300000D02*
X105000000Y-69800000D01*
X106000000Y-71300000D02*
X106000000Y-69800000D01*
X106000000Y-69800000D02*
X105100000Y-70500000D01*
X105100000Y-70500000D02*
X106000000Y-71300000D01*
X103100000Y-69250000D02*
X103100000Y-69150000D01*
X103100000Y-71800000D02*
X103100000Y-69250000D01*
X107100000Y-69100000D02*
X103900000Y-69100000D01*
X103900000Y-71900000D02*
X107100000Y-71900000D01*
X182700000Y-59500000D02*
X182100000Y-58900000D01*
X182100000Y-58900000D02*
X182100000Y-60000000D01*
X182100000Y-60000000D02*
X182700000Y-59500000D01*
X182700000Y-59500000D02*
X182200000Y-59100000D01*
X182200000Y-59100000D02*
X182200000Y-59800000D01*
X182200000Y-59800000D02*
X182500000Y-59500000D01*
X182500000Y-59500000D02*
X182300000Y-59300000D01*
X182300000Y-59300000D02*
X182300000Y-59600000D01*
X182300000Y-59600000D02*
X182400000Y-59500000D01*
X182400000Y-59500000D02*
X182800000Y-59500000D01*
X183000000Y-58700000D02*
X183000000Y-60200000D01*
X182000000Y-58700000D02*
X182000000Y-60200000D01*
X182000000Y-60200000D02*
X182900000Y-59500000D01*
X182900000Y-59500000D02*
X182000000Y-58700000D01*
X184900000Y-60750000D02*
X184900000Y-60850000D01*
X184900000Y-58200000D02*
X184900000Y-60750000D01*
X180900000Y-60900000D02*
X184100000Y-60900000D01*
X184100000Y-58100000D02*
X180900000Y-58100000D01*
X171700000Y-59500000D02*
X171100000Y-58900000D01*
X171100000Y-58900000D02*
X171100000Y-60000000D01*
X171100000Y-60000000D02*
X171700000Y-59500000D01*
X171700000Y-59500000D02*
X171200000Y-59100000D01*
X171200000Y-59100000D02*
X171200000Y-59800000D01*
X171200000Y-59800000D02*
X171500000Y-59500000D01*
X171500000Y-59500000D02*
X171300000Y-59300000D01*
X171300000Y-59300000D02*
X171300000Y-59600000D01*
X171300000Y-59600000D02*
X171400000Y-59500000D01*
X171400000Y-59500000D02*
X171800000Y-59500000D01*
X172000000Y-58700000D02*
X172000000Y-60200000D01*
X171000000Y-58700000D02*
X171000000Y-60200000D01*
X171000000Y-60200000D02*
X171900000Y-59500000D01*
X171900000Y-59500000D02*
X171000000Y-58700000D01*
X173900000Y-60750000D02*
X173900000Y-60850000D01*
X173900000Y-58200000D02*
X173900000Y-60750000D01*
X169900000Y-60900000D02*
X173100000Y-60900000D01*
X173100000Y-58100000D02*
X169900000Y-58100000D01*
X160700000Y-59500000D02*
X160100000Y-58900000D01*
X160100000Y-58900000D02*
X160100000Y-60000000D01*
X160100000Y-60000000D02*
X160700000Y-59500000D01*
X160700000Y-59500000D02*
X160200000Y-59100000D01*
X160200000Y-59100000D02*
X160200000Y-59800000D01*
X160200000Y-59800000D02*
X160500000Y-59500000D01*
X160500000Y-59500000D02*
X160300000Y-59300000D01*
X160300000Y-59300000D02*
X160300000Y-59600000D01*
X160300000Y-59600000D02*
X160400000Y-59500000D01*
X160400000Y-59500000D02*
X160800000Y-59500000D01*
X161000000Y-58700000D02*
X161000000Y-60200000D01*
X160000000Y-58700000D02*
X160000000Y-60200000D01*
X160000000Y-60200000D02*
X160900000Y-59500000D01*
X160900000Y-59500000D02*
X160000000Y-58700000D01*
X162900000Y-60750000D02*
X162900000Y-60850000D01*
X162900000Y-58200000D02*
X162900000Y-60750000D01*
X158900000Y-60900000D02*
X162100000Y-60900000D01*
X162100000Y-58100000D02*
X158900000Y-58100000D01*
X149700000Y-59500000D02*
X149100000Y-58900000D01*
X149100000Y-58900000D02*
X149100000Y-60000000D01*
X149100000Y-60000000D02*
X149700000Y-59500000D01*
X149700000Y-59500000D02*
X149200000Y-59100000D01*
X149200000Y-59100000D02*
X149200000Y-59800000D01*
X149200000Y-59800000D02*
X149500000Y-59500000D01*
X149500000Y-59500000D02*
X149300000Y-59300000D01*
X149300000Y-59300000D02*
X149300000Y-59600000D01*
X149300000Y-59600000D02*
X149400000Y-59500000D01*
X149400000Y-59500000D02*
X149800000Y-59500000D01*
X150000000Y-58700000D02*
X150000000Y-60200000D01*
X149000000Y-58700000D02*
X149000000Y-60200000D01*
X149000000Y-60200000D02*
X149900000Y-59500000D01*
X149900000Y-59500000D02*
X149000000Y-58700000D01*
X151900000Y-60750000D02*
X151900000Y-60850000D01*
X151900000Y-58200000D02*
X151900000Y-60750000D01*
X147900000Y-60900000D02*
X151100000Y-60900000D01*
X151100000Y-58100000D02*
X147900000Y-58100000D01*
X138700000Y-59500000D02*
X138100000Y-58900000D01*
X138100000Y-58900000D02*
X138100000Y-60000000D01*
X138100000Y-60000000D02*
X138700000Y-59500000D01*
X138700000Y-59500000D02*
X138200000Y-59100000D01*
X138200000Y-59100000D02*
X138200000Y-59800000D01*
X138200000Y-59800000D02*
X138500000Y-59500000D01*
X138500000Y-59500000D02*
X138300000Y-59300000D01*
X138300000Y-59300000D02*
X138300000Y-59600000D01*
X138300000Y-59600000D02*
X138400000Y-59500000D01*
X138400000Y-59500000D02*
X138800000Y-59500000D01*
X139000000Y-58700000D02*
X139000000Y-60200000D01*
X138000000Y-58700000D02*
X138000000Y-60200000D01*
X138000000Y-60200000D02*
X138900000Y-59500000D01*
X138900000Y-59500000D02*
X138000000Y-58700000D01*
X140900000Y-60750000D02*
X140900000Y-60850000D01*
X140900000Y-58200000D02*
X140900000Y-60750000D01*
X136900000Y-60900000D02*
X140100000Y-60900000D01*
X140100000Y-58100000D02*
X136900000Y-58100000D01*
X127700000Y-59500000D02*
X127100000Y-58900000D01*
X127100000Y-58900000D02*
X127100000Y-60000000D01*
X127100000Y-60000000D02*
X127700000Y-59500000D01*
X127700000Y-59500000D02*
X127200000Y-59100000D01*
X127200000Y-59100000D02*
X127200000Y-59800000D01*
X127200000Y-59800000D02*
X127500000Y-59500000D01*
X127500000Y-59500000D02*
X127300000Y-59300000D01*
X127300000Y-59300000D02*
X127300000Y-59600000D01*
X127300000Y-59600000D02*
X127400000Y-59500000D01*
X127400000Y-59500000D02*
X127800000Y-59500000D01*
X128000000Y-58700000D02*
X128000000Y-60200000D01*
X127000000Y-58700000D02*
X127000000Y-60200000D01*
X127000000Y-60200000D02*
X127900000Y-59500000D01*
X127900000Y-59500000D02*
X127000000Y-58700000D01*
X129900000Y-60750000D02*
X129900000Y-60850000D01*
X129900000Y-58200000D02*
X129900000Y-60750000D01*
X125900000Y-60900000D02*
X129100000Y-60900000D01*
X129100000Y-58100000D02*
X125900000Y-58100000D01*
X116700000Y-59500000D02*
X116100000Y-58900000D01*
X116100000Y-58900000D02*
X116100000Y-60000000D01*
X116100000Y-60000000D02*
X116700000Y-59500000D01*
X116700000Y-59500000D02*
X116200000Y-59100000D01*
X116200000Y-59100000D02*
X116200000Y-59800000D01*
X116200000Y-59800000D02*
X116500000Y-59500000D01*
X116500000Y-59500000D02*
X116300000Y-59300000D01*
X116300000Y-59300000D02*
X116300000Y-59600000D01*
X116300000Y-59600000D02*
X116400000Y-59500000D01*
X116400000Y-59500000D02*
X116800000Y-59500000D01*
X117000000Y-58700000D02*
X117000000Y-60200000D01*
X116000000Y-58700000D02*
X116000000Y-60200000D01*
X116000000Y-60200000D02*
X116900000Y-59500000D01*
X116900000Y-59500000D02*
X116000000Y-58700000D01*
X118900000Y-60750000D02*
X118900000Y-60850000D01*
X118900000Y-58200000D02*
X118900000Y-60750000D01*
X114900000Y-60900000D02*
X118100000Y-60900000D01*
X118100000Y-58100000D02*
X114900000Y-58100000D01*
X105700000Y-59500000D02*
X105100000Y-58900000D01*
X105100000Y-58900000D02*
X105100000Y-60000000D01*
X105100000Y-60000000D02*
X105700000Y-59500000D01*
X105700000Y-59500000D02*
X105200000Y-59100000D01*
X105200000Y-59100000D02*
X105200000Y-59800000D01*
X105200000Y-59800000D02*
X105500000Y-59500000D01*
X105500000Y-59500000D02*
X105300000Y-59300000D01*
X105300000Y-59300000D02*
X105300000Y-59600000D01*
X105300000Y-59600000D02*
X105400000Y-59500000D01*
X105400000Y-59500000D02*
X105800000Y-59500000D01*
X106000000Y-58700000D02*
X106000000Y-60200000D01*
X105000000Y-58700000D02*
X105000000Y-60200000D01*
X105000000Y-60200000D02*
X105900000Y-59500000D01*
X105900000Y-59500000D02*
X105000000Y-58700000D01*
X107900000Y-60750000D02*
X107900000Y-60850000D01*
X107900000Y-58200000D02*
X107900000Y-60750000D01*
X103900000Y-60900000D02*
X107100000Y-60900000D01*
X107100000Y-58100000D02*
X103900000Y-58100000D01*
D13*
G36*
X122437429Y-83862590D02*
X122402771Y-83869293D01*
X122357312Y-83884309D01*
X122309882Y-83905867D01*
X122265428Y-83931588D01*
X122247958Y-83943705D01*
X122225559Y-83962096D01*
X122199324Y-83986470D01*
X122172240Y-84013817D01*
X122147292Y-84041128D01*
X122128197Y-84064423D01*
X122115604Y-84081054D01*
X122103926Y-84096419D01*
X122100344Y-84101112D01*
X122093178Y-84111662D01*
X122082064Y-84129390D01*
X122068630Y-84151657D01*
X122056897Y-84171667D01*
X122036318Y-84207274D01*
X122013829Y-84246246D01*
X121990223Y-84287203D01*
X121966292Y-84328768D01*
X121942828Y-84369563D01*
X121920623Y-84408208D01*
X121900469Y-84443325D01*
X121883159Y-84473537D01*
X121869485Y-84497464D01*
X121860238Y-84513729D01*
X121857387Y-84518800D01*
X121849457Y-84532826D01*
X121836294Y-84555824D01*
X121818351Y-84587015D01*
X121796079Y-84625618D01*
X121769928Y-84670851D01*
X121740350Y-84721935D01*
X121707796Y-84778087D01*
X121672717Y-84838527D01*
X121660897Y-84858878D01*
X121637415Y-84899331D01*
X121617468Y-84933751D01*
X121601767Y-84960909D01*
X121591023Y-84979578D01*
X121590813Y-84979945D01*
X121583954Y-84991916D01*
X121573009Y-85011013D01*
X121559507Y-85034569D01*
X121545520Y-85058968D01*
X121529299Y-85087277D01*
X121512519Y-85116592D01*
X121497391Y-85143049D01*
X121488028Y-85159445D01*
X121474130Y-85183654D01*
X121459411Y-85209048D01*
X121447135Y-85230000D01*
X121437402Y-85246542D01*
X121428263Y-85262301D01*
X121418200Y-85279938D01*
X121405695Y-85302112D01*
X121389230Y-85331484D01*
X121389165Y-85331600D01*
X121381127Y-85345689D01*
X121368808Y-85366949D01*
X121353687Y-85392844D01*
X121337242Y-85420835D01*
X121331613Y-85430378D01*
X121314714Y-85459142D01*
X121298329Y-85487302D01*
X121284050Y-85512101D01*
X121273470Y-85530784D01*
X121271247Y-85534800D01*
X121262461Y-85550478D01*
X121249383Y-85573383D01*
X121233450Y-85601018D01*
X121216100Y-85630886D01*
X121206281Y-85647689D01*
X121186452Y-85681644D01*
X121163280Y-85721481D01*
X121139035Y-85763285D01*
X121115989Y-85803146D01*
X121104737Y-85822667D01*
X121087319Y-85852901D01*
X121065629Y-85890507D01*
X121041051Y-85933086D01*
X121014971Y-85978243D01*
X120988772Y-86023578D01*
X120964600Y-86065378D01*
X120940669Y-86106770D01*
X120916480Y-86148654D01*
X120893192Y-86189017D01*
X120871966Y-86225847D01*
X120853963Y-86257129D01*
X120840344Y-86280853D01*
X120839293Y-86282689D01*
X120824705Y-86308099D01*
X120811795Y-86330455D01*
X120801765Y-86347687D01*
X120795816Y-86357721D01*
X120795090Y-86358889D01*
X120790755Y-86366153D01*
X120781727Y-86381637D01*
X120768918Y-86403763D01*
X120753242Y-86430952D01*
X120735611Y-86461625D01*
X120729786Y-86471778D01*
X120711228Y-86504121D01*
X120693876Y-86534325D01*
X120678767Y-86560589D01*
X120666936Y-86581113D01*
X120659421Y-86594094D01*
X120658335Y-86595956D01*
X120650228Y-86610048D01*
X120638726Y-86630353D01*
X120625901Y-86653207D01*
X120621630Y-86660867D01*
X120600643Y-86698277D01*
X120580195Y-86734191D01*
X120561615Y-86766300D01*
X120546235Y-86792297D01*
X120538599Y-86804800D01*
X120530974Y-86817437D01*
X120519362Y-86837172D01*
X120505351Y-86861285D01*
X120490767Y-86886645D01*
X120475281Y-86913649D01*
X120456092Y-86947001D01*
X120435168Y-86983288D01*
X120414477Y-87019096D01*
X120404562Y-87036223D01*
X120390419Y-87060667D01*
X120371587Y-87093270D01*
X120349002Y-87132407D01*
X120323603Y-87176450D01*
X120296328Y-87223773D01*
X120268115Y-87272749D01*
X120239902Y-87321752D01*
X120232059Y-87335378D01*
X120189652Y-87409057D01*
X120152191Y-87474120D01*
X120119000Y-87531737D01*
X120089401Y-87583083D01*
X120062720Y-87629328D01*
X120038280Y-87671645D01*
X120015403Y-87711207D01*
X119993413Y-87749185D01*
X119971635Y-87786752D01*
X119961704Y-87803867D01*
X119947628Y-87828186D01*
X119928867Y-87860693D01*
X119906349Y-87899778D01*
X119880998Y-87943833D01*
X119853740Y-87991248D01*
X119825501Y-88040415D01*
X119797207Y-88089725D01*
X119787964Y-88105845D01*
X119761882Y-88151269D01*
X119737237Y-88194056D01*
X119714657Y-88233126D01*
X119694769Y-88267398D01*
X119678202Y-88295792D01*
X119665584Y-88317226D01*
X119657544Y-88330620D01*
X119655110Y-88334445D01*
X119644530Y-88351364D01*
X119630739Y-88376001D01*
X119615049Y-88405734D01*
X119598774Y-88437937D01*
X119583225Y-88469987D01*
X119569714Y-88499260D01*
X119559556Y-88523131D01*
X119556027Y-88532557D01*
X119539039Y-88593424D01*
X119528617Y-88656942D01*
X119525018Y-88719974D01*
X119528497Y-88779383D01*
X119533427Y-88808935D01*
X119552387Y-88872534D01*
X119580884Y-88930425D01*
X119618538Y-88982296D01*
X119664972Y-89027835D01*
X119719807Y-89066731D01*
X119782663Y-89098671D01*
X119853162Y-89123345D01*
X119930926Y-89140440D01*
X119937422Y-89141466D01*
X119944230Y-89142038D01*
X119957172Y-89142583D01*
X119976466Y-89143100D01*
X120002328Y-89143592D01*
X120034978Y-89144058D01*
X120074632Y-89144499D01*
X120121508Y-89144915D01*
X120175824Y-89145309D01*
X120237798Y-89145679D01*
X120307647Y-89146027D01*
X120385589Y-89146354D01*
X120471843Y-89146660D01*
X120566624Y-89146946D01*
X120670152Y-89147212D01*
X120782644Y-89147460D01*
X120904317Y-89147689D01*
X121035389Y-89147901D01*
X121176079Y-89148096D01*
X121326603Y-89148275D01*
X121487180Y-89148439D01*
X121658027Y-89148588D01*
X121839361Y-89148722D01*
X122031402Y-89148844D01*
X122234365Y-89148952D01*
X122378644Y-89149019D01*
X122544067Y-89149083D01*
X122707261Y-89149130D01*
X122867830Y-89149161D01*
X123025376Y-89149175D01*
X123179501Y-89149173D01*
X123329808Y-89149155D01*
X123475899Y-89149123D01*
X123617376Y-89149075D01*
X123753842Y-89149013D01*
X123884899Y-89148937D01*
X124010149Y-89148848D01*
X124129195Y-89148745D01*
X124241640Y-89148629D01*
X124347084Y-89148500D01*
X124445131Y-89148359D01*
X124535384Y-89148207D01*
X124617443Y-89148042D01*
X124690913Y-89147867D01*
X124755395Y-89147681D01*
X124810491Y-89147484D01*
X124855804Y-89147278D01*
X124890936Y-89147062D01*
X124915490Y-89146836D01*
X124927111Y-89146653D01*
X124973149Y-89145533D01*
X125009701Y-89144411D01*
X125038570Y-89143127D01*
X125061558Y-89141518D01*
X125080468Y-89139423D01*
X125097103Y-89136682D01*
X125113264Y-89133131D01*
X125130754Y-89128611D01*
X125131805Y-89128327D01*
X125184994Y-89110556D01*
X121975067Y-89110556D01*
X121972244Y-89113378D01*
X121969422Y-89110556D01*
X121972244Y-89107734D01*
X121975067Y-89110556D01*
X125184994Y-89110556D01*
X125205832Y-89103594D01*
X125271143Y-89071826D01*
X125272282Y-89071045D01*
X122951556Y-89071045D01*
X122948733Y-89073867D01*
X122945911Y-89071045D01*
X122948733Y-89068223D01*
X122951556Y-89071045D01*
X125272282Y-89071045D01*
X125327678Y-89033068D01*
X125335170Y-89025889D01*
X122906400Y-89025889D01*
X122903578Y-89028712D01*
X122900756Y-89025889D01*
X122903578Y-89023067D01*
X122906400Y-89025889D01*
X125335170Y-89025889D01*
X125375376Y-88987366D01*
X125380268Y-88980734D01*
X122861244Y-88980734D01*
X122858422Y-88983556D01*
X122855600Y-88980734D01*
X122858422Y-88977912D01*
X122861244Y-88980734D01*
X125380268Y-88980734D01*
X125413578Y-88935578D01*
X122816089Y-88935578D01*
X122813267Y-88938400D01*
X122810444Y-88935578D01*
X122813267Y-88932756D01*
X122816089Y-88935578D01*
X125413578Y-88935578D01*
X125414179Y-88934764D01*
X125423066Y-88918645D01*
X122799156Y-88918645D01*
X122796333Y-88921467D01*
X122793511Y-88918645D01*
X122796333Y-88915823D01*
X122799156Y-88918645D01*
X125423066Y-88918645D01*
X125431401Y-88903529D01*
X125449998Y-88862284D01*
X125462688Y-88824398D01*
X125470365Y-88785902D01*
X125473924Y-88742829D01*
X125474455Y-88712623D01*
X125474435Y-88711900D01*
X125214159Y-88711900D01*
X125209729Y-88753637D01*
X125195633Y-88790025D01*
X125171891Y-88820918D01*
X125138520Y-88846169D01*
X125095541Y-88865633D01*
X125085666Y-88868858D01*
X125062730Y-88875312D01*
X125040543Y-88879959D01*
X125016005Y-88883222D01*
X124986018Y-88885529D01*
X124952511Y-88887109D01*
X124941122Y-88887331D01*
X124918824Y-88887543D01*
X124885998Y-88887745D01*
X124843026Y-88887936D01*
X124790288Y-88888116D01*
X124728164Y-88888284D01*
X124657036Y-88888441D01*
X124577284Y-88888586D01*
X124489288Y-88888719D01*
X124393430Y-88888839D01*
X124290090Y-88888946D01*
X124179649Y-88889041D01*
X124062487Y-88889122D01*
X123938986Y-88889189D01*
X123809525Y-88889242D01*
X123674486Y-88889281D01*
X123534250Y-88889305D01*
X123389196Y-88889315D01*
X123239706Y-88889309D01*
X123086161Y-88889288D01*
X122928940Y-88889252D01*
X122768426Y-88889199D01*
X122604998Y-88889130D01*
X122439037Y-88889044D01*
X122430628Y-88889039D01*
X122230199Y-88888922D01*
X122040753Y-88888803D01*
X121861986Y-88888680D01*
X121693593Y-88888554D01*
X121535267Y-88888422D01*
X121386705Y-88888283D01*
X121247600Y-88888137D01*
X121117649Y-88887981D01*
X120996545Y-88887816D01*
X120883983Y-88887639D01*
X120779659Y-88887450D01*
X120683267Y-88887247D01*
X120594502Y-88887029D01*
X120513059Y-88886795D01*
X120438633Y-88886544D01*
X120370918Y-88886274D01*
X120309609Y-88885985D01*
X120254402Y-88885675D01*
X120204990Y-88885343D01*
X120161070Y-88884989D01*
X120122335Y-88884609D01*
X120088481Y-88884205D01*
X120059202Y-88883773D01*
X120034193Y-88883314D01*
X120013150Y-88882826D01*
X119995767Y-88882307D01*
X119981738Y-88881757D01*
X119970759Y-88881175D01*
X119962524Y-88880558D01*
X119956729Y-88879907D01*
X119954075Y-88879454D01*
X119901561Y-88864506D01*
X119858649Y-88843693D01*
X119825433Y-88817233D01*
X119802002Y-88785343D01*
X119788450Y-88748238D01*
X119784867Y-88706137D01*
X119791346Y-88659255D01*
X119807977Y-88607809D01*
X119824131Y-88572311D01*
X119835711Y-88550109D01*
X119851121Y-88521720D01*
X119868423Y-88490661D01*
X119885682Y-88460449D01*
X119887118Y-88457975D01*
X119904364Y-88428213D01*
X119922019Y-88397569D01*
X119938110Y-88369479D01*
X119950664Y-88347378D01*
X119951590Y-88345734D01*
X119964195Y-88323386D01*
X119976173Y-88302238D01*
X119985322Y-88286172D01*
X119986772Y-88283645D01*
X120001805Y-88257550D01*
X120021464Y-88223500D01*
X120044704Y-88183303D01*
X120070480Y-88138765D01*
X120097744Y-88091691D01*
X120125452Y-88043888D01*
X120152557Y-87997163D01*
X120178014Y-87953321D01*
X120182862Y-87944978D01*
X120204921Y-87906964D01*
X120227651Y-87867696D01*
X120250049Y-87828913D01*
X120271113Y-87792355D01*
X120289841Y-87759764D01*
X120305230Y-87732880D01*
X120316278Y-87713443D01*
X120318793Y-87708972D01*
X120328503Y-87691784D01*
X120341874Y-87668329D01*
X120358058Y-87640073D01*
X120376209Y-87608481D01*
X120395480Y-87575018D01*
X120415024Y-87541152D01*
X120433995Y-87508346D01*
X120451546Y-87478067D01*
X120466831Y-87451781D01*
X120479003Y-87430953D01*
X120487215Y-87417049D01*
X120490585Y-87411578D01*
X120494850Y-87404756D01*
X120503433Y-87390109D01*
X120515158Y-87369674D01*
X120528849Y-87345486D01*
X120531357Y-87341023D01*
X120545315Y-87316382D01*
X120563533Y-87284558D01*
X120584542Y-87248095D01*
X120606876Y-87209539D01*
X120629066Y-87171435D01*
X120635518Y-87160400D01*
X120657818Y-87122176D01*
X120681114Y-87082028D01*
X120703827Y-87042695D01*
X120724374Y-87006918D01*
X120741174Y-86977436D01*
X120744637Y-86971312D01*
X120761646Y-86941302D01*
X120778997Y-86910937D01*
X120794863Y-86883395D01*
X120807418Y-86861858D01*
X120809447Y-86858423D01*
X120823896Y-86833768D01*
X120839153Y-86807304D01*
X120851757Y-86785045D01*
X120861359Y-86768079D01*
X120875133Y-86744065D01*
X120891533Y-86715685D01*
X120909009Y-86685625D01*
X120916875Y-86672156D01*
X120940783Y-86631152D01*
X120969804Y-86581153D01*
X121003466Y-86522976D01*
X121041296Y-86457437D01*
X121082824Y-86385354D01*
X121127578Y-86307542D01*
X121148342Y-86271400D01*
X121193690Y-86192471D01*
X121233662Y-86122954D01*
X121268483Y-86062458D01*
X121298380Y-86010595D01*
X121323577Y-85966975D01*
X121344298Y-85931208D01*
X121360770Y-85902903D01*
X121373218Y-85881672D01*
X121380426Y-85869522D01*
X121395547Y-85843889D01*
X121412625Y-85814385D01*
X121428179Y-85787030D01*
X121429399Y-85784855D01*
X121439108Y-85767677D01*
X121453382Y-85742641D01*
X121471125Y-85711658D01*
X121491242Y-85676638D01*
X121512638Y-85639491D01*
X121529087Y-85611000D01*
X121554693Y-85566664D01*
X121583841Y-85516136D01*
X121614459Y-85463016D01*
X121644470Y-85410904D01*
X121671801Y-85363398D01*
X121680346Y-85348534D01*
X121701594Y-85311586D01*
X121721973Y-85276200D01*
X121740513Y-85244058D01*
X121756241Y-85216845D01*
X121768186Y-85196243D01*
X121774839Y-85184845D01*
X121785953Y-85165864D01*
X121801159Y-85139761D01*
X121818914Y-85109199D01*
X121837677Y-85076838D01*
X121855903Y-85045339D01*
X121872052Y-85017364D01*
X121884579Y-84995572D01*
X121886090Y-84992934D01*
X121892645Y-84981515D01*
X121903977Y-84961826D01*
X121919216Y-84935374D01*
X121937494Y-84903665D01*
X121957943Y-84868206D01*
X121979694Y-84830504D01*
X121983678Y-84823600D01*
X122005665Y-84785469D01*
X122026582Y-84749138D01*
X122045541Y-84716151D01*
X122061657Y-84688050D01*
X122074044Y-84666381D01*
X122081815Y-84652685D01*
X122082597Y-84651292D01*
X122090744Y-84636913D01*
X122103262Y-84615068D01*
X122118833Y-84588045D01*
X122136141Y-84558130D01*
X122149231Y-84535581D01*
X122169686Y-84500366D01*
X122191973Y-84461943D01*
X122213917Y-84424065D01*
X122233341Y-84390485D01*
X122240732Y-84377689D01*
X122271575Y-84324904D01*
X122298123Y-84281121D01*
X122321208Y-84245287D01*
X122341662Y-84216345D01*
X122360317Y-84193243D01*
X122378005Y-84174924D01*
X122395557Y-84160334D01*
X122413807Y-84148419D01*
X122427294Y-84141178D01*
X122461851Y-84126572D01*
X122492052Y-84120201D01*
X122520844Y-84121690D01*
X122540534Y-84126806D01*
X122569252Y-84138051D01*
X122593923Y-84152243D01*
X122617802Y-84171636D01*
X122644145Y-84198483D01*
X122644312Y-84198666D01*
X122652045Y-84207415D01*
X122659880Y-84217033D01*
X122668306Y-84228322D01*
X122677810Y-84242082D01*
X122688881Y-84259113D01*
X122702007Y-84280216D01*
X122717677Y-84306192D01*
X122736378Y-84337841D01*
X122758600Y-84375964D01*
X122784830Y-84421360D01*
X122815556Y-84474831D01*
X122851268Y-84537177D01*
X122858422Y-84549682D01*
X122882075Y-84590925D01*
X122911264Y-84641635D01*
X122945828Y-84701534D01*
X122985606Y-84770344D01*
X123030437Y-84847787D01*
X123070391Y-84916734D01*
X123090686Y-84951844D01*
X123111906Y-84988734D01*
X123132299Y-85024343D01*
X123150110Y-85055611D01*
X123160949Y-85074778D01*
X123178474Y-85105569D01*
X123198066Y-85139416D01*
X123216938Y-85171533D01*
X123228270Y-85190489D01*
X123245057Y-85218639D01*
X123262980Y-85249277D01*
X123279217Y-85277558D01*
X123285802Y-85289267D01*
X123304124Y-85322085D01*
X123319011Y-85348476D01*
X123332456Y-85371913D01*
X123346454Y-85395866D01*
X123362999Y-85423806D01*
X123365229Y-85427556D01*
X123380614Y-85453659D01*
X123396669Y-85481287D01*
X123410613Y-85505643D01*
X123414321Y-85512223D01*
X123422134Y-85526014D01*
X123434754Y-85548101D01*
X123451334Y-85577012D01*
X123471027Y-85611270D01*
X123492986Y-85649403D01*
X123516364Y-85689937D01*
X123531082Y-85715423D01*
X123558685Y-85763240D01*
X123588735Y-85815369D01*
X123619657Y-85869071D01*
X123649872Y-85921606D01*
X123677805Y-85970233D01*
X123701879Y-86012214D01*
X123704849Y-86017400D01*
X123726828Y-86055711D01*
X123748492Y-86093330D01*
X123768760Y-86128388D01*
X123786547Y-86159016D01*
X123800773Y-86183346D01*
X123809462Y-86198023D01*
X123819672Y-86215295D01*
X123834388Y-86240507D01*
X123852528Y-86271789D01*
X123873010Y-86307271D01*
X123894753Y-86345083D01*
X123913981Y-86378645D01*
X123936149Y-86417360D01*
X123958183Y-86455754D01*
X123978957Y-86491869D01*
X123997344Y-86523750D01*
X124012218Y-86549439D01*
X124021237Y-86564912D01*
X124033950Y-86586715D01*
X124050680Y-86615586D01*
X124069846Y-86648786D01*
X124089867Y-86683579D01*
X124105980Y-86711667D01*
X124124549Y-86744060D01*
X124142646Y-86775576D01*
X124158966Y-86803948D01*
X124172207Y-86826909D01*
X124180653Y-86841489D01*
X124193436Y-86863600D01*
X124206355Y-86886193D01*
X124214582Y-86900756D01*
X124224677Y-86918406D01*
X124237915Y-86941031D01*
X124251562Y-86963963D01*
X124252587Y-86965667D01*
X124264566Y-86985758D01*
X124278671Y-87009806D01*
X124295527Y-87038897D01*
X124315759Y-87074118D01*
X124339994Y-87116556D01*
X124368856Y-87167298D01*
X124382564Y-87191445D01*
X124400081Y-87222157D01*
X124420940Y-87258480D01*
X124442764Y-87296290D01*
X124463179Y-87331465D01*
X124467105Y-87338200D01*
X124484000Y-87367234D01*
X124500028Y-87394918D01*
X124513810Y-87418861D01*
X124523968Y-87436672D01*
X124527309Y-87442623D01*
X124535391Y-87456935D01*
X124547656Y-87478348D01*
X124562585Y-87504222D01*
X124578658Y-87531915D01*
X124582539Y-87538578D01*
X124760533Y-87846200D01*
X124807614Y-87928187D01*
X124849383Y-88000896D01*
X124886139Y-88064844D01*
X124918180Y-88120550D01*
X124945805Y-88168532D01*
X124969312Y-88209308D01*
X124989000Y-88243396D01*
X125005169Y-88271312D01*
X125018115Y-88293576D01*
X125028139Y-88310706D01*
X125035538Y-88323218D01*
X125037188Y-88325978D01*
X125052440Y-88351892D01*
X125069065Y-88380874D01*
X125082549Y-88405000D01*
X125095580Y-88428126D01*
X125111839Y-88456064D01*
X125128547Y-88484065D01*
X125134833Y-88494380D01*
X125169259Y-88556054D01*
X125193943Y-88612963D01*
X125208903Y-88664960D01*
X125214159Y-88711900D01*
X125474435Y-88711900D01*
X125473278Y-88671438D01*
X125469394Y-88632546D01*
X125462273Y-88594414D01*
X125451388Y-88555510D01*
X125436210Y-88514299D01*
X125416210Y-88469249D01*
X125390859Y-88418828D01*
X125359629Y-88361503D01*
X125343551Y-88333106D01*
X125311508Y-88277057D01*
X125284257Y-88229450D01*
X125261005Y-88188916D01*
X125240958Y-88154087D01*
X125223325Y-88123595D01*
X125207312Y-88096069D01*
X125192125Y-88070143D01*
X125176974Y-88044446D01*
X125161064Y-88017611D01*
X125150768Y-88000300D01*
X125134747Y-87973059D01*
X125116961Y-87942319D01*
X125101090Y-87914443D01*
X125100172Y-87912811D01*
X125090256Y-87895253D01*
X125077116Y-87872161D01*
X125060387Y-87842900D01*
X125039705Y-87806834D01*
X125014704Y-87763327D01*
X124985019Y-87711744D01*
X124950287Y-87651448D01*
X124924270Y-87606312D01*
X124911448Y-87584121D01*
X124894750Y-87555294D01*
X124875982Y-87522947D01*
X124856952Y-87490196D01*
X124848978Y-87476489D01*
X124832030Y-87447306D01*
X124816120Y-87419801D01*
X124802538Y-87396207D01*
X124792570Y-87378759D01*
X124788803Y-87372067D01*
X124766291Y-87331903D01*
X124744449Y-87293606D01*
X124724958Y-87260097D01*
X124712622Y-87239423D01*
X124699593Y-87217560D01*
X124684659Y-87191942D01*
X124673083Y-87171689D01*
X124663019Y-87154035D01*
X124648772Y-87129277D01*
X124631865Y-87100052D01*
X124613822Y-87068997D01*
X124603477Y-87051256D01*
X124587485Y-87023779D01*
X124573687Y-86999899D01*
X124563004Y-86981228D01*
X124556362Y-86969379D01*
X124554578Y-86965891D01*
X124551907Y-86960690D01*
X124544597Y-86947600D01*
X124533700Y-86928480D01*
X124520268Y-86905187D01*
X124517293Y-86900057D01*
X124499119Y-86868678D01*
X124478102Y-86832268D01*
X124456995Y-86795601D01*
X124440449Y-86766765D01*
X124425148Y-86740980D01*
X124411942Y-86720515D01*
X124401821Y-86706798D01*
X124395776Y-86701256D01*
X124395017Y-86701315D01*
X124391829Y-86701293D01*
X124392968Y-86698758D01*
X124391369Y-86692283D01*
X124384769Y-86677577D01*
X124373929Y-86656116D01*
X124359606Y-86629377D01*
X124342559Y-86598840D01*
X124333817Y-86583586D01*
X124312234Y-86546221D01*
X124289523Y-86506883D01*
X124267347Y-86468454D01*
X124247368Y-86433814D01*
X124231249Y-86405843D01*
X124230214Y-86404045D01*
X124211840Y-86372196D01*
X124191848Y-86337634D01*
X124172650Y-86304528D01*
X124156660Y-86277045D01*
X124140095Y-86248448D01*
X124122432Y-86217631D01*
X124106306Y-86189207D01*
X124098590Y-86175445D01*
X124086073Y-86153132D01*
X124071123Y-86126731D01*
X124055196Y-86098789D01*
X124039750Y-86071850D01*
X124026243Y-86048461D01*
X124016130Y-86031166D01*
X124012965Y-86025867D01*
X124008211Y-86017749D01*
X123999216Y-86002164D01*
X123987327Y-85981454D01*
X123975603Y-85960956D01*
X123958148Y-85930679D01*
X123938321Y-85896737D01*
X123919290Y-85864540D01*
X123911126Y-85850889D01*
X123895788Y-85825089D01*
X123880637Y-85799097D01*
X123867846Y-85776668D01*
X123862069Y-85766223D01*
X123850796Y-85745977D01*
X123836462Y-85721023D01*
X123821899Y-85696280D01*
X123819842Y-85692845D01*
X123805123Y-85667973D01*
X123789844Y-85641584D01*
X123777039Y-85618927D01*
X123775778Y-85616645D01*
X123765515Y-85598324D01*
X123751393Y-85573539D01*
X123735280Y-85545553D01*
X123719185Y-85517867D01*
X123704937Y-85493369D01*
X123686554Y-85461572D01*
X123665480Y-85424988D01*
X123643163Y-85386128D01*
X123621049Y-85347506D01*
X123613575Y-85334423D01*
X123589804Y-85292911D01*
X123563368Y-85246964D01*
X123536264Y-85200036D01*
X123510485Y-85155580D01*
X123488027Y-85117050D01*
X123485504Y-85112739D01*
X123466635Y-85080464D01*
X123448942Y-85050104D01*
X123433503Y-85023512D01*
X123421392Y-85002542D01*
X123413685Y-84989048D01*
X123412693Y-84987277D01*
X123403231Y-84970464D01*
X123389219Y-84945835D01*
X123371775Y-84915336D01*
X123352018Y-84880914D01*
X123331067Y-84844515D01*
X123310040Y-84808084D01*
X123290056Y-84773569D01*
X123273202Y-84744578D01*
X123257595Y-84717722D01*
X123242675Y-84691911D01*
X123230086Y-84669995D01*
X123221470Y-84654824D01*
X123221158Y-84654267D01*
X123210466Y-84635356D01*
X123197327Y-84612393D01*
X123187282Y-84595000D01*
X123176165Y-84575835D01*
X123160304Y-84548467D01*
X123140609Y-84514466D01*
X123117989Y-84475401D01*
X123093351Y-84432842D01*
X123067604Y-84388360D01*
X123041658Y-84343523D01*
X123016420Y-84299901D01*
X122992800Y-84259064D01*
X122971706Y-84222581D01*
X122971639Y-84222467D01*
X122942520Y-84172730D01*
X122917480Y-84131529D01*
X122895460Y-84097349D01*
X122875401Y-84068674D01*
X122856245Y-84043987D01*
X122836933Y-84021773D01*
X122817136Y-84001240D01*
X122789282Y-83975776D01*
X122757197Y-83949975D01*
X122723766Y-83925899D01*
X122691875Y-83905608D01*
X122664411Y-83891163D01*
X122660867Y-83889634D01*
X122608722Y-83872675D01*
X122551711Y-83862326D01*
X122493419Y-83858870D01*
X122437429Y-83862590D01*
X122437429Y-83862590D01*
G37*
X122437429Y-83862590D02*
X122402771Y-83869293D01*
X122357312Y-83884309D01*
X122309882Y-83905867D01*
X122265428Y-83931588D01*
X122247958Y-83943705D01*
X122225559Y-83962096D01*
X122199324Y-83986470D01*
X122172240Y-84013817D01*
X122147292Y-84041128D01*
X122128197Y-84064423D01*
X122115604Y-84081054D01*
X122103926Y-84096419D01*
X122100344Y-84101112D01*
X122093178Y-84111662D01*
X122082064Y-84129390D01*
X122068630Y-84151657D01*
X122056897Y-84171667D01*
X122036318Y-84207274D01*
X122013829Y-84246246D01*
X121990223Y-84287203D01*
X121966292Y-84328768D01*
X121942828Y-84369563D01*
X121920623Y-84408208D01*
X121900469Y-84443325D01*
X121883159Y-84473537D01*
X121869485Y-84497464D01*
X121860238Y-84513729D01*
X121857387Y-84518800D01*
X121849457Y-84532826D01*
X121836294Y-84555824D01*
X121818351Y-84587015D01*
X121796079Y-84625618D01*
X121769928Y-84670851D01*
X121740350Y-84721935D01*
X121707796Y-84778087D01*
X121672717Y-84838527D01*
X121660897Y-84858878D01*
X121637415Y-84899331D01*
X121617468Y-84933751D01*
X121601767Y-84960909D01*
X121591023Y-84979578D01*
X121590813Y-84979945D01*
X121583954Y-84991916D01*
X121573009Y-85011013D01*
X121559507Y-85034569D01*
X121545520Y-85058968D01*
X121529299Y-85087277D01*
X121512519Y-85116592D01*
X121497391Y-85143049D01*
X121488028Y-85159445D01*
X121474130Y-85183654D01*
X121459411Y-85209048D01*
X121447135Y-85230000D01*
X121437402Y-85246542D01*
X121428263Y-85262301D01*
X121418200Y-85279938D01*
X121405695Y-85302112D01*
X121389230Y-85331484D01*
X121389165Y-85331600D01*
X121381127Y-85345689D01*
X121368808Y-85366949D01*
X121353687Y-85392844D01*
X121337242Y-85420835D01*
X121331613Y-85430378D01*
X121314714Y-85459142D01*
X121298329Y-85487302D01*
X121284050Y-85512101D01*
X121273470Y-85530784D01*
X121271247Y-85534800D01*
X121262461Y-85550478D01*
X121249383Y-85573383D01*
X121233450Y-85601018D01*
X121216100Y-85630886D01*
X121206281Y-85647689D01*
X121186452Y-85681644D01*
X121163280Y-85721481D01*
X121139035Y-85763285D01*
X121115989Y-85803146D01*
X121104737Y-85822667D01*
X121087319Y-85852901D01*
X121065629Y-85890507D01*
X121041051Y-85933086D01*
X121014971Y-85978243D01*
X120988772Y-86023578D01*
X120964600Y-86065378D01*
X120940669Y-86106770D01*
X120916480Y-86148654D01*
X120893192Y-86189017D01*
X120871966Y-86225847D01*
X120853963Y-86257129D01*
X120840344Y-86280853D01*
X120839293Y-86282689D01*
X120824705Y-86308099D01*
X120811795Y-86330455D01*
X120801765Y-86347687D01*
X120795816Y-86357721D01*
X120795090Y-86358889D01*
X120790755Y-86366153D01*
X120781727Y-86381637D01*
X120768918Y-86403763D01*
X120753242Y-86430952D01*
X120735611Y-86461625D01*
X120729786Y-86471778D01*
X120711228Y-86504121D01*
X120693876Y-86534325D01*
X120678767Y-86560589D01*
X120666936Y-86581113D01*
X120659421Y-86594094D01*
X120658335Y-86595956D01*
X120650228Y-86610048D01*
X120638726Y-86630353D01*
X120625901Y-86653207D01*
X120621630Y-86660867D01*
X120600643Y-86698277D01*
X120580195Y-86734191D01*
X120561615Y-86766300D01*
X120546235Y-86792297D01*
X120538599Y-86804800D01*
X120530974Y-86817437D01*
X120519362Y-86837172D01*
X120505351Y-86861285D01*
X120490767Y-86886645D01*
X120475281Y-86913649D01*
X120456092Y-86947001D01*
X120435168Y-86983288D01*
X120414477Y-87019096D01*
X120404562Y-87036223D01*
X120390419Y-87060667D01*
X120371587Y-87093270D01*
X120349002Y-87132407D01*
X120323603Y-87176450D01*
X120296328Y-87223773D01*
X120268115Y-87272749D01*
X120239902Y-87321752D01*
X120232059Y-87335378D01*
X120189652Y-87409057D01*
X120152191Y-87474120D01*
X120119000Y-87531737D01*
X120089401Y-87583083D01*
X120062720Y-87629328D01*
X120038280Y-87671645D01*
X120015403Y-87711207D01*
X119993413Y-87749185D01*
X119971635Y-87786752D01*
X119961704Y-87803867D01*
X119947628Y-87828186D01*
X119928867Y-87860693D01*
X119906349Y-87899778D01*
X119880998Y-87943833D01*
X119853740Y-87991248D01*
X119825501Y-88040415D01*
X119797207Y-88089725D01*
X119787964Y-88105845D01*
X119761882Y-88151269D01*
X119737237Y-88194056D01*
X119714657Y-88233126D01*
X119694769Y-88267398D01*
X119678202Y-88295792D01*
X119665584Y-88317226D01*
X119657544Y-88330620D01*
X119655110Y-88334445D01*
X119644530Y-88351364D01*
X119630739Y-88376001D01*
X119615049Y-88405734D01*
X119598774Y-88437937D01*
X119583225Y-88469987D01*
X119569714Y-88499260D01*
X119559556Y-88523131D01*
X119556027Y-88532557D01*
X119539039Y-88593424D01*
X119528617Y-88656942D01*
X119525018Y-88719974D01*
X119528497Y-88779383D01*
X119533427Y-88808935D01*
X119552387Y-88872534D01*
X119580884Y-88930425D01*
X119618538Y-88982296D01*
X119664972Y-89027835D01*
X119719807Y-89066731D01*
X119782663Y-89098671D01*
X119853162Y-89123345D01*
X119930926Y-89140440D01*
X119937422Y-89141466D01*
X119944230Y-89142038D01*
X119957172Y-89142583D01*
X119976466Y-89143100D01*
X120002328Y-89143592D01*
X120034978Y-89144058D01*
X120074632Y-89144499D01*
X120121508Y-89144915D01*
X120175824Y-89145309D01*
X120237798Y-89145679D01*
X120307647Y-89146027D01*
X120385589Y-89146354D01*
X120471843Y-89146660D01*
X120566624Y-89146946D01*
X120670152Y-89147212D01*
X120782644Y-89147460D01*
X120904317Y-89147689D01*
X121035389Y-89147901D01*
X121176079Y-89148096D01*
X121326603Y-89148275D01*
X121487180Y-89148439D01*
X121658027Y-89148588D01*
X121839361Y-89148722D01*
X122031402Y-89148844D01*
X122234365Y-89148952D01*
X122378644Y-89149019D01*
X122544067Y-89149083D01*
X122707261Y-89149130D01*
X122867830Y-89149161D01*
X123025376Y-89149175D01*
X123179501Y-89149173D01*
X123329808Y-89149155D01*
X123475899Y-89149123D01*
X123617376Y-89149075D01*
X123753842Y-89149013D01*
X123884899Y-89148937D01*
X124010149Y-89148848D01*
X124129195Y-89148745D01*
X124241640Y-89148629D01*
X124347084Y-89148500D01*
X124445131Y-89148359D01*
X124535384Y-89148207D01*
X124617443Y-89148042D01*
X124690913Y-89147867D01*
X124755395Y-89147681D01*
X124810491Y-89147484D01*
X124855804Y-89147278D01*
X124890936Y-89147062D01*
X124915490Y-89146836D01*
X124927111Y-89146653D01*
X124973149Y-89145533D01*
X125009701Y-89144411D01*
X125038570Y-89143127D01*
X125061558Y-89141518D01*
X125080468Y-89139423D01*
X125097103Y-89136682D01*
X125113264Y-89133131D01*
X125130754Y-89128611D01*
X125131805Y-89128327D01*
X125184994Y-89110556D01*
X121975067Y-89110556D01*
X121972244Y-89113378D01*
X121969422Y-89110556D01*
X121972244Y-89107734D01*
X121975067Y-89110556D01*
X125184994Y-89110556D01*
X125205832Y-89103594D01*
X125271143Y-89071826D01*
X125272282Y-89071045D01*
X122951556Y-89071045D01*
X122948733Y-89073867D01*
X122945911Y-89071045D01*
X122948733Y-89068223D01*
X122951556Y-89071045D01*
X125272282Y-89071045D01*
X125327678Y-89033068D01*
X125335170Y-89025889D01*
X122906400Y-89025889D01*
X122903578Y-89028712D01*
X122900756Y-89025889D01*
X122903578Y-89023067D01*
X122906400Y-89025889D01*
X125335170Y-89025889D01*
X125375376Y-88987366D01*
X125380268Y-88980734D01*
X122861244Y-88980734D01*
X122858422Y-88983556D01*
X122855600Y-88980734D01*
X122858422Y-88977912D01*
X122861244Y-88980734D01*
X125380268Y-88980734D01*
X125413578Y-88935578D01*
X122816089Y-88935578D01*
X122813267Y-88938400D01*
X122810444Y-88935578D01*
X122813267Y-88932756D01*
X122816089Y-88935578D01*
X125413578Y-88935578D01*
X125414179Y-88934764D01*
X125423066Y-88918645D01*
X122799156Y-88918645D01*
X122796333Y-88921467D01*
X122793511Y-88918645D01*
X122796333Y-88915823D01*
X122799156Y-88918645D01*
X125423066Y-88918645D01*
X125431401Y-88903529D01*
X125449998Y-88862284D01*
X125462688Y-88824398D01*
X125470365Y-88785902D01*
X125473924Y-88742829D01*
X125474455Y-88712623D01*
X125474435Y-88711900D01*
X125214159Y-88711900D01*
X125209729Y-88753637D01*
X125195633Y-88790025D01*
X125171891Y-88820918D01*
X125138520Y-88846169D01*
X125095541Y-88865633D01*
X125085666Y-88868858D01*
X125062730Y-88875312D01*
X125040543Y-88879959D01*
X125016005Y-88883222D01*
X124986018Y-88885529D01*
X124952511Y-88887109D01*
X124941122Y-88887331D01*
X124918824Y-88887543D01*
X124885998Y-88887745D01*
X124843026Y-88887936D01*
X124790288Y-88888116D01*
X124728164Y-88888284D01*
X124657036Y-88888441D01*
X124577284Y-88888586D01*
X124489288Y-88888719D01*
X124393430Y-88888839D01*
X124290090Y-88888946D01*
X124179649Y-88889041D01*
X124062487Y-88889122D01*
X123938986Y-88889189D01*
X123809525Y-88889242D01*
X123674486Y-88889281D01*
X123534250Y-88889305D01*
X123389196Y-88889315D01*
X123239706Y-88889309D01*
X123086161Y-88889288D01*
X122928940Y-88889252D01*
X122768426Y-88889199D01*
X122604998Y-88889130D01*
X122439037Y-88889044D01*
X122430628Y-88889039D01*
X122230199Y-88888922D01*
X122040753Y-88888803D01*
X121861986Y-88888680D01*
X121693593Y-88888554D01*
X121535267Y-88888422D01*
X121386705Y-88888283D01*
X121247600Y-88888137D01*
X121117649Y-88887981D01*
X120996545Y-88887816D01*
X120883983Y-88887639D01*
X120779659Y-88887450D01*
X120683267Y-88887247D01*
X120594502Y-88887029D01*
X120513059Y-88886795D01*
X120438633Y-88886544D01*
X120370918Y-88886274D01*
X120309609Y-88885985D01*
X120254402Y-88885675D01*
X120204990Y-88885343D01*
X120161070Y-88884989D01*
X120122335Y-88884609D01*
X120088481Y-88884205D01*
X120059202Y-88883773D01*
X120034193Y-88883314D01*
X120013150Y-88882826D01*
X119995767Y-88882307D01*
X119981738Y-88881757D01*
X119970759Y-88881175D01*
X119962524Y-88880558D01*
X119956729Y-88879907D01*
X119954075Y-88879454D01*
X119901561Y-88864506D01*
X119858649Y-88843693D01*
X119825433Y-88817233D01*
X119802002Y-88785343D01*
X119788450Y-88748238D01*
X119784867Y-88706137D01*
X119791346Y-88659255D01*
X119807977Y-88607809D01*
X119824131Y-88572311D01*
X119835711Y-88550109D01*
X119851121Y-88521720D01*
X119868423Y-88490661D01*
X119885682Y-88460449D01*
X119887118Y-88457975D01*
X119904364Y-88428213D01*
X119922019Y-88397569D01*
X119938110Y-88369479D01*
X119950664Y-88347378D01*
X119951590Y-88345734D01*
X119964195Y-88323386D01*
X119976173Y-88302238D01*
X119985322Y-88286172D01*
X119986772Y-88283645D01*
X120001805Y-88257550D01*
X120021464Y-88223500D01*
X120044704Y-88183303D01*
X120070480Y-88138765D01*
X120097744Y-88091691D01*
X120125452Y-88043888D01*
X120152557Y-87997163D01*
X120178014Y-87953321D01*
X120182862Y-87944978D01*
X120204921Y-87906964D01*
X120227651Y-87867696D01*
X120250049Y-87828913D01*
X120271113Y-87792355D01*
X120289841Y-87759764D01*
X120305230Y-87732880D01*
X120316278Y-87713443D01*
X120318793Y-87708972D01*
X120328503Y-87691784D01*
X120341874Y-87668329D01*
X120358058Y-87640073D01*
X120376209Y-87608481D01*
X120395480Y-87575018D01*
X120415024Y-87541152D01*
X120433995Y-87508346D01*
X120451546Y-87478067D01*
X120466831Y-87451781D01*
X120479003Y-87430953D01*
X120487215Y-87417049D01*
X120490585Y-87411578D01*
X120494850Y-87404756D01*
X120503433Y-87390109D01*
X120515158Y-87369674D01*
X120528849Y-87345486D01*
X120531357Y-87341023D01*
X120545315Y-87316382D01*
X120563533Y-87284558D01*
X120584542Y-87248095D01*
X120606876Y-87209539D01*
X120629066Y-87171435D01*
X120635518Y-87160400D01*
X120657818Y-87122176D01*
X120681114Y-87082028D01*
X120703827Y-87042695D01*
X120724374Y-87006918D01*
X120741174Y-86977436D01*
X120744637Y-86971312D01*
X120761646Y-86941302D01*
X120778997Y-86910937D01*
X120794863Y-86883395D01*
X120807418Y-86861858D01*
X120809447Y-86858423D01*
X120823896Y-86833768D01*
X120839153Y-86807304D01*
X120851757Y-86785045D01*
X120861359Y-86768079D01*
X120875133Y-86744065D01*
X120891533Y-86715685D01*
X120909009Y-86685625D01*
X120916875Y-86672156D01*
X120940783Y-86631152D01*
X120969804Y-86581153D01*
X121003466Y-86522976D01*
X121041296Y-86457437D01*
X121082824Y-86385354D01*
X121127578Y-86307542D01*
X121148342Y-86271400D01*
X121193690Y-86192471D01*
X121233662Y-86122954D01*
X121268483Y-86062458D01*
X121298380Y-86010595D01*
X121323577Y-85966975D01*
X121344298Y-85931208D01*
X121360770Y-85902903D01*
X121373218Y-85881672D01*
X121380426Y-85869522D01*
X121395547Y-85843889D01*
X121412625Y-85814385D01*
X121428179Y-85787030D01*
X121429399Y-85784855D01*
X121439108Y-85767677D01*
X121453382Y-85742641D01*
X121471125Y-85711658D01*
X121491242Y-85676638D01*
X121512638Y-85639491D01*
X121529087Y-85611000D01*
X121554693Y-85566664D01*
X121583841Y-85516136D01*
X121614459Y-85463016D01*
X121644470Y-85410904D01*
X121671801Y-85363398D01*
X121680346Y-85348534D01*
X121701594Y-85311586D01*
X121721973Y-85276200D01*
X121740513Y-85244058D01*
X121756241Y-85216845D01*
X121768186Y-85196243D01*
X121774839Y-85184845D01*
X121785953Y-85165864D01*
X121801159Y-85139761D01*
X121818914Y-85109199D01*
X121837677Y-85076838D01*
X121855903Y-85045339D01*
X121872052Y-85017364D01*
X121884579Y-84995572D01*
X121886090Y-84992934D01*
X121892645Y-84981515D01*
X121903977Y-84961826D01*
X121919216Y-84935374D01*
X121937494Y-84903665D01*
X121957943Y-84868206D01*
X121979694Y-84830504D01*
X121983678Y-84823600D01*
X122005665Y-84785469D01*
X122026582Y-84749138D01*
X122045541Y-84716151D01*
X122061657Y-84688050D01*
X122074044Y-84666381D01*
X122081815Y-84652685D01*
X122082597Y-84651292D01*
X122090744Y-84636913D01*
X122103262Y-84615068D01*
X122118833Y-84588045D01*
X122136141Y-84558130D01*
X122149231Y-84535581D01*
X122169686Y-84500366D01*
X122191973Y-84461943D01*
X122213917Y-84424065D01*
X122233341Y-84390485D01*
X122240732Y-84377689D01*
X122271575Y-84324904D01*
X122298123Y-84281121D01*
X122321208Y-84245287D01*
X122341662Y-84216345D01*
X122360317Y-84193243D01*
X122378005Y-84174924D01*
X122395557Y-84160334D01*
X122413807Y-84148419D01*
X122427294Y-84141178D01*
X122461851Y-84126572D01*
X122492052Y-84120201D01*
X122520844Y-84121690D01*
X122540534Y-84126806D01*
X122569252Y-84138051D01*
X122593923Y-84152243D01*
X122617802Y-84171636D01*
X122644145Y-84198483D01*
X122644312Y-84198666D01*
X122652045Y-84207415D01*
X122659880Y-84217033D01*
X122668306Y-84228322D01*
X122677810Y-84242082D01*
X122688881Y-84259113D01*
X122702007Y-84280216D01*
X122717677Y-84306192D01*
X122736378Y-84337841D01*
X122758600Y-84375964D01*
X122784830Y-84421360D01*
X122815556Y-84474831D01*
X122851268Y-84537177D01*
X122858422Y-84549682D01*
X122882075Y-84590925D01*
X122911264Y-84641635D01*
X122945828Y-84701534D01*
X122985606Y-84770344D01*
X123030437Y-84847787D01*
X123070391Y-84916734D01*
X123090686Y-84951844D01*
X123111906Y-84988734D01*
X123132299Y-85024343D01*
X123150110Y-85055611D01*
X123160949Y-85074778D01*
X123178474Y-85105569D01*
X123198066Y-85139416D01*
X123216938Y-85171533D01*
X123228270Y-85190489D01*
X123245057Y-85218639D01*
X123262980Y-85249277D01*
X123279217Y-85277558D01*
X123285802Y-85289267D01*
X123304124Y-85322085D01*
X123319011Y-85348476D01*
X123332456Y-85371913D01*
X123346454Y-85395866D01*
X123362999Y-85423806D01*
X123365229Y-85427556D01*
X123380614Y-85453659D01*
X123396669Y-85481287D01*
X123410613Y-85505643D01*
X123414321Y-85512223D01*
X123422134Y-85526014D01*
X123434754Y-85548101D01*
X123451334Y-85577012D01*
X123471027Y-85611270D01*
X123492986Y-85649403D01*
X123516364Y-85689937D01*
X123531082Y-85715423D01*
X123558685Y-85763240D01*
X123588735Y-85815369D01*
X123619657Y-85869071D01*
X123649872Y-85921606D01*
X123677805Y-85970233D01*
X123701879Y-86012214D01*
X123704849Y-86017400D01*
X123726828Y-86055711D01*
X123748492Y-86093330D01*
X123768760Y-86128388D01*
X123786547Y-86159016D01*
X123800773Y-86183346D01*
X123809462Y-86198023D01*
X123819672Y-86215295D01*
X123834388Y-86240507D01*
X123852528Y-86271789D01*
X123873010Y-86307271D01*
X123894753Y-86345083D01*
X123913981Y-86378645D01*
X123936149Y-86417360D01*
X123958183Y-86455754D01*
X123978957Y-86491869D01*
X123997344Y-86523750D01*
X124012218Y-86549439D01*
X124021237Y-86564912D01*
X124033950Y-86586715D01*
X124050680Y-86615586D01*
X124069846Y-86648786D01*
X124089867Y-86683579D01*
X124105980Y-86711667D01*
X124124549Y-86744060D01*
X124142646Y-86775576D01*
X124158966Y-86803948D01*
X124172207Y-86826909D01*
X124180653Y-86841489D01*
X124193436Y-86863600D01*
X124206355Y-86886193D01*
X124214582Y-86900756D01*
X124224677Y-86918406D01*
X124237915Y-86941031D01*
X124251562Y-86963963D01*
X124252587Y-86965667D01*
X124264566Y-86985758D01*
X124278671Y-87009806D01*
X124295527Y-87038897D01*
X124315759Y-87074118D01*
X124339994Y-87116556D01*
X124368856Y-87167298D01*
X124382564Y-87191445D01*
X124400081Y-87222157D01*
X124420940Y-87258480D01*
X124442764Y-87296290D01*
X124463179Y-87331465D01*
X124467105Y-87338200D01*
X124484000Y-87367234D01*
X124500028Y-87394918D01*
X124513810Y-87418861D01*
X124523968Y-87436672D01*
X124527309Y-87442623D01*
X124535391Y-87456935D01*
X124547656Y-87478348D01*
X124562585Y-87504222D01*
X124578658Y-87531915D01*
X124582539Y-87538578D01*
X124760533Y-87846200D01*
X124807614Y-87928187D01*
X124849383Y-88000896D01*
X124886139Y-88064844D01*
X124918180Y-88120550D01*
X124945805Y-88168532D01*
X124969312Y-88209308D01*
X124989000Y-88243396D01*
X125005169Y-88271312D01*
X125018115Y-88293576D01*
X125028139Y-88310706D01*
X125035538Y-88323218D01*
X125037188Y-88325978D01*
X125052440Y-88351892D01*
X125069065Y-88380874D01*
X125082549Y-88405000D01*
X125095580Y-88428126D01*
X125111839Y-88456064D01*
X125128547Y-88484065D01*
X125134833Y-88494380D01*
X125169259Y-88556054D01*
X125193943Y-88612963D01*
X125208903Y-88664960D01*
X125214159Y-88711900D01*
X125474435Y-88711900D01*
X125473278Y-88671438D01*
X125469394Y-88632546D01*
X125462273Y-88594414D01*
X125451388Y-88555510D01*
X125436210Y-88514299D01*
X125416210Y-88469249D01*
X125390859Y-88418828D01*
X125359629Y-88361503D01*
X125343551Y-88333106D01*
X125311508Y-88277057D01*
X125284257Y-88229450D01*
X125261005Y-88188916D01*
X125240958Y-88154087D01*
X125223325Y-88123595D01*
X125207312Y-88096069D01*
X125192125Y-88070143D01*
X125176974Y-88044446D01*
X125161064Y-88017611D01*
X125150768Y-88000300D01*
X125134747Y-87973059D01*
X125116961Y-87942319D01*
X125101090Y-87914443D01*
X125100172Y-87912811D01*
X125090256Y-87895253D01*
X125077116Y-87872161D01*
X125060387Y-87842900D01*
X125039705Y-87806834D01*
X125014704Y-87763327D01*
X124985019Y-87711744D01*
X124950287Y-87651448D01*
X124924270Y-87606312D01*
X124911448Y-87584121D01*
X124894750Y-87555294D01*
X124875982Y-87522947D01*
X124856952Y-87490196D01*
X124848978Y-87476489D01*
X124832030Y-87447306D01*
X124816120Y-87419801D01*
X124802538Y-87396207D01*
X124792570Y-87378759D01*
X124788803Y-87372067D01*
X124766291Y-87331903D01*
X124744449Y-87293606D01*
X124724958Y-87260097D01*
X124712622Y-87239423D01*
X124699593Y-87217560D01*
X124684659Y-87191942D01*
X124673083Y-87171689D01*
X124663019Y-87154035D01*
X124648772Y-87129277D01*
X124631865Y-87100052D01*
X124613822Y-87068997D01*
X124603477Y-87051256D01*
X124587485Y-87023779D01*
X124573687Y-86999899D01*
X124563004Y-86981228D01*
X124556362Y-86969379D01*
X124554578Y-86965891D01*
X124551907Y-86960690D01*
X124544597Y-86947600D01*
X124533700Y-86928480D01*
X124520268Y-86905187D01*
X124517293Y-86900057D01*
X124499119Y-86868678D01*
X124478102Y-86832268D01*
X124456995Y-86795601D01*
X124440449Y-86766765D01*
X124425148Y-86740980D01*
X124411942Y-86720515D01*
X124401821Y-86706798D01*
X124395776Y-86701256D01*
X124395017Y-86701315D01*
X124391829Y-86701293D01*
X124392968Y-86698758D01*
X124391369Y-86692283D01*
X124384769Y-86677577D01*
X124373929Y-86656116D01*
X124359606Y-86629377D01*
X124342559Y-86598840D01*
X124333817Y-86583586D01*
X124312234Y-86546221D01*
X124289523Y-86506883D01*
X124267347Y-86468454D01*
X124247368Y-86433814D01*
X124231249Y-86405843D01*
X124230214Y-86404045D01*
X124211840Y-86372196D01*
X124191848Y-86337634D01*
X124172650Y-86304528D01*
X124156660Y-86277045D01*
X124140095Y-86248448D01*
X124122432Y-86217631D01*
X124106306Y-86189207D01*
X124098590Y-86175445D01*
X124086073Y-86153132D01*
X124071123Y-86126731D01*
X124055196Y-86098789D01*
X124039750Y-86071850D01*
X124026243Y-86048461D01*
X124016130Y-86031166D01*
X124012965Y-86025867D01*
X124008211Y-86017749D01*
X123999216Y-86002164D01*
X123987327Y-85981454D01*
X123975603Y-85960956D01*
X123958148Y-85930679D01*
X123938321Y-85896737D01*
X123919290Y-85864540D01*
X123911126Y-85850889D01*
X123895788Y-85825089D01*
X123880637Y-85799097D01*
X123867846Y-85776668D01*
X123862069Y-85766223D01*
X123850796Y-85745977D01*
X123836462Y-85721023D01*
X123821899Y-85696280D01*
X123819842Y-85692845D01*
X123805123Y-85667973D01*
X123789844Y-85641584D01*
X123777039Y-85618927D01*
X123775778Y-85616645D01*
X123765515Y-85598324D01*
X123751393Y-85573539D01*
X123735280Y-85545553D01*
X123719185Y-85517867D01*
X123704937Y-85493369D01*
X123686554Y-85461572D01*
X123665480Y-85424988D01*
X123643163Y-85386128D01*
X123621049Y-85347506D01*
X123613575Y-85334423D01*
X123589804Y-85292911D01*
X123563368Y-85246964D01*
X123536264Y-85200036D01*
X123510485Y-85155580D01*
X123488027Y-85117050D01*
X123485504Y-85112739D01*
X123466635Y-85080464D01*
X123448942Y-85050104D01*
X123433503Y-85023512D01*
X123421392Y-85002542D01*
X123413685Y-84989048D01*
X123412693Y-84987277D01*
X123403231Y-84970464D01*
X123389219Y-84945835D01*
X123371775Y-84915336D01*
X123352018Y-84880914D01*
X123331067Y-84844515D01*
X123310040Y-84808084D01*
X123290056Y-84773569D01*
X123273202Y-84744578D01*
X123257595Y-84717722D01*
X123242675Y-84691911D01*
X123230086Y-84669995D01*
X123221470Y-84654824D01*
X123221158Y-84654267D01*
X123210466Y-84635356D01*
X123197327Y-84612393D01*
X123187282Y-84595000D01*
X123176165Y-84575835D01*
X123160304Y-84548467D01*
X123140609Y-84514466D01*
X123117989Y-84475401D01*
X123093351Y-84432842D01*
X123067604Y-84388360D01*
X123041658Y-84343523D01*
X123016420Y-84299901D01*
X122992800Y-84259064D01*
X122971706Y-84222581D01*
X122971639Y-84222467D01*
X122942520Y-84172730D01*
X122917480Y-84131529D01*
X122895460Y-84097349D01*
X122875401Y-84068674D01*
X122856245Y-84043987D01*
X122836933Y-84021773D01*
X122817136Y-84001240D01*
X122789282Y-83975776D01*
X122757197Y-83949975D01*
X122723766Y-83925899D01*
X122691875Y-83905608D01*
X122664411Y-83891163D01*
X122660867Y-83889634D01*
X122608722Y-83872675D01*
X122551711Y-83862326D01*
X122493419Y-83858870D01*
X122437429Y-83862590D01*
G36*
X122500532Y-85306385D02*
X122485143Y-85308682D01*
X122461676Y-85312498D01*
X122433155Y-85317327D01*
X122402609Y-85322666D01*
X122398400Y-85323415D01*
X122348602Y-85332210D01*
X122299945Y-85340637D01*
X122253791Y-85348474D01*
X122211505Y-85355497D01*
X122174449Y-85361484D01*
X122143986Y-85366212D01*
X122121481Y-85369460D01*
X122108296Y-85371004D01*
X122106300Y-85371101D01*
X122096384Y-85373044D01*
X122093600Y-85376243D01*
X122095907Y-85382663D01*
X122102356Y-85397708D01*
X122112244Y-85419811D01*
X122124864Y-85447404D01*
X122139513Y-85478918D01*
X122144970Y-85490543D01*
X122171326Y-85546595D01*
X122193477Y-85593805D01*
X122212057Y-85633530D01*
X122227702Y-85667128D01*
X122241044Y-85695955D01*
X122248700Y-85712600D01*
X122272129Y-85763344D01*
X122297515Y-85817776D01*
X122321850Y-85869449D01*
X122324268Y-85874550D01*
X122337443Y-85902439D01*
X122351804Y-85933018D01*
X122364541Y-85960300D01*
X122366156Y-85963778D01*
X122377399Y-85987867D01*
X122391293Y-86017430D01*
X122405620Y-86047755D01*
X122412645Y-86062556D01*
X122424711Y-86088065D01*
X122439898Y-86120377D01*
X122456592Y-86156047D01*
X122473178Y-86191631D01*
X122480080Y-86206489D01*
X122507521Y-86265587D01*
X122533517Y-86321480D01*
X122557581Y-86373123D01*
X122579224Y-86419473D01*
X122597958Y-86459483D01*
X122613295Y-86492112D01*
X122624747Y-86516313D01*
X122630453Y-86528223D01*
X122638087Y-86544789D01*
X122642873Y-86556752D01*
X122643796Y-86561121D01*
X122637891Y-86560019D01*
X122622392Y-86555191D01*
X122598237Y-86546975D01*
X122566366Y-86535706D01*
X122527717Y-86521722D01*
X122483228Y-86505360D01*
X122433839Y-86486956D01*
X122380487Y-86466847D01*
X122370178Y-86462937D01*
X122342988Y-86452740D01*
X122308417Y-86439967D01*
X122269722Y-86425809D01*
X122230162Y-86411460D01*
X122200844Y-86400919D01*
X122156512Y-86385043D01*
X122119876Y-86371898D01*
X122088004Y-86360421D01*
X122057959Y-86349551D01*
X122026806Y-86338225D01*
X121991610Y-86325383D01*
X121952824Y-86311201D01*
X121926791Y-86301711D01*
X121904921Y-86293804D01*
X121889210Y-86288196D01*
X121881657Y-86285605D01*
X121881288Y-86285512D01*
X121882730Y-86290294D01*
X121887710Y-86303050D01*
X121895283Y-86321393D01*
X121898612Y-86329256D01*
X121936379Y-86417976D01*
X121970029Y-86497209D01*
X121999933Y-86567827D01*
X122026457Y-86630701D01*
X122049973Y-86686704D01*
X122056874Y-86703200D01*
X122074436Y-86745159D01*
X122094498Y-86792986D01*
X122115156Y-86842155D01*
X122134511Y-86888139D01*
X122144592Y-86912045D01*
X122159156Y-86946583D01*
X122173209Y-86979964D01*
X122185782Y-87009887D01*
X122195910Y-87034051D01*
X122202625Y-87050154D01*
X122202699Y-87050334D01*
X122211733Y-87071863D01*
X122223164Y-87098725D01*
X122234858Y-87125915D01*
X122237574Y-87132178D01*
X122247649Y-87155625D01*
X122260509Y-87185923D01*
X122274639Y-87219486D01*
X122288524Y-87252727D01*
X122291204Y-87259178D01*
X122313877Y-87313748D01*
X122335101Y-87364663D01*
X122355957Y-87414494D01*
X122377525Y-87465815D01*
X122400884Y-87521197D01*
X122427114Y-87583213D01*
X122440303Y-87614350D01*
X122455944Y-87651409D01*
X122469952Y-87684874D01*
X122481771Y-87713400D01*
X122490848Y-87735640D01*
X122496628Y-87750248D01*
X122498559Y-87755877D01*
X122498547Y-87755898D01*
X122493087Y-87758017D01*
X122478603Y-87763448D01*
X122456668Y-87771608D01*
X122428852Y-87781913D01*
X122396727Y-87793777D01*
X122385700Y-87797842D01*
X122352583Y-87810250D01*
X122323379Y-87821582D01*
X122299640Y-87831204D01*
X122282919Y-87838480D01*
X122274767Y-87842777D01*
X122274222Y-87843423D01*
X122275096Y-87845272D01*
X122278034Y-87849140D01*
X122283512Y-87855527D01*
X122292006Y-87864935D01*
X122303990Y-87877862D01*
X122319940Y-87894809D01*
X122340332Y-87916277D01*
X122365640Y-87942765D01*
X122396342Y-87974774D01*
X122432911Y-88012804D01*
X122475823Y-88057355D01*
X122525554Y-88108928D01*
X122582580Y-88168022D01*
X122593391Y-88179223D01*
X122628627Y-88215731D01*
X122664248Y-88252650D01*
X122698760Y-88288431D01*
X122730669Y-88321523D01*
X122758480Y-88350378D01*
X122780700Y-88373446D01*
X122789340Y-88382423D01*
X122815174Y-88408640D01*
X122834013Y-88426294D01*
X122846036Y-88435539D01*
X122851422Y-88436528D01*
X122851648Y-88436045D01*
X122853071Y-88427381D01*
X122855221Y-88409146D01*
X122857942Y-88383025D01*
X122861081Y-88350702D01*
X122864482Y-88313861D01*
X122867992Y-88274185D01*
X122871455Y-88233359D01*
X122874717Y-88193066D01*
X122877624Y-88154992D01*
X122878324Y-88145356D01*
X122880618Y-88114837D01*
X122883670Y-88076286D01*
X122887217Y-88032914D01*
X122890997Y-87987933D01*
X122894746Y-87944552D01*
X122895206Y-87939334D01*
X122901468Y-87868506D01*
X122906819Y-87808114D01*
X122911304Y-87757346D01*
X122914969Y-87715390D01*
X122917860Y-87681433D01*
X122920022Y-87654663D01*
X122921502Y-87634269D01*
X122922346Y-87619437D01*
X122922599Y-87609357D01*
X122922308Y-87603215D01*
X122921517Y-87600199D01*
X122920274Y-87599498D01*
X122918624Y-87600298D01*
X122916613Y-87601789D01*
X122914287Y-87603158D01*
X122914202Y-87603192D01*
X122903577Y-87607232D01*
X122886171Y-87613590D01*
X122866889Y-87620486D01*
X122844670Y-87628488D01*
X122816680Y-87638761D01*
X122787693Y-87649548D01*
X122776578Y-87653731D01*
X122753416Y-87662266D01*
X122733972Y-87669032D01*
X122720803Y-87673160D01*
X122716790Y-87674017D01*
X122712626Y-87668981D01*
X122706445Y-87655412D01*
X122699237Y-87635662D01*
X122694833Y-87621834D01*
X122689137Y-87603106D01*
X122682793Y-87582475D01*
X122675458Y-87558853D01*
X122666788Y-87531149D01*
X122656441Y-87498273D01*
X122644074Y-87459138D01*
X122629344Y-87412652D01*
X122611907Y-87357726D01*
X122591421Y-87293271D01*
X122588657Y-87284578D01*
X122573626Y-87237199D01*
X122556672Y-87183567D01*
X122539100Y-87127824D01*
X122522216Y-87074114D01*
X122507325Y-87026579D01*
X122505929Y-87022112D01*
X122493683Y-86982980D01*
X122481730Y-86944926D01*
X122470752Y-86910107D01*
X122461427Y-86880678D01*
X122454438Y-86858795D01*
X122452034Y-86851367D01*
X122445829Y-86831968D01*
X122441449Y-86817549D01*
X122439677Y-86810704D01*
X122439710Y-86810471D01*
X122445282Y-86811575D01*
X122460226Y-86814640D01*
X122482865Y-86819317D01*
X122511520Y-86825262D01*
X122544514Y-86832126D01*
X122550800Y-86833435D01*
X122624163Y-86848719D01*
X122687108Y-86861822D01*
X122740268Y-86872874D01*
X122784274Y-86882007D01*
X122819759Y-86889350D01*
X122847354Y-86895035D01*
X122867692Y-86899193D01*
X122881404Y-86901954D01*
X122889123Y-86903449D01*
X122889520Y-86903522D01*
X122899399Y-86905493D01*
X122918291Y-86909423D01*
X122944175Y-86914885D01*
X122975029Y-86921453D01*
X123007902Y-86928500D01*
X123040628Y-86935392D01*
X123069398Y-86941171D01*
X123092463Y-86945509D01*
X123108074Y-86948076D01*
X123114481Y-86948546D01*
X123114521Y-86948517D01*
X123113601Y-86942628D01*
X123109409Y-86928155D01*
X123102576Y-86907107D01*
X123095514Y-86886645D01*
X122878178Y-86886645D01*
X122875356Y-86889467D01*
X122872533Y-86886645D01*
X122875356Y-86883823D01*
X122878178Y-86886645D01*
X123095514Y-86886645D01*
X123093735Y-86881493D01*
X123091083Y-86874047D01*
X123082220Y-86849303D01*
X123079425Y-86841489D01*
X122833022Y-86841489D01*
X122830200Y-86844312D01*
X122827378Y-86841489D01*
X122830200Y-86838667D01*
X122833022Y-86841489D01*
X123079425Y-86841489D01*
X123070360Y-86816157D01*
X123063272Y-86796334D01*
X122787867Y-86796334D01*
X122785044Y-86799156D01*
X122782222Y-86796334D01*
X122785044Y-86793512D01*
X122787867Y-86796334D01*
X123063272Y-86796334D01*
X123056301Y-86776841D01*
X123047129Y-86751178D01*
X122742711Y-86751178D01*
X122739889Y-86754000D01*
X122737067Y-86751178D01*
X122739889Y-86748356D01*
X122742711Y-86751178D01*
X123047129Y-86751178D01*
X123040840Y-86733585D01*
X123030994Y-86706023D01*
X122697556Y-86706023D01*
X122694733Y-86708845D01*
X122691911Y-86706023D01*
X122694733Y-86703200D01*
X122697556Y-86706023D01*
X123030994Y-86706023D01*
X123024776Y-86688621D01*
X123014864Y-86660867D01*
X122652400Y-86660867D01*
X122649578Y-86663689D01*
X122646756Y-86660867D01*
X122649578Y-86658045D01*
X122652400Y-86660867D01*
X123014864Y-86660867D01*
X123008904Y-86644180D01*
X123008816Y-86643934D01*
X122998726Y-86615712D01*
X122607244Y-86615712D01*
X122604422Y-86618534D01*
X122601600Y-86615712D01*
X122604422Y-86612889D01*
X122607244Y-86615712D01*
X122998726Y-86615712D01*
X122992749Y-86598997D01*
X122976290Y-86553073D01*
X122960279Y-86508501D01*
X122945556Y-86467617D01*
X122932963Y-86432759D01*
X122923559Y-86406867D01*
X122909992Y-86369514D01*
X122894614Y-86326920D01*
X122879354Y-86284439D01*
X122866636Y-86248823D01*
X122856467Y-86220330D01*
X122847430Y-86195215D01*
X122840294Y-86175598D01*
X122835828Y-86163601D01*
X122834929Y-86161334D01*
X122830818Y-86150400D01*
X122829867Y-86147223D01*
X122827605Y-86140529D01*
X122822034Y-86124765D01*
X122813705Y-86101470D01*
X122803170Y-86072182D01*
X122790979Y-86038440D01*
X122782331Y-86014578D01*
X122763322Y-85962137D01*
X122744073Y-85908912D01*
X122724019Y-85853335D01*
X122702595Y-85793837D01*
X122679237Y-85728850D01*
X122653380Y-85656805D01*
X122624460Y-85576133D01*
X122615718Y-85551734D01*
X122601613Y-85512370D01*
X122587018Y-85471656D01*
X122572990Y-85432539D01*
X122560587Y-85397966D01*
X122550866Y-85370886D01*
X122550364Y-85369486D01*
X122526463Y-85302950D01*
X122500532Y-85306385D01*
X122500532Y-85306385D01*
G37*
X122500532Y-85306385D02*
X122485143Y-85308682D01*
X122461676Y-85312498D01*
X122433155Y-85317327D01*
X122402609Y-85322666D01*
X122398400Y-85323415D01*
X122348602Y-85332210D01*
X122299945Y-85340637D01*
X122253791Y-85348474D01*
X122211505Y-85355497D01*
X122174449Y-85361484D01*
X122143986Y-85366212D01*
X122121481Y-85369460D01*
X122108296Y-85371004D01*
X122106300Y-85371101D01*
X122096384Y-85373044D01*
X122093600Y-85376243D01*
X122095907Y-85382663D01*
X122102356Y-85397708D01*
X122112244Y-85419811D01*
X122124864Y-85447404D01*
X122139513Y-85478918D01*
X122144970Y-85490543D01*
X122171326Y-85546595D01*
X122193477Y-85593805D01*
X122212057Y-85633530D01*
X122227702Y-85667128D01*
X122241044Y-85695955D01*
X122248700Y-85712600D01*
X122272129Y-85763344D01*
X122297515Y-85817776D01*
X122321850Y-85869449D01*
X122324268Y-85874550D01*
X122337443Y-85902439D01*
X122351804Y-85933018D01*
X122364541Y-85960300D01*
X122366156Y-85963778D01*
X122377399Y-85987867D01*
X122391293Y-86017430D01*
X122405620Y-86047755D01*
X122412645Y-86062556D01*
X122424711Y-86088065D01*
X122439898Y-86120377D01*
X122456592Y-86156047D01*
X122473178Y-86191631D01*
X122480080Y-86206489D01*
X122507521Y-86265587D01*
X122533517Y-86321480D01*
X122557581Y-86373123D01*
X122579224Y-86419473D01*
X122597958Y-86459483D01*
X122613295Y-86492112D01*
X122624747Y-86516313D01*
X122630453Y-86528223D01*
X122638087Y-86544789D01*
X122642873Y-86556752D01*
X122643796Y-86561121D01*
X122637891Y-86560019D01*
X122622392Y-86555191D01*
X122598237Y-86546975D01*
X122566366Y-86535706D01*
X122527717Y-86521722D01*
X122483228Y-86505360D01*
X122433839Y-86486956D01*
X122380487Y-86466847D01*
X122370178Y-86462937D01*
X122342988Y-86452740D01*
X122308417Y-86439967D01*
X122269722Y-86425809D01*
X122230162Y-86411460D01*
X122200844Y-86400919D01*
X122156512Y-86385043D01*
X122119876Y-86371898D01*
X122088004Y-86360421D01*
X122057959Y-86349551D01*
X122026806Y-86338225D01*
X121991610Y-86325383D01*
X121952824Y-86311201D01*
X121926791Y-86301711D01*
X121904921Y-86293804D01*
X121889210Y-86288196D01*
X121881657Y-86285605D01*
X121881288Y-86285512D01*
X121882730Y-86290294D01*
X121887710Y-86303050D01*
X121895283Y-86321393D01*
X121898612Y-86329256D01*
X121936379Y-86417976D01*
X121970029Y-86497209D01*
X121999933Y-86567827D01*
X122026457Y-86630701D01*
X122049973Y-86686704D01*
X122056874Y-86703200D01*
X122074436Y-86745159D01*
X122094498Y-86792986D01*
X122115156Y-86842155D01*
X122134511Y-86888139D01*
X122144592Y-86912045D01*
X122159156Y-86946583D01*
X122173209Y-86979964D01*
X122185782Y-87009887D01*
X122195910Y-87034051D01*
X122202625Y-87050154D01*
X122202699Y-87050334D01*
X122211733Y-87071863D01*
X122223164Y-87098725D01*
X122234858Y-87125915D01*
X122237574Y-87132178D01*
X122247649Y-87155625D01*
X122260509Y-87185923D01*
X122274639Y-87219486D01*
X122288524Y-87252727D01*
X122291204Y-87259178D01*
X122313877Y-87313748D01*
X122335101Y-87364663D01*
X122355957Y-87414494D01*
X122377525Y-87465815D01*
X122400884Y-87521197D01*
X122427114Y-87583213D01*
X122440303Y-87614350D01*
X122455944Y-87651409D01*
X122469952Y-87684874D01*
X122481771Y-87713400D01*
X122490848Y-87735640D01*
X122496628Y-87750248D01*
X122498559Y-87755877D01*
X122498547Y-87755898D01*
X122493087Y-87758017D01*
X122478603Y-87763448D01*
X122456668Y-87771608D01*
X122428852Y-87781913D01*
X122396727Y-87793777D01*
X122385700Y-87797842D01*
X122352583Y-87810250D01*
X122323379Y-87821582D01*
X122299640Y-87831204D01*
X122282919Y-87838480D01*
X122274767Y-87842777D01*
X122274222Y-87843423D01*
X122275096Y-87845272D01*
X122278034Y-87849140D01*
X122283512Y-87855527D01*
X122292006Y-87864935D01*
X122303990Y-87877862D01*
X122319940Y-87894809D01*
X122340332Y-87916277D01*
X122365640Y-87942765D01*
X122396342Y-87974774D01*
X122432911Y-88012804D01*
X122475823Y-88057355D01*
X122525554Y-88108928D01*
X122582580Y-88168022D01*
X122593391Y-88179223D01*
X122628627Y-88215731D01*
X122664248Y-88252650D01*
X122698760Y-88288431D01*
X122730669Y-88321523D01*
X122758480Y-88350378D01*
X122780700Y-88373446D01*
X122789340Y-88382423D01*
X122815174Y-88408640D01*
X122834013Y-88426294D01*
X122846036Y-88435539D01*
X122851422Y-88436528D01*
X122851648Y-88436045D01*
X122853071Y-88427381D01*
X122855221Y-88409146D01*
X122857942Y-88383025D01*
X122861081Y-88350702D01*
X122864482Y-88313861D01*
X122867992Y-88274185D01*
X122871455Y-88233359D01*
X122874717Y-88193066D01*
X122877624Y-88154992D01*
X122878324Y-88145356D01*
X122880618Y-88114837D01*
X122883670Y-88076286D01*
X122887217Y-88032914D01*
X122890997Y-87987933D01*
X122894746Y-87944552D01*
X122895206Y-87939334D01*
X122901468Y-87868506D01*
X122906819Y-87808114D01*
X122911304Y-87757346D01*
X122914969Y-87715390D01*
X122917860Y-87681433D01*
X122920022Y-87654663D01*
X122921502Y-87634269D01*
X122922346Y-87619437D01*
X122922599Y-87609357D01*
X122922308Y-87603215D01*
X122921517Y-87600199D01*
X122920274Y-87599498D01*
X122918624Y-87600298D01*
X122916613Y-87601789D01*
X122914287Y-87603158D01*
X122914202Y-87603192D01*
X122903577Y-87607232D01*
X122886171Y-87613590D01*
X122866889Y-87620486D01*
X122844670Y-87628488D01*
X122816680Y-87638761D01*
X122787693Y-87649548D01*
X122776578Y-87653731D01*
X122753416Y-87662266D01*
X122733972Y-87669032D01*
X122720803Y-87673160D01*
X122716790Y-87674017D01*
X122712626Y-87668981D01*
X122706445Y-87655412D01*
X122699237Y-87635662D01*
X122694833Y-87621834D01*
X122689137Y-87603106D01*
X122682793Y-87582475D01*
X122675458Y-87558853D01*
X122666788Y-87531149D01*
X122656441Y-87498273D01*
X122644074Y-87459138D01*
X122629344Y-87412652D01*
X122611907Y-87357726D01*
X122591421Y-87293271D01*
X122588657Y-87284578D01*
X122573626Y-87237199D01*
X122556672Y-87183567D01*
X122539100Y-87127824D01*
X122522216Y-87074114D01*
X122507325Y-87026579D01*
X122505929Y-87022112D01*
X122493683Y-86982980D01*
X122481730Y-86944926D01*
X122470752Y-86910107D01*
X122461427Y-86880678D01*
X122454438Y-86858795D01*
X122452034Y-86851367D01*
X122445829Y-86831968D01*
X122441449Y-86817549D01*
X122439677Y-86810704D01*
X122439710Y-86810471D01*
X122445282Y-86811575D01*
X122460226Y-86814640D01*
X122482865Y-86819317D01*
X122511520Y-86825262D01*
X122544514Y-86832126D01*
X122550800Y-86833435D01*
X122624163Y-86848719D01*
X122687108Y-86861822D01*
X122740268Y-86872874D01*
X122784274Y-86882007D01*
X122819759Y-86889350D01*
X122847354Y-86895035D01*
X122867692Y-86899193D01*
X122881404Y-86901954D01*
X122889123Y-86903449D01*
X122889520Y-86903522D01*
X122899399Y-86905493D01*
X122918291Y-86909423D01*
X122944175Y-86914885D01*
X122975029Y-86921453D01*
X123007902Y-86928500D01*
X123040628Y-86935392D01*
X123069398Y-86941171D01*
X123092463Y-86945509D01*
X123108074Y-86948076D01*
X123114481Y-86948546D01*
X123114521Y-86948517D01*
X123113601Y-86942628D01*
X123109409Y-86928155D01*
X123102576Y-86907107D01*
X123095514Y-86886645D01*
X122878178Y-86886645D01*
X122875356Y-86889467D01*
X122872533Y-86886645D01*
X122875356Y-86883823D01*
X122878178Y-86886645D01*
X123095514Y-86886645D01*
X123093735Y-86881493D01*
X123091083Y-86874047D01*
X123082220Y-86849303D01*
X123079425Y-86841489D01*
X122833022Y-86841489D01*
X122830200Y-86844312D01*
X122827378Y-86841489D01*
X122830200Y-86838667D01*
X122833022Y-86841489D01*
X123079425Y-86841489D01*
X123070360Y-86816157D01*
X123063272Y-86796334D01*
X122787867Y-86796334D01*
X122785044Y-86799156D01*
X122782222Y-86796334D01*
X122785044Y-86793512D01*
X122787867Y-86796334D01*
X123063272Y-86796334D01*
X123056301Y-86776841D01*
X123047129Y-86751178D01*
X122742711Y-86751178D01*
X122739889Y-86754000D01*
X122737067Y-86751178D01*
X122739889Y-86748356D01*
X122742711Y-86751178D01*
X123047129Y-86751178D01*
X123040840Y-86733585D01*
X123030994Y-86706023D01*
X122697556Y-86706023D01*
X122694733Y-86708845D01*
X122691911Y-86706023D01*
X122694733Y-86703200D01*
X122697556Y-86706023D01*
X123030994Y-86706023D01*
X123024776Y-86688621D01*
X123014864Y-86660867D01*
X122652400Y-86660867D01*
X122649578Y-86663689D01*
X122646756Y-86660867D01*
X122649578Y-86658045D01*
X122652400Y-86660867D01*
X123014864Y-86660867D01*
X123008904Y-86644180D01*
X123008816Y-86643934D01*
X122998726Y-86615712D01*
X122607244Y-86615712D01*
X122604422Y-86618534D01*
X122601600Y-86615712D01*
X122604422Y-86612889D01*
X122607244Y-86615712D01*
X122998726Y-86615712D01*
X122992749Y-86598997D01*
X122976290Y-86553073D01*
X122960279Y-86508501D01*
X122945556Y-86467617D01*
X122932963Y-86432759D01*
X122923559Y-86406867D01*
X122909992Y-86369514D01*
X122894614Y-86326920D01*
X122879354Y-86284439D01*
X122866636Y-86248823D01*
X122856467Y-86220330D01*
X122847430Y-86195215D01*
X122840294Y-86175598D01*
X122835828Y-86163601D01*
X122834929Y-86161334D01*
X122830818Y-86150400D01*
X122829867Y-86147223D01*
X122827605Y-86140529D01*
X122822034Y-86124765D01*
X122813705Y-86101470D01*
X122803170Y-86072182D01*
X122790979Y-86038440D01*
X122782331Y-86014578D01*
X122763322Y-85962137D01*
X122744073Y-85908912D01*
X122724019Y-85853335D01*
X122702595Y-85793837D01*
X122679237Y-85728850D01*
X122653380Y-85656805D01*
X122624460Y-85576133D01*
X122615718Y-85551734D01*
X122601613Y-85512370D01*
X122587018Y-85471656D01*
X122572990Y-85432539D01*
X122560587Y-85397966D01*
X122550866Y-85370886D01*
X122550364Y-85369486D01*
X122526463Y-85302950D01*
X122500532Y-85306385D01*
D12*
X183600000Y-74675000D02*
X181600000Y-74675000D01*
X181600000Y-76825000D02*
X183600000Y-76825000D01*
X183500000Y-86175000D02*
X181500000Y-86175000D01*
X181500000Y-88325000D02*
X183500000Y-88325000D01*
X183166666Y-107702381D02*
X183500000Y-107226190D01*
X183738095Y-107702381D02*
X183738095Y-106702381D01*
X183357142Y-106702381D01*
X183261904Y-106750000D01*
X183214285Y-106797619D01*
X183166666Y-106892857D01*
X183166666Y-107035714D01*
X183214285Y-107130952D01*
X183261904Y-107178571D01*
X183357142Y-107226190D01*
X183738095Y-107226190D01*
X182309523Y-106702381D02*
X182500000Y-106702381D01*
X182595238Y-106750000D01*
X182642857Y-106797619D01*
X182738095Y-106940476D01*
X182785714Y-107130952D01*
X182785714Y-107511905D01*
X182738095Y-107607143D01*
X182690476Y-107654762D01*
X182595238Y-107702381D01*
X182404761Y-107702381D01*
X182309523Y-107654762D01*
X182261904Y-107607143D01*
X182214285Y-107511905D01*
X182214285Y-107273810D01*
X182261904Y-107178571D01*
X182309523Y-107130952D01*
X182404761Y-107083333D01*
X182595238Y-107083333D01*
X182690476Y-107130952D01*
X182738095Y-107178571D01*
X182785714Y-107273810D01*
X182766666Y-78502381D02*
X183100000Y-78026190D01*
X183338095Y-78502381D02*
X183338095Y-77502381D01*
X182957142Y-77502381D01*
X182861904Y-77550000D01*
X182814285Y-77597619D01*
X182766666Y-77692857D01*
X182766666Y-77835714D01*
X182814285Y-77930952D01*
X182861904Y-77978571D01*
X182957142Y-78026190D01*
X183338095Y-78026190D01*
X181909523Y-77835714D02*
X181909523Y-78502381D01*
X182147619Y-77454762D02*
X182385714Y-78169048D01*
X181766666Y-78169048D01*
X182666666Y-85952381D02*
X183000000Y-85476190D01*
X183238095Y-85952381D02*
X183238095Y-84952381D01*
X182857142Y-84952381D01*
X182761904Y-85000000D01*
X182714285Y-85047619D01*
X182666666Y-85142857D01*
X182666666Y-85285714D01*
X182714285Y-85380952D01*
X182761904Y-85428571D01*
X182857142Y-85476190D01*
X183238095Y-85476190D01*
X181761904Y-84952381D02*
X182238095Y-84952381D01*
X182285714Y-85428571D01*
X182238095Y-85380952D01*
X182142857Y-85333333D01*
X181904761Y-85333333D01*
X181809523Y-85380952D01*
X181761904Y-85428571D01*
X181714285Y-85523810D01*
X181714285Y-85761905D01*
X181761904Y-85857143D01*
X181809523Y-85904762D01*
X181904761Y-85952381D01*
X182142857Y-85952381D01*
X182238095Y-85904762D01*
X182285714Y-85857143D01*
M02*
