G04 #@! TF.FileFunction,Copper,L1,Top,Signal*
%FSLAX46Y46*%
G04 Gerber Fmt 4.6, Leading zero omitted, Abs format (unit mm)*
G04 Created by KiCad (PCBNEW 4.0.1-stable) date 11.9.2016. 21:40:19*
%MOMM*%
G01*
G04 APERTURE LIST*
%ADD10C,0.100000*%
%ADD11C,2.400000*%
%ADD12R,4.100000X2.000000*%
%ADD13R,2.400300X3.500120*%
%ADD14R,2.400000X1.400000*%
%ADD15R,0.900000X1.700000*%
%ADD16C,1.400000*%
%ADD17O,6.000000X3.000000*%
%ADD18O,3.000000X6.000000*%
%ADD19R,7.000000X3.000000*%
%ADD20R,3.000000X7.000000*%
%ADD21C,1.000000*%
%ADD22C,0.600000*%
%ADD23C,1.500000*%
%ADD24C,0.400000*%
%ADD25C,0.200000*%
%ADD26C,1.000000*%
%ADD27C,0.300000*%
G04 APERTURE END LIST*
D10*
D11*
X119250000Y-87250000D03*
X134250000Y-87250000D03*
D12*
X122900000Y-99500000D03*
X131600000Y-99500000D03*
D13*
X141750000Y-79251200D03*
X141750000Y-72748800D03*
D14*
X132000000Y-78500000D03*
X131900000Y-73500000D03*
X121000000Y-78500000D03*
X121000000Y-73500000D03*
D15*
X111300000Y-76000000D03*
X114200000Y-76000000D03*
D16*
X141700000Y-87000000D03*
X147500000Y-87000000D03*
D17*
X184500000Y-98000000D03*
X103500000Y-76000000D03*
X103500000Y-98000000D03*
X184500000Y-76000000D03*
D18*
X133000000Y-58000000D03*
X155000000Y-58000000D03*
X133000000Y-116000000D03*
X155000000Y-116000000D03*
D19*
X104000000Y-65000000D03*
X104000000Y-109000000D03*
X184000000Y-65000000D03*
X184000000Y-109000000D03*
D20*
X111000000Y-58000000D03*
X177000000Y-58000000D03*
X111000000Y-116000000D03*
X177000000Y-116000000D03*
D21*
X102000000Y-118000000D03*
X186000000Y-118000000D03*
X186000000Y-56000000D03*
X102000000Y-56000000D03*
X179000000Y-98000000D03*
X144000000Y-98000000D03*
D22*
X119000000Y-56000000D03*
X150000000Y-87000000D03*
D21*
X155000000Y-65000000D03*
X122000000Y-65000000D03*
D23*
X121000000Y-78500000D02*
X121000000Y-85500000D01*
X121000000Y-85500000D02*
X119250000Y-87250000D01*
X122900000Y-99500000D02*
X122900000Y-90900000D01*
X122900000Y-90900000D02*
X119250000Y-87250000D01*
X133000000Y-58000000D02*
X133000000Y-59500000D01*
X133000000Y-59500000D02*
X138500000Y-65000000D01*
X138500000Y-65000000D02*
X147000000Y-65000000D01*
X157000000Y-90000000D02*
X149000000Y-98000000D01*
X147000000Y-65000000D02*
X157000000Y-75000000D01*
X157000000Y-75000000D02*
X157000000Y-90000000D01*
X149000000Y-98000000D02*
X144000000Y-98000000D01*
X179000000Y-98000000D02*
X184500000Y-98000000D01*
X141850000Y-96850000D02*
X142850000Y-96850000D01*
X142850000Y-96850000D02*
X144000000Y-98000000D01*
X134250000Y-96850000D02*
X141850000Y-96850000D01*
X134250000Y-87250000D02*
X134250000Y-96850000D01*
X134250000Y-96850000D02*
X131600000Y-99500000D01*
X129000000Y-106000000D02*
X133000000Y-110000000D01*
X133000000Y-110000000D02*
X133000000Y-116000000D01*
X127600000Y-106000000D02*
X129000000Y-106000000D01*
X103500000Y-98000000D02*
X105000000Y-98000000D01*
X105000000Y-98000000D02*
X110000000Y-103000000D01*
X110000000Y-103000000D02*
X117000000Y-103000000D01*
X117000000Y-103000000D02*
X120000000Y-106000000D01*
X120000000Y-106000000D02*
X127600000Y-106000000D01*
X131600000Y-102000000D02*
X131600000Y-99500000D01*
X127600000Y-106000000D02*
X131600000Y-102000000D01*
D24*
X141750000Y-79251200D02*
X141750000Y-86950000D01*
D25*
X141750000Y-86950000D02*
X141700000Y-87000000D01*
D26*
X129000000Y-62000000D02*
X123000000Y-56000000D01*
X123000000Y-56000000D02*
X119000000Y-56000000D01*
X129000000Y-63000000D02*
X129000000Y-62000000D01*
X129000000Y-77700000D02*
X129000000Y-63000000D01*
X132000000Y-78500000D02*
X129800000Y-78500000D01*
X129800000Y-78500000D02*
X129000000Y-77700000D01*
D27*
X141750000Y-79251200D02*
X141750000Y-79750000D01*
D26*
X132000000Y-78500000D02*
X140998800Y-78500000D01*
X140998800Y-78500000D02*
X141750000Y-79251200D01*
X147500000Y-87000000D02*
X150000000Y-87000000D01*
X141750000Y-72748800D02*
X143950150Y-72748800D01*
X143950150Y-72748800D02*
X147500000Y-76298650D01*
X147500000Y-76298650D02*
X147500000Y-86010051D01*
X147500000Y-86010051D02*
X147500000Y-87000000D01*
D27*
X141750000Y-72748800D02*
X142748800Y-72748800D01*
D26*
X131900000Y-73500000D02*
X140998800Y-73500000D01*
X140998800Y-73500000D02*
X141750000Y-72748800D01*
D23*
X114200000Y-76000000D02*
X116200000Y-76000000D01*
X116200000Y-76000000D02*
X118700000Y-73500000D01*
X118700000Y-73500000D02*
X121000000Y-73500000D01*
X157000000Y-109000000D02*
X155000000Y-111000000D01*
X155000000Y-111000000D02*
X155000000Y-116000000D01*
X162000000Y-109000000D02*
X157000000Y-109000000D01*
X165000000Y-106000000D02*
X162000000Y-109000000D01*
X165000000Y-81000000D02*
X165000000Y-106000000D01*
X169000000Y-77000000D02*
X165000000Y-81000000D01*
X169000000Y-76000000D02*
X169000000Y-77000000D01*
X166000000Y-73000000D02*
X169000000Y-76000000D01*
X169000000Y-76000000D02*
X184500000Y-76000000D01*
X166000000Y-69000000D02*
X166000000Y-73000000D01*
X162000000Y-65000000D02*
X166000000Y-69000000D01*
X155000000Y-65000000D02*
X162000000Y-65000000D01*
X155000000Y-65000000D02*
X155000000Y-58000000D01*
X120000000Y-65000000D02*
X122000000Y-65000000D01*
X109000000Y-76000000D02*
X103500000Y-76000000D01*
X111300000Y-76000000D02*
X109000000Y-76000000D01*
X109000000Y-76000000D02*
X120000000Y-65000000D01*
M02*
