G04 #@! TF.FileFunction,Legend,Bot*
%FSLAX46Y46*%
G04 Gerber Fmt 4.6, Leading zero omitted, Abs format (unit mm)*
G04 Created by KiCad (PCBNEW 4.0.1-stable) date 11.9.2016. 21:40:19*
%MOMM*%
G01*
G04 APERTURE LIST*
%ADD10C,0.100000*%
%ADD11C,0.150000*%
%ADD12C,0.010000*%
G04 APERTURE END LIST*
D10*
D11*
X182700000Y-92500000D02*
X182100000Y-91900000D01*
X182100000Y-91900000D02*
X182100000Y-93000000D01*
X182100000Y-93000000D02*
X182700000Y-92500000D01*
X182700000Y-92500000D02*
X182200000Y-92100000D01*
X182200000Y-92100000D02*
X182200000Y-92800000D01*
X182200000Y-92800000D02*
X182500000Y-92500000D01*
X182500000Y-92500000D02*
X182300000Y-92300000D01*
X182300000Y-92300000D02*
X182300000Y-92600000D01*
X182300000Y-92600000D02*
X182400000Y-92500000D01*
X182400000Y-92500000D02*
X182800000Y-92500000D01*
X183000000Y-91700000D02*
X183000000Y-93200000D01*
X182000000Y-91700000D02*
X182000000Y-93200000D01*
X182000000Y-93200000D02*
X182900000Y-92500000D01*
X182900000Y-92500000D02*
X182000000Y-91700000D01*
X184900000Y-93750000D02*
X184900000Y-93850000D01*
X184900000Y-91200000D02*
X184900000Y-93750000D01*
X180900000Y-93900000D02*
X184100000Y-93900000D01*
X184100000Y-91100000D02*
X180900000Y-91100000D01*
X182700000Y-114500000D02*
X182100000Y-113900000D01*
X182100000Y-113900000D02*
X182100000Y-115000000D01*
X182100000Y-115000000D02*
X182700000Y-114500000D01*
X182700000Y-114500000D02*
X182200000Y-114100000D01*
X182200000Y-114100000D02*
X182200000Y-114800000D01*
X182200000Y-114800000D02*
X182500000Y-114500000D01*
X182500000Y-114500000D02*
X182300000Y-114300000D01*
X182300000Y-114300000D02*
X182300000Y-114600000D01*
X182300000Y-114600000D02*
X182400000Y-114500000D01*
X182400000Y-114500000D02*
X182800000Y-114500000D01*
X183000000Y-113700000D02*
X183000000Y-115200000D01*
X182000000Y-113700000D02*
X182000000Y-115200000D01*
X182000000Y-115200000D02*
X182900000Y-114500000D01*
X182900000Y-114500000D02*
X182000000Y-113700000D01*
X184900000Y-115750000D02*
X184900000Y-115850000D01*
X184900000Y-113200000D02*
X184900000Y-115750000D01*
X180900000Y-115900000D02*
X184100000Y-115900000D01*
X184100000Y-113100000D02*
X180900000Y-113100000D01*
X171700000Y-114500000D02*
X171100000Y-113900000D01*
X171100000Y-113900000D02*
X171100000Y-115000000D01*
X171100000Y-115000000D02*
X171700000Y-114500000D01*
X171700000Y-114500000D02*
X171200000Y-114100000D01*
X171200000Y-114100000D02*
X171200000Y-114800000D01*
X171200000Y-114800000D02*
X171500000Y-114500000D01*
X171500000Y-114500000D02*
X171300000Y-114300000D01*
X171300000Y-114300000D02*
X171300000Y-114600000D01*
X171300000Y-114600000D02*
X171400000Y-114500000D01*
X171400000Y-114500000D02*
X171800000Y-114500000D01*
X172000000Y-113700000D02*
X172000000Y-115200000D01*
X171000000Y-113700000D02*
X171000000Y-115200000D01*
X171000000Y-115200000D02*
X171900000Y-114500000D01*
X171900000Y-114500000D02*
X171000000Y-113700000D01*
X173900000Y-115750000D02*
X173900000Y-115850000D01*
X173900000Y-113200000D02*
X173900000Y-115750000D01*
X169900000Y-115900000D02*
X173100000Y-115900000D01*
X173100000Y-113100000D02*
X169900000Y-113100000D01*
X160700000Y-114500000D02*
X160100000Y-113900000D01*
X160100000Y-113900000D02*
X160100000Y-115000000D01*
X160100000Y-115000000D02*
X160700000Y-114500000D01*
X160700000Y-114500000D02*
X160200000Y-114100000D01*
X160200000Y-114100000D02*
X160200000Y-114800000D01*
X160200000Y-114800000D02*
X160500000Y-114500000D01*
X160500000Y-114500000D02*
X160300000Y-114300000D01*
X160300000Y-114300000D02*
X160300000Y-114600000D01*
X160300000Y-114600000D02*
X160400000Y-114500000D01*
X160400000Y-114500000D02*
X160800000Y-114500000D01*
X161000000Y-113700000D02*
X161000000Y-115200000D01*
X160000000Y-113700000D02*
X160000000Y-115200000D01*
X160000000Y-115200000D02*
X160900000Y-114500000D01*
X160900000Y-114500000D02*
X160000000Y-113700000D01*
X162900000Y-115750000D02*
X162900000Y-115850000D01*
X162900000Y-113200000D02*
X162900000Y-115750000D01*
X158900000Y-115900000D02*
X162100000Y-115900000D01*
X162100000Y-113100000D02*
X158900000Y-113100000D01*
X149700000Y-114500000D02*
X149100000Y-113900000D01*
X149100000Y-113900000D02*
X149100000Y-115000000D01*
X149100000Y-115000000D02*
X149700000Y-114500000D01*
X149700000Y-114500000D02*
X149200000Y-114100000D01*
X149200000Y-114100000D02*
X149200000Y-114800000D01*
X149200000Y-114800000D02*
X149500000Y-114500000D01*
X149500000Y-114500000D02*
X149300000Y-114300000D01*
X149300000Y-114300000D02*
X149300000Y-114600000D01*
X149300000Y-114600000D02*
X149400000Y-114500000D01*
X149400000Y-114500000D02*
X149800000Y-114500000D01*
X150000000Y-113700000D02*
X150000000Y-115200000D01*
X149000000Y-113700000D02*
X149000000Y-115200000D01*
X149000000Y-115200000D02*
X149900000Y-114500000D01*
X149900000Y-114500000D02*
X149000000Y-113700000D01*
X151900000Y-115750000D02*
X151900000Y-115850000D01*
X151900000Y-113200000D02*
X151900000Y-115750000D01*
X147900000Y-115900000D02*
X151100000Y-115900000D01*
X151100000Y-113100000D02*
X147900000Y-113100000D01*
X138700000Y-114500000D02*
X138100000Y-113900000D01*
X138100000Y-113900000D02*
X138100000Y-115000000D01*
X138100000Y-115000000D02*
X138700000Y-114500000D01*
X138700000Y-114500000D02*
X138200000Y-114100000D01*
X138200000Y-114100000D02*
X138200000Y-114800000D01*
X138200000Y-114800000D02*
X138500000Y-114500000D01*
X138500000Y-114500000D02*
X138300000Y-114300000D01*
X138300000Y-114300000D02*
X138300000Y-114600000D01*
X138300000Y-114600000D02*
X138400000Y-114500000D01*
X138400000Y-114500000D02*
X138800000Y-114500000D01*
X139000000Y-113700000D02*
X139000000Y-115200000D01*
X138000000Y-113700000D02*
X138000000Y-115200000D01*
X138000000Y-115200000D02*
X138900000Y-114500000D01*
X138900000Y-114500000D02*
X138000000Y-113700000D01*
X140900000Y-115750000D02*
X140900000Y-115850000D01*
X140900000Y-113200000D02*
X140900000Y-115750000D01*
X136900000Y-115900000D02*
X140100000Y-115900000D01*
X140100000Y-113100000D02*
X136900000Y-113100000D01*
X127700000Y-114500000D02*
X127100000Y-113900000D01*
X127100000Y-113900000D02*
X127100000Y-115000000D01*
X127100000Y-115000000D02*
X127700000Y-114500000D01*
X127700000Y-114500000D02*
X127200000Y-114100000D01*
X127200000Y-114100000D02*
X127200000Y-114800000D01*
X127200000Y-114800000D02*
X127500000Y-114500000D01*
X127500000Y-114500000D02*
X127300000Y-114300000D01*
X127300000Y-114300000D02*
X127300000Y-114600000D01*
X127300000Y-114600000D02*
X127400000Y-114500000D01*
X127400000Y-114500000D02*
X127800000Y-114500000D01*
X128000000Y-113700000D02*
X128000000Y-115200000D01*
X127000000Y-113700000D02*
X127000000Y-115200000D01*
X127000000Y-115200000D02*
X127900000Y-114500000D01*
X127900000Y-114500000D02*
X127000000Y-113700000D01*
X129900000Y-115750000D02*
X129900000Y-115850000D01*
X129900000Y-113200000D02*
X129900000Y-115750000D01*
X125900000Y-115900000D02*
X129100000Y-115900000D01*
X129100000Y-113100000D02*
X125900000Y-113100000D01*
X116700000Y-114500000D02*
X116100000Y-113900000D01*
X116100000Y-113900000D02*
X116100000Y-115000000D01*
X116100000Y-115000000D02*
X116700000Y-114500000D01*
X116700000Y-114500000D02*
X116200000Y-114100000D01*
X116200000Y-114100000D02*
X116200000Y-114800000D01*
X116200000Y-114800000D02*
X116500000Y-114500000D01*
X116500000Y-114500000D02*
X116300000Y-114300000D01*
X116300000Y-114300000D02*
X116300000Y-114600000D01*
X116300000Y-114600000D02*
X116400000Y-114500000D01*
X116400000Y-114500000D02*
X116800000Y-114500000D01*
X117000000Y-113700000D02*
X117000000Y-115200000D01*
X116000000Y-113700000D02*
X116000000Y-115200000D01*
X116000000Y-115200000D02*
X116900000Y-114500000D01*
X116900000Y-114500000D02*
X116000000Y-113700000D01*
X118900000Y-115750000D02*
X118900000Y-115850000D01*
X118900000Y-113200000D02*
X118900000Y-115750000D01*
X114900000Y-115900000D02*
X118100000Y-115900000D01*
X118100000Y-113100000D02*
X114900000Y-113100000D01*
X105700000Y-114500000D02*
X105100000Y-113900000D01*
X105100000Y-113900000D02*
X105100000Y-115000000D01*
X105100000Y-115000000D02*
X105700000Y-114500000D01*
X105700000Y-114500000D02*
X105200000Y-114100000D01*
X105200000Y-114100000D02*
X105200000Y-114800000D01*
X105200000Y-114800000D02*
X105500000Y-114500000D01*
X105500000Y-114500000D02*
X105300000Y-114300000D01*
X105300000Y-114300000D02*
X105300000Y-114600000D01*
X105300000Y-114600000D02*
X105400000Y-114500000D01*
X105400000Y-114500000D02*
X105800000Y-114500000D01*
X106000000Y-113700000D02*
X106000000Y-115200000D01*
X105000000Y-113700000D02*
X105000000Y-115200000D01*
X105000000Y-115200000D02*
X105900000Y-114500000D01*
X105900000Y-114500000D02*
X105000000Y-113700000D01*
X107900000Y-115750000D02*
X107900000Y-115850000D01*
X107900000Y-113200000D02*
X107900000Y-115750000D01*
X103900000Y-115900000D02*
X107100000Y-115900000D01*
X107100000Y-113100000D02*
X103900000Y-113100000D01*
X182700000Y-103500000D02*
X182100000Y-102900000D01*
X182100000Y-102900000D02*
X182100000Y-104000000D01*
X182100000Y-104000000D02*
X182700000Y-103500000D01*
X182700000Y-103500000D02*
X182200000Y-103100000D01*
X182200000Y-103100000D02*
X182200000Y-103800000D01*
X182200000Y-103800000D02*
X182500000Y-103500000D01*
X182500000Y-103500000D02*
X182300000Y-103300000D01*
X182300000Y-103300000D02*
X182300000Y-103600000D01*
X182300000Y-103600000D02*
X182400000Y-103500000D01*
X182400000Y-103500000D02*
X182800000Y-103500000D01*
X183000000Y-102700000D02*
X183000000Y-104200000D01*
X182000000Y-102700000D02*
X182000000Y-104200000D01*
X182000000Y-104200000D02*
X182900000Y-103500000D01*
X182900000Y-103500000D02*
X182000000Y-102700000D01*
X184900000Y-104750000D02*
X184900000Y-104850000D01*
X184900000Y-102200000D02*
X184900000Y-104750000D01*
X180900000Y-104900000D02*
X184100000Y-104900000D01*
X184100000Y-102100000D02*
X180900000Y-102100000D01*
X171700000Y-103500000D02*
X171100000Y-102900000D01*
X171100000Y-102900000D02*
X171100000Y-104000000D01*
X171100000Y-104000000D02*
X171700000Y-103500000D01*
X171700000Y-103500000D02*
X171200000Y-103100000D01*
X171200000Y-103100000D02*
X171200000Y-103800000D01*
X171200000Y-103800000D02*
X171500000Y-103500000D01*
X171500000Y-103500000D02*
X171300000Y-103300000D01*
X171300000Y-103300000D02*
X171300000Y-103600000D01*
X171300000Y-103600000D02*
X171400000Y-103500000D01*
X171400000Y-103500000D02*
X171800000Y-103500000D01*
X172000000Y-102700000D02*
X172000000Y-104200000D01*
X171000000Y-102700000D02*
X171000000Y-104200000D01*
X171000000Y-104200000D02*
X171900000Y-103500000D01*
X171900000Y-103500000D02*
X171000000Y-102700000D01*
X173900000Y-104750000D02*
X173900000Y-104850000D01*
X173900000Y-102200000D02*
X173900000Y-104750000D01*
X169900000Y-104900000D02*
X173100000Y-104900000D01*
X173100000Y-102100000D02*
X169900000Y-102100000D01*
X160700000Y-103500000D02*
X160100000Y-102900000D01*
X160100000Y-102900000D02*
X160100000Y-104000000D01*
X160100000Y-104000000D02*
X160700000Y-103500000D01*
X160700000Y-103500000D02*
X160200000Y-103100000D01*
X160200000Y-103100000D02*
X160200000Y-103800000D01*
X160200000Y-103800000D02*
X160500000Y-103500000D01*
X160500000Y-103500000D02*
X160300000Y-103300000D01*
X160300000Y-103300000D02*
X160300000Y-103600000D01*
X160300000Y-103600000D02*
X160400000Y-103500000D01*
X160400000Y-103500000D02*
X160800000Y-103500000D01*
X161000000Y-102700000D02*
X161000000Y-104200000D01*
X160000000Y-102700000D02*
X160000000Y-104200000D01*
X160000000Y-104200000D02*
X160900000Y-103500000D01*
X160900000Y-103500000D02*
X160000000Y-102700000D01*
X162900000Y-104750000D02*
X162900000Y-104850000D01*
X162900000Y-102200000D02*
X162900000Y-104750000D01*
X158900000Y-104900000D02*
X162100000Y-104900000D01*
X162100000Y-102100000D02*
X158900000Y-102100000D01*
X149700000Y-103500000D02*
X149100000Y-102900000D01*
X149100000Y-102900000D02*
X149100000Y-104000000D01*
X149100000Y-104000000D02*
X149700000Y-103500000D01*
X149700000Y-103500000D02*
X149200000Y-103100000D01*
X149200000Y-103100000D02*
X149200000Y-103800000D01*
X149200000Y-103800000D02*
X149500000Y-103500000D01*
X149500000Y-103500000D02*
X149300000Y-103300000D01*
X149300000Y-103300000D02*
X149300000Y-103600000D01*
X149300000Y-103600000D02*
X149400000Y-103500000D01*
X149400000Y-103500000D02*
X149800000Y-103500000D01*
X150000000Y-102700000D02*
X150000000Y-104200000D01*
X149000000Y-102700000D02*
X149000000Y-104200000D01*
X149000000Y-104200000D02*
X149900000Y-103500000D01*
X149900000Y-103500000D02*
X149000000Y-102700000D01*
X151900000Y-104750000D02*
X151900000Y-104850000D01*
X151900000Y-102200000D02*
X151900000Y-104750000D01*
X147900000Y-104900000D02*
X151100000Y-104900000D01*
X151100000Y-102100000D02*
X147900000Y-102100000D01*
X138700000Y-103500000D02*
X138100000Y-102900000D01*
X138100000Y-102900000D02*
X138100000Y-104000000D01*
X138100000Y-104000000D02*
X138700000Y-103500000D01*
X138700000Y-103500000D02*
X138200000Y-103100000D01*
X138200000Y-103100000D02*
X138200000Y-103800000D01*
X138200000Y-103800000D02*
X138500000Y-103500000D01*
X138500000Y-103500000D02*
X138300000Y-103300000D01*
X138300000Y-103300000D02*
X138300000Y-103600000D01*
X138300000Y-103600000D02*
X138400000Y-103500000D01*
X138400000Y-103500000D02*
X138800000Y-103500000D01*
X139000000Y-102700000D02*
X139000000Y-104200000D01*
X138000000Y-102700000D02*
X138000000Y-104200000D01*
X138000000Y-104200000D02*
X138900000Y-103500000D01*
X138900000Y-103500000D02*
X138000000Y-102700000D01*
X140900000Y-104750000D02*
X140900000Y-104850000D01*
X140900000Y-102200000D02*
X140900000Y-104750000D01*
X136900000Y-104900000D02*
X140100000Y-104900000D01*
X140100000Y-102100000D02*
X136900000Y-102100000D01*
X127700000Y-103500000D02*
X127100000Y-102900000D01*
X127100000Y-102900000D02*
X127100000Y-104000000D01*
X127100000Y-104000000D02*
X127700000Y-103500000D01*
X127700000Y-103500000D02*
X127200000Y-103100000D01*
X127200000Y-103100000D02*
X127200000Y-103800000D01*
X127200000Y-103800000D02*
X127500000Y-103500000D01*
X127500000Y-103500000D02*
X127300000Y-103300000D01*
X127300000Y-103300000D02*
X127300000Y-103600000D01*
X127300000Y-103600000D02*
X127400000Y-103500000D01*
X127400000Y-103500000D02*
X127800000Y-103500000D01*
X128000000Y-102700000D02*
X128000000Y-104200000D01*
X127000000Y-102700000D02*
X127000000Y-104200000D01*
X127000000Y-104200000D02*
X127900000Y-103500000D01*
X127900000Y-103500000D02*
X127000000Y-102700000D01*
X129900000Y-104750000D02*
X129900000Y-104850000D01*
X129900000Y-102200000D02*
X129900000Y-104750000D01*
X125900000Y-104900000D02*
X129100000Y-104900000D01*
X129100000Y-102100000D02*
X125900000Y-102100000D01*
X116700000Y-103500000D02*
X116100000Y-102900000D01*
X116100000Y-102900000D02*
X116100000Y-104000000D01*
X116100000Y-104000000D02*
X116700000Y-103500000D01*
X116700000Y-103500000D02*
X116200000Y-103100000D01*
X116200000Y-103100000D02*
X116200000Y-103800000D01*
X116200000Y-103800000D02*
X116500000Y-103500000D01*
X116500000Y-103500000D02*
X116300000Y-103300000D01*
X116300000Y-103300000D02*
X116300000Y-103600000D01*
X116300000Y-103600000D02*
X116400000Y-103500000D01*
X116400000Y-103500000D02*
X116800000Y-103500000D01*
X117000000Y-102700000D02*
X117000000Y-104200000D01*
X116000000Y-102700000D02*
X116000000Y-104200000D01*
X116000000Y-104200000D02*
X116900000Y-103500000D01*
X116900000Y-103500000D02*
X116000000Y-102700000D01*
X118900000Y-104750000D02*
X118900000Y-104850000D01*
X118900000Y-102200000D02*
X118900000Y-104750000D01*
X114900000Y-104900000D02*
X118100000Y-104900000D01*
X118100000Y-102100000D02*
X114900000Y-102100000D01*
X105700000Y-103500000D02*
X105100000Y-102900000D01*
X105100000Y-102900000D02*
X105100000Y-104000000D01*
X105100000Y-104000000D02*
X105700000Y-103500000D01*
X105700000Y-103500000D02*
X105200000Y-103100000D01*
X105200000Y-103100000D02*
X105200000Y-103800000D01*
X105200000Y-103800000D02*
X105500000Y-103500000D01*
X105500000Y-103500000D02*
X105300000Y-103300000D01*
X105300000Y-103300000D02*
X105300000Y-103600000D01*
X105300000Y-103600000D02*
X105400000Y-103500000D01*
X105400000Y-103500000D02*
X105800000Y-103500000D01*
X106000000Y-102700000D02*
X106000000Y-104200000D01*
X105000000Y-102700000D02*
X105000000Y-104200000D01*
X105000000Y-104200000D02*
X105900000Y-103500000D01*
X105900000Y-103500000D02*
X105000000Y-102700000D01*
X107900000Y-104750000D02*
X107900000Y-104850000D01*
X107900000Y-102200000D02*
X107900000Y-104750000D01*
X103900000Y-104900000D02*
X107100000Y-104900000D01*
X107100000Y-102100000D02*
X103900000Y-102100000D01*
X171700000Y-92500000D02*
X171100000Y-91900000D01*
X171100000Y-91900000D02*
X171100000Y-93000000D01*
X171100000Y-93000000D02*
X171700000Y-92500000D01*
X171700000Y-92500000D02*
X171200000Y-92100000D01*
X171200000Y-92100000D02*
X171200000Y-92800000D01*
X171200000Y-92800000D02*
X171500000Y-92500000D01*
X171500000Y-92500000D02*
X171300000Y-92300000D01*
X171300000Y-92300000D02*
X171300000Y-92600000D01*
X171300000Y-92600000D02*
X171400000Y-92500000D01*
X171400000Y-92500000D02*
X171800000Y-92500000D01*
X172000000Y-91700000D02*
X172000000Y-93200000D01*
X171000000Y-91700000D02*
X171000000Y-93200000D01*
X171000000Y-93200000D02*
X171900000Y-92500000D01*
X171900000Y-92500000D02*
X171000000Y-91700000D01*
X173900000Y-93750000D02*
X173900000Y-93850000D01*
X173900000Y-91200000D02*
X173900000Y-93750000D01*
X169900000Y-93900000D02*
X173100000Y-93900000D01*
X173100000Y-91100000D02*
X169900000Y-91100000D01*
X160700000Y-92500000D02*
X160100000Y-91900000D01*
X160100000Y-91900000D02*
X160100000Y-93000000D01*
X160100000Y-93000000D02*
X160700000Y-92500000D01*
X160700000Y-92500000D02*
X160200000Y-92100000D01*
X160200000Y-92100000D02*
X160200000Y-92800000D01*
X160200000Y-92800000D02*
X160500000Y-92500000D01*
X160500000Y-92500000D02*
X160300000Y-92300000D01*
X160300000Y-92300000D02*
X160300000Y-92600000D01*
X160300000Y-92600000D02*
X160400000Y-92500000D01*
X160400000Y-92500000D02*
X160800000Y-92500000D01*
X161000000Y-91700000D02*
X161000000Y-93200000D01*
X160000000Y-91700000D02*
X160000000Y-93200000D01*
X160000000Y-93200000D02*
X160900000Y-92500000D01*
X160900000Y-92500000D02*
X160000000Y-91700000D01*
X162900000Y-93750000D02*
X162900000Y-93850000D01*
X162900000Y-91200000D02*
X162900000Y-93750000D01*
X158900000Y-93900000D02*
X162100000Y-93900000D01*
X162100000Y-91100000D02*
X158900000Y-91100000D01*
X149700000Y-92500000D02*
X149100000Y-91900000D01*
X149100000Y-91900000D02*
X149100000Y-93000000D01*
X149100000Y-93000000D02*
X149700000Y-92500000D01*
X149700000Y-92500000D02*
X149200000Y-92100000D01*
X149200000Y-92100000D02*
X149200000Y-92800000D01*
X149200000Y-92800000D02*
X149500000Y-92500000D01*
X149500000Y-92500000D02*
X149300000Y-92300000D01*
X149300000Y-92300000D02*
X149300000Y-92600000D01*
X149300000Y-92600000D02*
X149400000Y-92500000D01*
X149400000Y-92500000D02*
X149800000Y-92500000D01*
X150000000Y-91700000D02*
X150000000Y-93200000D01*
X149000000Y-91700000D02*
X149000000Y-93200000D01*
X149000000Y-93200000D02*
X149900000Y-92500000D01*
X149900000Y-92500000D02*
X149000000Y-91700000D01*
X151900000Y-93750000D02*
X151900000Y-93850000D01*
X151900000Y-91200000D02*
X151900000Y-93750000D01*
X147900000Y-93900000D02*
X151100000Y-93900000D01*
X151100000Y-91100000D02*
X147900000Y-91100000D01*
X138700000Y-92500000D02*
X138100000Y-91900000D01*
X138100000Y-91900000D02*
X138100000Y-93000000D01*
X138100000Y-93000000D02*
X138700000Y-92500000D01*
X138700000Y-92500000D02*
X138200000Y-92100000D01*
X138200000Y-92100000D02*
X138200000Y-92800000D01*
X138200000Y-92800000D02*
X138500000Y-92500000D01*
X138500000Y-92500000D02*
X138300000Y-92300000D01*
X138300000Y-92300000D02*
X138300000Y-92600000D01*
X138300000Y-92600000D02*
X138400000Y-92500000D01*
X138400000Y-92500000D02*
X138800000Y-92500000D01*
X139000000Y-91700000D02*
X139000000Y-93200000D01*
X138000000Y-91700000D02*
X138000000Y-93200000D01*
X138000000Y-93200000D02*
X138900000Y-92500000D01*
X138900000Y-92500000D02*
X138000000Y-91700000D01*
X140900000Y-93750000D02*
X140900000Y-93850000D01*
X140900000Y-91200000D02*
X140900000Y-93750000D01*
X136900000Y-93900000D02*
X140100000Y-93900000D01*
X140100000Y-91100000D02*
X136900000Y-91100000D01*
X127700000Y-92500000D02*
X127100000Y-91900000D01*
X127100000Y-91900000D02*
X127100000Y-93000000D01*
X127100000Y-93000000D02*
X127700000Y-92500000D01*
X127700000Y-92500000D02*
X127200000Y-92100000D01*
X127200000Y-92100000D02*
X127200000Y-92800000D01*
X127200000Y-92800000D02*
X127500000Y-92500000D01*
X127500000Y-92500000D02*
X127300000Y-92300000D01*
X127300000Y-92300000D02*
X127300000Y-92600000D01*
X127300000Y-92600000D02*
X127400000Y-92500000D01*
X127400000Y-92500000D02*
X127800000Y-92500000D01*
X128000000Y-91700000D02*
X128000000Y-93200000D01*
X127000000Y-91700000D02*
X127000000Y-93200000D01*
X127000000Y-93200000D02*
X127900000Y-92500000D01*
X127900000Y-92500000D02*
X127000000Y-91700000D01*
X129900000Y-93750000D02*
X129900000Y-93850000D01*
X129900000Y-91200000D02*
X129900000Y-93750000D01*
X125900000Y-93900000D02*
X129100000Y-93900000D01*
X129100000Y-91100000D02*
X125900000Y-91100000D01*
X116700000Y-92500000D02*
X116100000Y-91900000D01*
X116100000Y-91900000D02*
X116100000Y-93000000D01*
X116100000Y-93000000D02*
X116700000Y-92500000D01*
X116700000Y-92500000D02*
X116200000Y-92100000D01*
X116200000Y-92100000D02*
X116200000Y-92800000D01*
X116200000Y-92800000D02*
X116500000Y-92500000D01*
X116500000Y-92500000D02*
X116300000Y-92300000D01*
X116300000Y-92300000D02*
X116300000Y-92600000D01*
X116300000Y-92600000D02*
X116400000Y-92500000D01*
X116400000Y-92500000D02*
X116800000Y-92500000D01*
X117000000Y-91700000D02*
X117000000Y-93200000D01*
X116000000Y-91700000D02*
X116000000Y-93200000D01*
X116000000Y-93200000D02*
X116900000Y-92500000D01*
X116900000Y-92500000D02*
X116000000Y-91700000D01*
X118900000Y-93750000D02*
X118900000Y-93850000D01*
X118900000Y-91200000D02*
X118900000Y-93750000D01*
X114900000Y-93900000D02*
X118100000Y-93900000D01*
X118100000Y-91100000D02*
X114900000Y-91100000D01*
X105700000Y-92500000D02*
X105100000Y-91900000D01*
X105100000Y-91900000D02*
X105100000Y-93000000D01*
X105100000Y-93000000D02*
X105700000Y-92500000D01*
X105700000Y-92500000D02*
X105200000Y-92100000D01*
X105200000Y-92100000D02*
X105200000Y-92800000D01*
X105200000Y-92800000D02*
X105500000Y-92500000D01*
X105500000Y-92500000D02*
X105300000Y-92300000D01*
X105300000Y-92300000D02*
X105300000Y-92600000D01*
X105300000Y-92600000D02*
X105400000Y-92500000D01*
X105400000Y-92500000D02*
X105800000Y-92500000D01*
X106000000Y-91700000D02*
X106000000Y-93200000D01*
X105000000Y-91700000D02*
X105000000Y-93200000D01*
X105000000Y-93200000D02*
X105900000Y-92500000D01*
X105900000Y-92500000D02*
X105000000Y-91700000D01*
X107900000Y-93750000D02*
X107900000Y-93850000D01*
X107900000Y-91200000D02*
X107900000Y-93750000D01*
X103900000Y-93900000D02*
X107100000Y-93900000D01*
X107100000Y-91100000D02*
X103900000Y-91100000D01*
X182700000Y-81500000D02*
X182100000Y-80900000D01*
X182100000Y-80900000D02*
X182100000Y-82000000D01*
X182100000Y-82000000D02*
X182700000Y-81500000D01*
X182700000Y-81500000D02*
X182200000Y-81100000D01*
X182200000Y-81100000D02*
X182200000Y-81800000D01*
X182200000Y-81800000D02*
X182500000Y-81500000D01*
X182500000Y-81500000D02*
X182300000Y-81300000D01*
X182300000Y-81300000D02*
X182300000Y-81600000D01*
X182300000Y-81600000D02*
X182400000Y-81500000D01*
X182400000Y-81500000D02*
X182800000Y-81500000D01*
X183000000Y-80700000D02*
X183000000Y-82200000D01*
X182000000Y-80700000D02*
X182000000Y-82200000D01*
X182000000Y-82200000D02*
X182900000Y-81500000D01*
X182900000Y-81500000D02*
X182000000Y-80700000D01*
X184900000Y-82750000D02*
X184900000Y-82850000D01*
X184900000Y-80200000D02*
X184900000Y-82750000D01*
X180900000Y-82900000D02*
X184100000Y-82900000D01*
X184100000Y-80100000D02*
X180900000Y-80100000D01*
X171700000Y-81500000D02*
X171100000Y-80900000D01*
X171100000Y-80900000D02*
X171100000Y-82000000D01*
X171100000Y-82000000D02*
X171700000Y-81500000D01*
X171700000Y-81500000D02*
X171200000Y-81100000D01*
X171200000Y-81100000D02*
X171200000Y-81800000D01*
X171200000Y-81800000D02*
X171500000Y-81500000D01*
X171500000Y-81500000D02*
X171300000Y-81300000D01*
X171300000Y-81300000D02*
X171300000Y-81600000D01*
X171300000Y-81600000D02*
X171400000Y-81500000D01*
X171400000Y-81500000D02*
X171800000Y-81500000D01*
X172000000Y-80700000D02*
X172000000Y-82200000D01*
X171000000Y-80700000D02*
X171000000Y-82200000D01*
X171000000Y-82200000D02*
X171900000Y-81500000D01*
X171900000Y-81500000D02*
X171000000Y-80700000D01*
X173900000Y-82750000D02*
X173900000Y-82850000D01*
X173900000Y-80200000D02*
X173900000Y-82750000D01*
X169900000Y-82900000D02*
X173100000Y-82900000D01*
X173100000Y-80100000D02*
X169900000Y-80100000D01*
X160700000Y-81500000D02*
X160100000Y-80900000D01*
X160100000Y-80900000D02*
X160100000Y-82000000D01*
X160100000Y-82000000D02*
X160700000Y-81500000D01*
X160700000Y-81500000D02*
X160200000Y-81100000D01*
X160200000Y-81100000D02*
X160200000Y-81800000D01*
X160200000Y-81800000D02*
X160500000Y-81500000D01*
X160500000Y-81500000D02*
X160300000Y-81300000D01*
X160300000Y-81300000D02*
X160300000Y-81600000D01*
X160300000Y-81600000D02*
X160400000Y-81500000D01*
X160400000Y-81500000D02*
X160800000Y-81500000D01*
X161000000Y-80700000D02*
X161000000Y-82200000D01*
X160000000Y-80700000D02*
X160000000Y-82200000D01*
X160000000Y-82200000D02*
X160900000Y-81500000D01*
X160900000Y-81500000D02*
X160000000Y-80700000D01*
X162900000Y-82750000D02*
X162900000Y-82850000D01*
X162900000Y-80200000D02*
X162900000Y-82750000D01*
X158900000Y-82900000D02*
X162100000Y-82900000D01*
X162100000Y-80100000D02*
X158900000Y-80100000D01*
X149700000Y-81500000D02*
X149100000Y-80900000D01*
X149100000Y-80900000D02*
X149100000Y-82000000D01*
X149100000Y-82000000D02*
X149700000Y-81500000D01*
X149700000Y-81500000D02*
X149200000Y-81100000D01*
X149200000Y-81100000D02*
X149200000Y-81800000D01*
X149200000Y-81800000D02*
X149500000Y-81500000D01*
X149500000Y-81500000D02*
X149300000Y-81300000D01*
X149300000Y-81300000D02*
X149300000Y-81600000D01*
X149300000Y-81600000D02*
X149400000Y-81500000D01*
X149400000Y-81500000D02*
X149800000Y-81500000D01*
X150000000Y-80700000D02*
X150000000Y-82200000D01*
X149000000Y-80700000D02*
X149000000Y-82200000D01*
X149000000Y-82200000D02*
X149900000Y-81500000D01*
X149900000Y-81500000D02*
X149000000Y-80700000D01*
X151900000Y-82750000D02*
X151900000Y-82850000D01*
X151900000Y-80200000D02*
X151900000Y-82750000D01*
X147900000Y-82900000D02*
X151100000Y-82900000D01*
X151100000Y-80100000D02*
X147900000Y-80100000D01*
X138700000Y-81500000D02*
X138100000Y-80900000D01*
X138100000Y-80900000D02*
X138100000Y-82000000D01*
X138100000Y-82000000D02*
X138700000Y-81500000D01*
X138700000Y-81500000D02*
X138200000Y-81100000D01*
X138200000Y-81100000D02*
X138200000Y-81800000D01*
X138200000Y-81800000D02*
X138500000Y-81500000D01*
X138500000Y-81500000D02*
X138300000Y-81300000D01*
X138300000Y-81300000D02*
X138300000Y-81600000D01*
X138300000Y-81600000D02*
X138400000Y-81500000D01*
X138400000Y-81500000D02*
X138800000Y-81500000D01*
X139000000Y-80700000D02*
X139000000Y-82200000D01*
X138000000Y-80700000D02*
X138000000Y-82200000D01*
X138000000Y-82200000D02*
X138900000Y-81500000D01*
X138900000Y-81500000D02*
X138000000Y-80700000D01*
X140900000Y-82750000D02*
X140900000Y-82850000D01*
X140900000Y-80200000D02*
X140900000Y-82750000D01*
X136900000Y-82900000D02*
X140100000Y-82900000D01*
X140100000Y-80100000D02*
X136900000Y-80100000D01*
X127700000Y-81500000D02*
X127100000Y-80900000D01*
X127100000Y-80900000D02*
X127100000Y-82000000D01*
X127100000Y-82000000D02*
X127700000Y-81500000D01*
X127700000Y-81500000D02*
X127200000Y-81100000D01*
X127200000Y-81100000D02*
X127200000Y-81800000D01*
X127200000Y-81800000D02*
X127500000Y-81500000D01*
X127500000Y-81500000D02*
X127300000Y-81300000D01*
X127300000Y-81300000D02*
X127300000Y-81600000D01*
X127300000Y-81600000D02*
X127400000Y-81500000D01*
X127400000Y-81500000D02*
X127800000Y-81500000D01*
X128000000Y-80700000D02*
X128000000Y-82200000D01*
X127000000Y-80700000D02*
X127000000Y-82200000D01*
X127000000Y-82200000D02*
X127900000Y-81500000D01*
X127900000Y-81500000D02*
X127000000Y-80700000D01*
X129900000Y-82750000D02*
X129900000Y-82850000D01*
X129900000Y-80200000D02*
X129900000Y-82750000D01*
X125900000Y-82900000D02*
X129100000Y-82900000D01*
X129100000Y-80100000D02*
X125900000Y-80100000D01*
X116700000Y-81500000D02*
X116100000Y-80900000D01*
X116100000Y-80900000D02*
X116100000Y-82000000D01*
X116100000Y-82000000D02*
X116700000Y-81500000D01*
X116700000Y-81500000D02*
X116200000Y-81100000D01*
X116200000Y-81100000D02*
X116200000Y-81800000D01*
X116200000Y-81800000D02*
X116500000Y-81500000D01*
X116500000Y-81500000D02*
X116300000Y-81300000D01*
X116300000Y-81300000D02*
X116300000Y-81600000D01*
X116300000Y-81600000D02*
X116400000Y-81500000D01*
X116400000Y-81500000D02*
X116800000Y-81500000D01*
X117000000Y-80700000D02*
X117000000Y-82200000D01*
X116000000Y-80700000D02*
X116000000Y-82200000D01*
X116000000Y-82200000D02*
X116900000Y-81500000D01*
X116900000Y-81500000D02*
X116000000Y-80700000D01*
X118900000Y-82750000D02*
X118900000Y-82850000D01*
X118900000Y-80200000D02*
X118900000Y-82750000D01*
X114900000Y-82900000D02*
X118100000Y-82900000D01*
X118100000Y-80100000D02*
X114900000Y-80100000D01*
X105700000Y-81500000D02*
X105100000Y-80900000D01*
X105100000Y-80900000D02*
X105100000Y-82000000D01*
X105100000Y-82000000D02*
X105700000Y-81500000D01*
X105700000Y-81500000D02*
X105200000Y-81100000D01*
X105200000Y-81100000D02*
X105200000Y-81800000D01*
X105200000Y-81800000D02*
X105500000Y-81500000D01*
X105500000Y-81500000D02*
X105300000Y-81300000D01*
X105300000Y-81300000D02*
X105300000Y-81600000D01*
X105300000Y-81600000D02*
X105400000Y-81500000D01*
X105400000Y-81500000D02*
X105800000Y-81500000D01*
X106000000Y-80700000D02*
X106000000Y-82200000D01*
X105000000Y-80700000D02*
X105000000Y-82200000D01*
X105000000Y-82200000D02*
X105900000Y-81500000D01*
X105900000Y-81500000D02*
X105000000Y-80700000D01*
X107900000Y-82750000D02*
X107900000Y-82850000D01*
X107900000Y-80200000D02*
X107900000Y-82750000D01*
X103900000Y-82900000D02*
X107100000Y-82900000D01*
X107100000Y-80100000D02*
X103900000Y-80100000D01*
X182700000Y-70500000D02*
X182100000Y-69900000D01*
X182100000Y-69900000D02*
X182100000Y-71000000D01*
X182100000Y-71000000D02*
X182700000Y-70500000D01*
X182700000Y-70500000D02*
X182200000Y-70100000D01*
X182200000Y-70100000D02*
X182200000Y-70800000D01*
X182200000Y-70800000D02*
X182500000Y-70500000D01*
X182500000Y-70500000D02*
X182300000Y-70300000D01*
X182300000Y-70300000D02*
X182300000Y-70600000D01*
X182300000Y-70600000D02*
X182400000Y-70500000D01*
X182400000Y-70500000D02*
X182800000Y-70500000D01*
X183000000Y-69700000D02*
X183000000Y-71200000D01*
X182000000Y-69700000D02*
X182000000Y-71200000D01*
X182000000Y-71200000D02*
X182900000Y-70500000D01*
X182900000Y-70500000D02*
X182000000Y-69700000D01*
X184900000Y-71750000D02*
X184900000Y-71850000D01*
X184900000Y-69200000D02*
X184900000Y-71750000D01*
X180900000Y-71900000D02*
X184100000Y-71900000D01*
X184100000Y-69100000D02*
X180900000Y-69100000D01*
X171700000Y-70500000D02*
X171100000Y-69900000D01*
X171100000Y-69900000D02*
X171100000Y-71000000D01*
X171100000Y-71000000D02*
X171700000Y-70500000D01*
X171700000Y-70500000D02*
X171200000Y-70100000D01*
X171200000Y-70100000D02*
X171200000Y-70800000D01*
X171200000Y-70800000D02*
X171500000Y-70500000D01*
X171500000Y-70500000D02*
X171300000Y-70300000D01*
X171300000Y-70300000D02*
X171300000Y-70600000D01*
X171300000Y-70600000D02*
X171400000Y-70500000D01*
X171400000Y-70500000D02*
X171800000Y-70500000D01*
X172000000Y-69700000D02*
X172000000Y-71200000D01*
X171000000Y-69700000D02*
X171000000Y-71200000D01*
X171000000Y-71200000D02*
X171900000Y-70500000D01*
X171900000Y-70500000D02*
X171000000Y-69700000D01*
X173900000Y-71750000D02*
X173900000Y-71850000D01*
X173900000Y-69200000D02*
X173900000Y-71750000D01*
X169900000Y-71900000D02*
X173100000Y-71900000D01*
X173100000Y-69100000D02*
X169900000Y-69100000D01*
X160700000Y-70500000D02*
X160100000Y-69900000D01*
X160100000Y-69900000D02*
X160100000Y-71000000D01*
X160100000Y-71000000D02*
X160700000Y-70500000D01*
X160700000Y-70500000D02*
X160200000Y-70100000D01*
X160200000Y-70100000D02*
X160200000Y-70800000D01*
X160200000Y-70800000D02*
X160500000Y-70500000D01*
X160500000Y-70500000D02*
X160300000Y-70300000D01*
X160300000Y-70300000D02*
X160300000Y-70600000D01*
X160300000Y-70600000D02*
X160400000Y-70500000D01*
X160400000Y-70500000D02*
X160800000Y-70500000D01*
X161000000Y-69700000D02*
X161000000Y-71200000D01*
X160000000Y-69700000D02*
X160000000Y-71200000D01*
X160000000Y-71200000D02*
X160900000Y-70500000D01*
X160900000Y-70500000D02*
X160000000Y-69700000D01*
X162900000Y-71750000D02*
X162900000Y-71850000D01*
X162900000Y-69200000D02*
X162900000Y-71750000D01*
X158900000Y-71900000D02*
X162100000Y-71900000D01*
X162100000Y-69100000D02*
X158900000Y-69100000D01*
X149700000Y-70500000D02*
X149100000Y-69900000D01*
X149100000Y-69900000D02*
X149100000Y-71000000D01*
X149100000Y-71000000D02*
X149700000Y-70500000D01*
X149700000Y-70500000D02*
X149200000Y-70100000D01*
X149200000Y-70100000D02*
X149200000Y-70800000D01*
X149200000Y-70800000D02*
X149500000Y-70500000D01*
X149500000Y-70500000D02*
X149300000Y-70300000D01*
X149300000Y-70300000D02*
X149300000Y-70600000D01*
X149300000Y-70600000D02*
X149400000Y-70500000D01*
X149400000Y-70500000D02*
X149800000Y-70500000D01*
X150000000Y-69700000D02*
X150000000Y-71200000D01*
X149000000Y-69700000D02*
X149000000Y-71200000D01*
X149000000Y-71200000D02*
X149900000Y-70500000D01*
X149900000Y-70500000D02*
X149000000Y-69700000D01*
X151900000Y-71750000D02*
X151900000Y-71850000D01*
X151900000Y-69200000D02*
X151900000Y-71750000D01*
X147900000Y-71900000D02*
X151100000Y-71900000D01*
X151100000Y-69100000D02*
X147900000Y-69100000D01*
X138700000Y-70500000D02*
X138100000Y-69900000D01*
X138100000Y-69900000D02*
X138100000Y-71000000D01*
X138100000Y-71000000D02*
X138700000Y-70500000D01*
X138700000Y-70500000D02*
X138200000Y-70100000D01*
X138200000Y-70100000D02*
X138200000Y-70800000D01*
X138200000Y-70800000D02*
X138500000Y-70500000D01*
X138500000Y-70500000D02*
X138300000Y-70300000D01*
X138300000Y-70300000D02*
X138300000Y-70600000D01*
X138300000Y-70600000D02*
X138400000Y-70500000D01*
X138400000Y-70500000D02*
X138800000Y-70500000D01*
X139000000Y-69700000D02*
X139000000Y-71200000D01*
X138000000Y-69700000D02*
X138000000Y-71200000D01*
X138000000Y-71200000D02*
X138900000Y-70500000D01*
X138900000Y-70500000D02*
X138000000Y-69700000D01*
X140900000Y-71750000D02*
X140900000Y-71850000D01*
X140900000Y-69200000D02*
X140900000Y-71750000D01*
X136900000Y-71900000D02*
X140100000Y-71900000D01*
X140100000Y-69100000D02*
X136900000Y-69100000D01*
X127700000Y-70500000D02*
X127100000Y-69900000D01*
X127100000Y-69900000D02*
X127100000Y-71000000D01*
X127100000Y-71000000D02*
X127700000Y-70500000D01*
X127700000Y-70500000D02*
X127200000Y-70100000D01*
X127200000Y-70100000D02*
X127200000Y-70800000D01*
X127200000Y-70800000D02*
X127500000Y-70500000D01*
X127500000Y-70500000D02*
X127300000Y-70300000D01*
X127300000Y-70300000D02*
X127300000Y-70600000D01*
X127300000Y-70600000D02*
X127400000Y-70500000D01*
X127400000Y-70500000D02*
X127800000Y-70500000D01*
X128000000Y-69700000D02*
X128000000Y-71200000D01*
X127000000Y-69700000D02*
X127000000Y-71200000D01*
X127000000Y-71200000D02*
X127900000Y-70500000D01*
X127900000Y-70500000D02*
X127000000Y-69700000D01*
X129900000Y-71750000D02*
X129900000Y-71850000D01*
X129900000Y-69200000D02*
X129900000Y-71750000D01*
X125900000Y-71900000D02*
X129100000Y-71900000D01*
X129100000Y-69100000D02*
X125900000Y-69100000D01*
X116700000Y-70500000D02*
X116100000Y-69900000D01*
X116100000Y-69900000D02*
X116100000Y-71000000D01*
X116100000Y-71000000D02*
X116700000Y-70500000D01*
X116700000Y-70500000D02*
X116200000Y-70100000D01*
X116200000Y-70100000D02*
X116200000Y-70800000D01*
X116200000Y-70800000D02*
X116500000Y-70500000D01*
X116500000Y-70500000D02*
X116300000Y-70300000D01*
X116300000Y-70300000D02*
X116300000Y-70600000D01*
X116300000Y-70600000D02*
X116400000Y-70500000D01*
X116400000Y-70500000D02*
X116800000Y-70500000D01*
X117000000Y-69700000D02*
X117000000Y-71200000D01*
X116000000Y-69700000D02*
X116000000Y-71200000D01*
X116000000Y-71200000D02*
X116900000Y-70500000D01*
X116900000Y-70500000D02*
X116000000Y-69700000D01*
X118900000Y-71750000D02*
X118900000Y-71850000D01*
X118900000Y-69200000D02*
X118900000Y-71750000D01*
X114900000Y-71900000D02*
X118100000Y-71900000D01*
X118100000Y-69100000D02*
X114900000Y-69100000D01*
X105700000Y-70500000D02*
X105100000Y-69900000D01*
X105100000Y-69900000D02*
X105100000Y-71000000D01*
X105100000Y-71000000D02*
X105700000Y-70500000D01*
X105700000Y-70500000D02*
X105200000Y-70100000D01*
X105200000Y-70100000D02*
X105200000Y-70800000D01*
X105200000Y-70800000D02*
X105500000Y-70500000D01*
X105500000Y-70500000D02*
X105300000Y-70300000D01*
X105300000Y-70300000D02*
X105300000Y-70600000D01*
X105300000Y-70600000D02*
X105400000Y-70500000D01*
X105400000Y-70500000D02*
X105800000Y-70500000D01*
X106000000Y-69700000D02*
X106000000Y-71200000D01*
X105000000Y-69700000D02*
X105000000Y-71200000D01*
X105000000Y-71200000D02*
X105900000Y-70500000D01*
X105900000Y-70500000D02*
X105000000Y-69700000D01*
X107900000Y-71750000D02*
X107900000Y-71850000D01*
X107900000Y-69200000D02*
X107900000Y-71750000D01*
X103900000Y-71900000D02*
X107100000Y-71900000D01*
X107100000Y-69100000D02*
X103900000Y-69100000D01*
X182700000Y-59500000D02*
X182100000Y-58900000D01*
X182100000Y-58900000D02*
X182100000Y-60000000D01*
X182100000Y-60000000D02*
X182700000Y-59500000D01*
X182700000Y-59500000D02*
X182200000Y-59100000D01*
X182200000Y-59100000D02*
X182200000Y-59800000D01*
X182200000Y-59800000D02*
X182500000Y-59500000D01*
X182500000Y-59500000D02*
X182300000Y-59300000D01*
X182300000Y-59300000D02*
X182300000Y-59600000D01*
X182300000Y-59600000D02*
X182400000Y-59500000D01*
X182400000Y-59500000D02*
X182800000Y-59500000D01*
X183000000Y-58700000D02*
X183000000Y-60200000D01*
X182000000Y-58700000D02*
X182000000Y-60200000D01*
X182000000Y-60200000D02*
X182900000Y-59500000D01*
X182900000Y-59500000D02*
X182000000Y-58700000D01*
X184900000Y-60750000D02*
X184900000Y-60850000D01*
X184900000Y-58200000D02*
X184900000Y-60750000D01*
X180900000Y-60900000D02*
X184100000Y-60900000D01*
X184100000Y-58100000D02*
X180900000Y-58100000D01*
X171700000Y-59500000D02*
X171100000Y-58900000D01*
X171100000Y-58900000D02*
X171100000Y-60000000D01*
X171100000Y-60000000D02*
X171700000Y-59500000D01*
X171700000Y-59500000D02*
X171200000Y-59100000D01*
X171200000Y-59100000D02*
X171200000Y-59800000D01*
X171200000Y-59800000D02*
X171500000Y-59500000D01*
X171500000Y-59500000D02*
X171300000Y-59300000D01*
X171300000Y-59300000D02*
X171300000Y-59600000D01*
X171300000Y-59600000D02*
X171400000Y-59500000D01*
X171400000Y-59500000D02*
X171800000Y-59500000D01*
X172000000Y-58700000D02*
X172000000Y-60200000D01*
X171000000Y-58700000D02*
X171000000Y-60200000D01*
X171000000Y-60200000D02*
X171900000Y-59500000D01*
X171900000Y-59500000D02*
X171000000Y-58700000D01*
X173900000Y-60750000D02*
X173900000Y-60850000D01*
X173900000Y-58200000D02*
X173900000Y-60750000D01*
X169900000Y-60900000D02*
X173100000Y-60900000D01*
X173100000Y-58100000D02*
X169900000Y-58100000D01*
X160700000Y-59500000D02*
X160100000Y-58900000D01*
X160100000Y-58900000D02*
X160100000Y-60000000D01*
X160100000Y-60000000D02*
X160700000Y-59500000D01*
X160700000Y-59500000D02*
X160200000Y-59100000D01*
X160200000Y-59100000D02*
X160200000Y-59800000D01*
X160200000Y-59800000D02*
X160500000Y-59500000D01*
X160500000Y-59500000D02*
X160300000Y-59300000D01*
X160300000Y-59300000D02*
X160300000Y-59600000D01*
X160300000Y-59600000D02*
X160400000Y-59500000D01*
X160400000Y-59500000D02*
X160800000Y-59500000D01*
X161000000Y-58700000D02*
X161000000Y-60200000D01*
X160000000Y-58700000D02*
X160000000Y-60200000D01*
X160000000Y-60200000D02*
X160900000Y-59500000D01*
X160900000Y-59500000D02*
X160000000Y-58700000D01*
X162900000Y-60750000D02*
X162900000Y-60850000D01*
X162900000Y-58200000D02*
X162900000Y-60750000D01*
X158900000Y-60900000D02*
X162100000Y-60900000D01*
X162100000Y-58100000D02*
X158900000Y-58100000D01*
X149700000Y-59500000D02*
X149100000Y-58900000D01*
X149100000Y-58900000D02*
X149100000Y-60000000D01*
X149100000Y-60000000D02*
X149700000Y-59500000D01*
X149700000Y-59500000D02*
X149200000Y-59100000D01*
X149200000Y-59100000D02*
X149200000Y-59800000D01*
X149200000Y-59800000D02*
X149500000Y-59500000D01*
X149500000Y-59500000D02*
X149300000Y-59300000D01*
X149300000Y-59300000D02*
X149300000Y-59600000D01*
X149300000Y-59600000D02*
X149400000Y-59500000D01*
X149400000Y-59500000D02*
X149800000Y-59500000D01*
X150000000Y-58700000D02*
X150000000Y-60200000D01*
X149000000Y-58700000D02*
X149000000Y-60200000D01*
X149000000Y-60200000D02*
X149900000Y-59500000D01*
X149900000Y-59500000D02*
X149000000Y-58700000D01*
X151900000Y-60750000D02*
X151900000Y-60850000D01*
X151900000Y-58200000D02*
X151900000Y-60750000D01*
X147900000Y-60900000D02*
X151100000Y-60900000D01*
X151100000Y-58100000D02*
X147900000Y-58100000D01*
X138700000Y-59500000D02*
X138100000Y-58900000D01*
X138100000Y-58900000D02*
X138100000Y-60000000D01*
X138100000Y-60000000D02*
X138700000Y-59500000D01*
X138700000Y-59500000D02*
X138200000Y-59100000D01*
X138200000Y-59100000D02*
X138200000Y-59800000D01*
X138200000Y-59800000D02*
X138500000Y-59500000D01*
X138500000Y-59500000D02*
X138300000Y-59300000D01*
X138300000Y-59300000D02*
X138300000Y-59600000D01*
X138300000Y-59600000D02*
X138400000Y-59500000D01*
X138400000Y-59500000D02*
X138800000Y-59500000D01*
X139000000Y-58700000D02*
X139000000Y-60200000D01*
X138000000Y-58700000D02*
X138000000Y-60200000D01*
X138000000Y-60200000D02*
X138900000Y-59500000D01*
X138900000Y-59500000D02*
X138000000Y-58700000D01*
X140900000Y-60750000D02*
X140900000Y-60850000D01*
X140900000Y-58200000D02*
X140900000Y-60750000D01*
X136900000Y-60900000D02*
X140100000Y-60900000D01*
X140100000Y-58100000D02*
X136900000Y-58100000D01*
X127700000Y-59500000D02*
X127100000Y-58900000D01*
X127100000Y-58900000D02*
X127100000Y-60000000D01*
X127100000Y-60000000D02*
X127700000Y-59500000D01*
X127700000Y-59500000D02*
X127200000Y-59100000D01*
X127200000Y-59100000D02*
X127200000Y-59800000D01*
X127200000Y-59800000D02*
X127500000Y-59500000D01*
X127500000Y-59500000D02*
X127300000Y-59300000D01*
X127300000Y-59300000D02*
X127300000Y-59600000D01*
X127300000Y-59600000D02*
X127400000Y-59500000D01*
X127400000Y-59500000D02*
X127800000Y-59500000D01*
X128000000Y-58700000D02*
X128000000Y-60200000D01*
X127000000Y-58700000D02*
X127000000Y-60200000D01*
X127000000Y-60200000D02*
X127900000Y-59500000D01*
X127900000Y-59500000D02*
X127000000Y-58700000D01*
X129900000Y-60750000D02*
X129900000Y-60850000D01*
X129900000Y-58200000D02*
X129900000Y-60750000D01*
X125900000Y-60900000D02*
X129100000Y-60900000D01*
X129100000Y-58100000D02*
X125900000Y-58100000D01*
X116700000Y-59500000D02*
X116100000Y-58900000D01*
X116100000Y-58900000D02*
X116100000Y-60000000D01*
X116100000Y-60000000D02*
X116700000Y-59500000D01*
X116700000Y-59500000D02*
X116200000Y-59100000D01*
X116200000Y-59100000D02*
X116200000Y-59800000D01*
X116200000Y-59800000D02*
X116500000Y-59500000D01*
X116500000Y-59500000D02*
X116300000Y-59300000D01*
X116300000Y-59300000D02*
X116300000Y-59600000D01*
X116300000Y-59600000D02*
X116400000Y-59500000D01*
X116400000Y-59500000D02*
X116800000Y-59500000D01*
X117000000Y-58700000D02*
X117000000Y-60200000D01*
X116000000Y-58700000D02*
X116000000Y-60200000D01*
X116000000Y-60200000D02*
X116900000Y-59500000D01*
X116900000Y-59500000D02*
X116000000Y-58700000D01*
X118900000Y-60750000D02*
X118900000Y-60850000D01*
X118900000Y-58200000D02*
X118900000Y-60750000D01*
X114900000Y-60900000D02*
X118100000Y-60900000D01*
X118100000Y-58100000D02*
X114900000Y-58100000D01*
X105700000Y-59500000D02*
X105100000Y-58900000D01*
X105100000Y-58900000D02*
X105100000Y-60000000D01*
X105100000Y-60000000D02*
X105700000Y-59500000D01*
X105700000Y-59500000D02*
X105200000Y-59100000D01*
X105200000Y-59100000D02*
X105200000Y-59800000D01*
X105200000Y-59800000D02*
X105500000Y-59500000D01*
X105500000Y-59500000D02*
X105300000Y-59300000D01*
X105300000Y-59300000D02*
X105300000Y-59600000D01*
X105300000Y-59600000D02*
X105400000Y-59500000D01*
X105400000Y-59500000D02*
X105800000Y-59500000D01*
X106000000Y-58700000D02*
X106000000Y-60200000D01*
X105000000Y-58700000D02*
X105000000Y-60200000D01*
X105000000Y-60200000D02*
X105900000Y-59500000D01*
X105900000Y-59500000D02*
X105000000Y-58700000D01*
X107900000Y-60750000D02*
X107900000Y-60850000D01*
X107900000Y-58200000D02*
X107900000Y-60750000D01*
X103900000Y-60900000D02*
X107100000Y-60900000D01*
X107100000Y-58100000D02*
X103900000Y-58100000D01*
X185000000Y-66825000D02*
X184000000Y-66825000D01*
X184000000Y-68175000D02*
X185000000Y-68175000D01*
X185000000Y-61825000D02*
X184000000Y-61825000D01*
X184000000Y-63175000D02*
X185000000Y-63175000D01*
X185000000Y-83825000D02*
X184000000Y-83825000D01*
X184000000Y-85175000D02*
X185000000Y-85175000D01*
X185000000Y-88825000D02*
X184000000Y-88825000D01*
X184000000Y-90175000D02*
X185000000Y-90175000D01*
X185000000Y-105825000D02*
X184000000Y-105825000D01*
X184000000Y-107175000D02*
X185000000Y-107175000D01*
X185000000Y-110825000D02*
X184000000Y-110825000D01*
X184000000Y-112175000D02*
X185000000Y-112175000D01*
D12*
G36*
X127137429Y-84062590D02*
X127102771Y-84069293D01*
X127057312Y-84084309D01*
X127009882Y-84105867D01*
X126965428Y-84131588D01*
X126947958Y-84143705D01*
X126925559Y-84162096D01*
X126899324Y-84186470D01*
X126872240Y-84213817D01*
X126847292Y-84241128D01*
X126828197Y-84264423D01*
X126815604Y-84281054D01*
X126803926Y-84296419D01*
X126800344Y-84301112D01*
X126793178Y-84311662D01*
X126782064Y-84329390D01*
X126768630Y-84351657D01*
X126756897Y-84371667D01*
X126736318Y-84407274D01*
X126713829Y-84446246D01*
X126690223Y-84487203D01*
X126666292Y-84528768D01*
X126642828Y-84569563D01*
X126620623Y-84608208D01*
X126600469Y-84643325D01*
X126583159Y-84673537D01*
X126569485Y-84697464D01*
X126560238Y-84713729D01*
X126557387Y-84718800D01*
X126549457Y-84732826D01*
X126536294Y-84755824D01*
X126518351Y-84787015D01*
X126496079Y-84825618D01*
X126469928Y-84870851D01*
X126440350Y-84921935D01*
X126407796Y-84978087D01*
X126372717Y-85038527D01*
X126360897Y-85058878D01*
X126337415Y-85099331D01*
X126317468Y-85133751D01*
X126301767Y-85160909D01*
X126291023Y-85179578D01*
X126290813Y-85179945D01*
X126283954Y-85191916D01*
X126273009Y-85211013D01*
X126259507Y-85234569D01*
X126245520Y-85258968D01*
X126229299Y-85287277D01*
X126212519Y-85316592D01*
X126197391Y-85343049D01*
X126188028Y-85359445D01*
X126174130Y-85383654D01*
X126159411Y-85409048D01*
X126147135Y-85430000D01*
X126137402Y-85446542D01*
X126128263Y-85462301D01*
X126118200Y-85479938D01*
X126105695Y-85502112D01*
X126089230Y-85531484D01*
X126089165Y-85531600D01*
X126081127Y-85545689D01*
X126068808Y-85566949D01*
X126053687Y-85592844D01*
X126037242Y-85620835D01*
X126031613Y-85630378D01*
X126014714Y-85659142D01*
X125998329Y-85687302D01*
X125984050Y-85712101D01*
X125973470Y-85730784D01*
X125971247Y-85734800D01*
X125962461Y-85750478D01*
X125949383Y-85773383D01*
X125933450Y-85801018D01*
X125916100Y-85830886D01*
X125906281Y-85847689D01*
X125886452Y-85881644D01*
X125863280Y-85921481D01*
X125839035Y-85963285D01*
X125815989Y-86003146D01*
X125804737Y-86022667D01*
X125787319Y-86052901D01*
X125765629Y-86090507D01*
X125741051Y-86133086D01*
X125714971Y-86178243D01*
X125688772Y-86223578D01*
X125664600Y-86265378D01*
X125640669Y-86306770D01*
X125616480Y-86348654D01*
X125593192Y-86389017D01*
X125571966Y-86425847D01*
X125553963Y-86457129D01*
X125540344Y-86480853D01*
X125539293Y-86482689D01*
X125524705Y-86508099D01*
X125511795Y-86530455D01*
X125501765Y-86547687D01*
X125495816Y-86557721D01*
X125495090Y-86558889D01*
X125490755Y-86566153D01*
X125481727Y-86581637D01*
X125468918Y-86603763D01*
X125453242Y-86630952D01*
X125435611Y-86661625D01*
X125429786Y-86671778D01*
X125411228Y-86704121D01*
X125393876Y-86734325D01*
X125378767Y-86760589D01*
X125366936Y-86781113D01*
X125359421Y-86794094D01*
X125358335Y-86795956D01*
X125350228Y-86810048D01*
X125338726Y-86830353D01*
X125325901Y-86853207D01*
X125321630Y-86860867D01*
X125300643Y-86898277D01*
X125280195Y-86934191D01*
X125261615Y-86966300D01*
X125246235Y-86992297D01*
X125238599Y-87004800D01*
X125230974Y-87017437D01*
X125219362Y-87037172D01*
X125205351Y-87061285D01*
X125190767Y-87086645D01*
X125175281Y-87113649D01*
X125156092Y-87147001D01*
X125135168Y-87183288D01*
X125114477Y-87219096D01*
X125104562Y-87236223D01*
X125090419Y-87260667D01*
X125071587Y-87293270D01*
X125049002Y-87332407D01*
X125023603Y-87376450D01*
X124996328Y-87423773D01*
X124968115Y-87472749D01*
X124939902Y-87521752D01*
X124932059Y-87535378D01*
X124889652Y-87609057D01*
X124852191Y-87674120D01*
X124819000Y-87731737D01*
X124789401Y-87783083D01*
X124762720Y-87829328D01*
X124738280Y-87871645D01*
X124715403Y-87911207D01*
X124693413Y-87949185D01*
X124671635Y-87986752D01*
X124661704Y-88003867D01*
X124647628Y-88028186D01*
X124628867Y-88060693D01*
X124606349Y-88099778D01*
X124580998Y-88143833D01*
X124553740Y-88191248D01*
X124525501Y-88240415D01*
X124497207Y-88289725D01*
X124487964Y-88305845D01*
X124461882Y-88351269D01*
X124437237Y-88394056D01*
X124414657Y-88433126D01*
X124394769Y-88467398D01*
X124378202Y-88495792D01*
X124365584Y-88517226D01*
X124357544Y-88530620D01*
X124355110Y-88534445D01*
X124344530Y-88551364D01*
X124330739Y-88576001D01*
X124315049Y-88605734D01*
X124298774Y-88637937D01*
X124283225Y-88669987D01*
X124269714Y-88699260D01*
X124259556Y-88723131D01*
X124256027Y-88732557D01*
X124239039Y-88793424D01*
X124228617Y-88856942D01*
X124225018Y-88919974D01*
X124228497Y-88979383D01*
X124233427Y-89008935D01*
X124252387Y-89072534D01*
X124280884Y-89130425D01*
X124318538Y-89182296D01*
X124364972Y-89227835D01*
X124419807Y-89266731D01*
X124482663Y-89298671D01*
X124553162Y-89323345D01*
X124630926Y-89340440D01*
X124637422Y-89341466D01*
X124644230Y-89342038D01*
X124657172Y-89342583D01*
X124676466Y-89343100D01*
X124702328Y-89343592D01*
X124734978Y-89344058D01*
X124774632Y-89344499D01*
X124821508Y-89344915D01*
X124875824Y-89345309D01*
X124937798Y-89345679D01*
X125007647Y-89346027D01*
X125085589Y-89346354D01*
X125171843Y-89346660D01*
X125266624Y-89346946D01*
X125370152Y-89347212D01*
X125482644Y-89347460D01*
X125604317Y-89347689D01*
X125735389Y-89347901D01*
X125876079Y-89348096D01*
X126026603Y-89348275D01*
X126187180Y-89348439D01*
X126358027Y-89348588D01*
X126539361Y-89348722D01*
X126731402Y-89348844D01*
X126934365Y-89348952D01*
X127078644Y-89349019D01*
X127244067Y-89349083D01*
X127407261Y-89349130D01*
X127567830Y-89349161D01*
X127725376Y-89349175D01*
X127879501Y-89349173D01*
X128029808Y-89349155D01*
X128175899Y-89349123D01*
X128317376Y-89349075D01*
X128453842Y-89349013D01*
X128584899Y-89348937D01*
X128710149Y-89348848D01*
X128829195Y-89348745D01*
X128941640Y-89348629D01*
X129047084Y-89348500D01*
X129145131Y-89348359D01*
X129235384Y-89348207D01*
X129317443Y-89348042D01*
X129390913Y-89347867D01*
X129455395Y-89347681D01*
X129510491Y-89347484D01*
X129555804Y-89347278D01*
X129590936Y-89347062D01*
X129615490Y-89346836D01*
X129627111Y-89346653D01*
X129673149Y-89345533D01*
X129709701Y-89344411D01*
X129738570Y-89343127D01*
X129761558Y-89341518D01*
X129780468Y-89339423D01*
X129797103Y-89336682D01*
X129813264Y-89333131D01*
X129830754Y-89328611D01*
X129831805Y-89328327D01*
X129884994Y-89310556D01*
X126675067Y-89310556D01*
X126672244Y-89313378D01*
X126669422Y-89310556D01*
X126672244Y-89307734D01*
X126675067Y-89310556D01*
X129884994Y-89310556D01*
X129905832Y-89303594D01*
X129971143Y-89271826D01*
X129972282Y-89271045D01*
X127651556Y-89271045D01*
X127648733Y-89273867D01*
X127645911Y-89271045D01*
X127648733Y-89268223D01*
X127651556Y-89271045D01*
X129972282Y-89271045D01*
X130027678Y-89233068D01*
X130035170Y-89225889D01*
X127606400Y-89225889D01*
X127603578Y-89228712D01*
X127600756Y-89225889D01*
X127603578Y-89223067D01*
X127606400Y-89225889D01*
X130035170Y-89225889D01*
X130075376Y-89187366D01*
X130080268Y-89180734D01*
X127561244Y-89180734D01*
X127558422Y-89183556D01*
X127555600Y-89180734D01*
X127558422Y-89177912D01*
X127561244Y-89180734D01*
X130080268Y-89180734D01*
X130113578Y-89135578D01*
X127516089Y-89135578D01*
X127513267Y-89138400D01*
X127510444Y-89135578D01*
X127513267Y-89132756D01*
X127516089Y-89135578D01*
X130113578Y-89135578D01*
X130114179Y-89134764D01*
X130123066Y-89118645D01*
X127499156Y-89118645D01*
X127496333Y-89121467D01*
X127493511Y-89118645D01*
X127496333Y-89115823D01*
X127499156Y-89118645D01*
X130123066Y-89118645D01*
X130131401Y-89103529D01*
X130149998Y-89062284D01*
X130162688Y-89024398D01*
X130170365Y-88985902D01*
X130173924Y-88942829D01*
X130174455Y-88912623D01*
X130174435Y-88911900D01*
X129914159Y-88911900D01*
X129909729Y-88953637D01*
X129895633Y-88990025D01*
X129871891Y-89020918D01*
X129838520Y-89046169D01*
X129795541Y-89065633D01*
X129785666Y-89068858D01*
X129762730Y-89075312D01*
X129740543Y-89079959D01*
X129716005Y-89083222D01*
X129686018Y-89085529D01*
X129652511Y-89087109D01*
X129641122Y-89087331D01*
X129618824Y-89087543D01*
X129585998Y-89087745D01*
X129543026Y-89087936D01*
X129490288Y-89088116D01*
X129428164Y-89088284D01*
X129357036Y-89088441D01*
X129277284Y-89088586D01*
X129189288Y-89088719D01*
X129093430Y-89088839D01*
X128990090Y-89088946D01*
X128879649Y-89089041D01*
X128762487Y-89089122D01*
X128638986Y-89089189D01*
X128509525Y-89089242D01*
X128374486Y-89089281D01*
X128234250Y-89089305D01*
X128089196Y-89089315D01*
X127939706Y-89089309D01*
X127786161Y-89089288D01*
X127628940Y-89089252D01*
X127468426Y-89089199D01*
X127304998Y-89089130D01*
X127139037Y-89089044D01*
X127130628Y-89089039D01*
X126930199Y-89088922D01*
X126740753Y-89088803D01*
X126561986Y-89088680D01*
X126393593Y-89088554D01*
X126235267Y-89088422D01*
X126086705Y-89088283D01*
X125947600Y-89088137D01*
X125817649Y-89087981D01*
X125696545Y-89087816D01*
X125583983Y-89087639D01*
X125479659Y-89087450D01*
X125383267Y-89087247D01*
X125294502Y-89087029D01*
X125213059Y-89086795D01*
X125138633Y-89086544D01*
X125070918Y-89086274D01*
X125009609Y-89085985D01*
X124954402Y-89085675D01*
X124904990Y-89085343D01*
X124861070Y-89084989D01*
X124822335Y-89084609D01*
X124788481Y-89084205D01*
X124759202Y-89083773D01*
X124734193Y-89083314D01*
X124713150Y-89082826D01*
X124695767Y-89082307D01*
X124681738Y-89081757D01*
X124670759Y-89081175D01*
X124662524Y-89080558D01*
X124656729Y-89079907D01*
X124654075Y-89079454D01*
X124601561Y-89064506D01*
X124558649Y-89043693D01*
X124525433Y-89017233D01*
X124502002Y-88985343D01*
X124488450Y-88948238D01*
X124484867Y-88906137D01*
X124491346Y-88859255D01*
X124507977Y-88807809D01*
X124524131Y-88772311D01*
X124535711Y-88750109D01*
X124551121Y-88721720D01*
X124568423Y-88690661D01*
X124585682Y-88660449D01*
X124587118Y-88657975D01*
X124604364Y-88628213D01*
X124622019Y-88597569D01*
X124638110Y-88569479D01*
X124650664Y-88547378D01*
X124651590Y-88545734D01*
X124664195Y-88523386D01*
X124676173Y-88502238D01*
X124685322Y-88486172D01*
X124686772Y-88483645D01*
X124701805Y-88457550D01*
X124721464Y-88423500D01*
X124744704Y-88383303D01*
X124770480Y-88338765D01*
X124797744Y-88291691D01*
X124825452Y-88243888D01*
X124852557Y-88197163D01*
X124878014Y-88153321D01*
X124882862Y-88144978D01*
X124904921Y-88106964D01*
X124927651Y-88067696D01*
X124950049Y-88028913D01*
X124971113Y-87992355D01*
X124989841Y-87959764D01*
X125005230Y-87932880D01*
X125016278Y-87913443D01*
X125018793Y-87908972D01*
X125028503Y-87891784D01*
X125041874Y-87868329D01*
X125058058Y-87840073D01*
X125076209Y-87808481D01*
X125095480Y-87775018D01*
X125115024Y-87741152D01*
X125133995Y-87708346D01*
X125151546Y-87678067D01*
X125166831Y-87651781D01*
X125179003Y-87630953D01*
X125187215Y-87617049D01*
X125190585Y-87611578D01*
X125194850Y-87604756D01*
X125203433Y-87590109D01*
X125215158Y-87569674D01*
X125228849Y-87545486D01*
X125231357Y-87541023D01*
X125245315Y-87516382D01*
X125263533Y-87484558D01*
X125284542Y-87448095D01*
X125306876Y-87409539D01*
X125329066Y-87371435D01*
X125335518Y-87360400D01*
X125357818Y-87322176D01*
X125381114Y-87282028D01*
X125403827Y-87242695D01*
X125424374Y-87206918D01*
X125441174Y-87177436D01*
X125444637Y-87171312D01*
X125461646Y-87141302D01*
X125478997Y-87110937D01*
X125494863Y-87083395D01*
X125507418Y-87061858D01*
X125509447Y-87058423D01*
X125523896Y-87033768D01*
X125539153Y-87007304D01*
X125551757Y-86985045D01*
X125561359Y-86968079D01*
X125575133Y-86944065D01*
X125591533Y-86915685D01*
X125609009Y-86885625D01*
X125616875Y-86872156D01*
X125640783Y-86831152D01*
X125669804Y-86781153D01*
X125703466Y-86722976D01*
X125741296Y-86657437D01*
X125782824Y-86585354D01*
X125827578Y-86507542D01*
X125848342Y-86471400D01*
X125893690Y-86392471D01*
X125933662Y-86322954D01*
X125968483Y-86262458D01*
X125998380Y-86210595D01*
X126023577Y-86166975D01*
X126044298Y-86131208D01*
X126060770Y-86102903D01*
X126073218Y-86081672D01*
X126080426Y-86069522D01*
X126095547Y-86043889D01*
X126112625Y-86014385D01*
X126128179Y-85987030D01*
X126129399Y-85984855D01*
X126139108Y-85967677D01*
X126153382Y-85942641D01*
X126171125Y-85911658D01*
X126191242Y-85876638D01*
X126212638Y-85839491D01*
X126229087Y-85811000D01*
X126254693Y-85766664D01*
X126283841Y-85716136D01*
X126314459Y-85663016D01*
X126344470Y-85610904D01*
X126371801Y-85563398D01*
X126380346Y-85548534D01*
X126401594Y-85511586D01*
X126421973Y-85476200D01*
X126440513Y-85444058D01*
X126456241Y-85416845D01*
X126468186Y-85396243D01*
X126474839Y-85384845D01*
X126485953Y-85365864D01*
X126501159Y-85339761D01*
X126518914Y-85309199D01*
X126537677Y-85276838D01*
X126555903Y-85245339D01*
X126572052Y-85217364D01*
X126584579Y-85195572D01*
X126586090Y-85192934D01*
X126592645Y-85181515D01*
X126603977Y-85161826D01*
X126619216Y-85135374D01*
X126637494Y-85103665D01*
X126657943Y-85068206D01*
X126679694Y-85030504D01*
X126683678Y-85023600D01*
X126705665Y-84985469D01*
X126726582Y-84949138D01*
X126745541Y-84916151D01*
X126761657Y-84888050D01*
X126774044Y-84866381D01*
X126781815Y-84852685D01*
X126782597Y-84851292D01*
X126790744Y-84836913D01*
X126803262Y-84815068D01*
X126818833Y-84788045D01*
X126836141Y-84758130D01*
X126849231Y-84735581D01*
X126869686Y-84700366D01*
X126891973Y-84661943D01*
X126913917Y-84624065D01*
X126933341Y-84590485D01*
X126940732Y-84577689D01*
X126971575Y-84524904D01*
X126998123Y-84481121D01*
X127021208Y-84445287D01*
X127041662Y-84416345D01*
X127060317Y-84393243D01*
X127078005Y-84374924D01*
X127095557Y-84360334D01*
X127113807Y-84348419D01*
X127127294Y-84341178D01*
X127161851Y-84326572D01*
X127192052Y-84320201D01*
X127220844Y-84321690D01*
X127240534Y-84326806D01*
X127269252Y-84338051D01*
X127293923Y-84352243D01*
X127317802Y-84371636D01*
X127344145Y-84398483D01*
X127344312Y-84398666D01*
X127352045Y-84407415D01*
X127359880Y-84417033D01*
X127368306Y-84428322D01*
X127377810Y-84442082D01*
X127388881Y-84459113D01*
X127402007Y-84480216D01*
X127417677Y-84506192D01*
X127436378Y-84537841D01*
X127458600Y-84575964D01*
X127484830Y-84621360D01*
X127515556Y-84674831D01*
X127551268Y-84737177D01*
X127558422Y-84749682D01*
X127582075Y-84790925D01*
X127611264Y-84841635D01*
X127645828Y-84901534D01*
X127685606Y-84970344D01*
X127730437Y-85047787D01*
X127770391Y-85116734D01*
X127790686Y-85151844D01*
X127811906Y-85188734D01*
X127832299Y-85224343D01*
X127850110Y-85255611D01*
X127860949Y-85274778D01*
X127878474Y-85305569D01*
X127898066Y-85339416D01*
X127916938Y-85371533D01*
X127928270Y-85390489D01*
X127945057Y-85418639D01*
X127962980Y-85449277D01*
X127979217Y-85477558D01*
X127985802Y-85489267D01*
X128004124Y-85522085D01*
X128019011Y-85548476D01*
X128032456Y-85571913D01*
X128046454Y-85595866D01*
X128062999Y-85623806D01*
X128065229Y-85627556D01*
X128080614Y-85653659D01*
X128096669Y-85681287D01*
X128110613Y-85705643D01*
X128114321Y-85712223D01*
X128122134Y-85726014D01*
X128134754Y-85748101D01*
X128151334Y-85777012D01*
X128171027Y-85811270D01*
X128192986Y-85849403D01*
X128216364Y-85889937D01*
X128231082Y-85915423D01*
X128258685Y-85963240D01*
X128288735Y-86015369D01*
X128319657Y-86069071D01*
X128349872Y-86121606D01*
X128377805Y-86170233D01*
X128401879Y-86212214D01*
X128404849Y-86217400D01*
X128426828Y-86255711D01*
X128448492Y-86293330D01*
X128468760Y-86328388D01*
X128486547Y-86359016D01*
X128500773Y-86383346D01*
X128509462Y-86398023D01*
X128519672Y-86415295D01*
X128534388Y-86440507D01*
X128552528Y-86471789D01*
X128573010Y-86507271D01*
X128594753Y-86545083D01*
X128613981Y-86578645D01*
X128636149Y-86617360D01*
X128658183Y-86655754D01*
X128678957Y-86691869D01*
X128697344Y-86723750D01*
X128712218Y-86749439D01*
X128721237Y-86764912D01*
X128733950Y-86786715D01*
X128750680Y-86815586D01*
X128769846Y-86848786D01*
X128789867Y-86883579D01*
X128805980Y-86911667D01*
X128824549Y-86944060D01*
X128842646Y-86975576D01*
X128858966Y-87003948D01*
X128872207Y-87026909D01*
X128880653Y-87041489D01*
X128893436Y-87063600D01*
X128906355Y-87086193D01*
X128914582Y-87100756D01*
X128924677Y-87118406D01*
X128937915Y-87141031D01*
X128951562Y-87163963D01*
X128952587Y-87165667D01*
X128964566Y-87185758D01*
X128978671Y-87209806D01*
X128995527Y-87238897D01*
X129015759Y-87274118D01*
X129039994Y-87316556D01*
X129068856Y-87367298D01*
X129082564Y-87391445D01*
X129100081Y-87422157D01*
X129120940Y-87458480D01*
X129142764Y-87496290D01*
X129163179Y-87531465D01*
X129167105Y-87538200D01*
X129184000Y-87567234D01*
X129200028Y-87594918D01*
X129213810Y-87618861D01*
X129223968Y-87636672D01*
X129227309Y-87642623D01*
X129235391Y-87656935D01*
X129247656Y-87678348D01*
X129262585Y-87704222D01*
X129278658Y-87731915D01*
X129282539Y-87738578D01*
X129460533Y-88046200D01*
X129507614Y-88128187D01*
X129549383Y-88200896D01*
X129586139Y-88264844D01*
X129618180Y-88320550D01*
X129645805Y-88368532D01*
X129669312Y-88409308D01*
X129689000Y-88443396D01*
X129705169Y-88471312D01*
X129718115Y-88493576D01*
X129728139Y-88510706D01*
X129735538Y-88523218D01*
X129737188Y-88525978D01*
X129752440Y-88551892D01*
X129769065Y-88580874D01*
X129782549Y-88605000D01*
X129795580Y-88628126D01*
X129811839Y-88656064D01*
X129828547Y-88684065D01*
X129834833Y-88694380D01*
X129869259Y-88756054D01*
X129893943Y-88812963D01*
X129908903Y-88864960D01*
X129914159Y-88911900D01*
X130174435Y-88911900D01*
X130173278Y-88871438D01*
X130169394Y-88832546D01*
X130162273Y-88794414D01*
X130151388Y-88755510D01*
X130136210Y-88714299D01*
X130116210Y-88669249D01*
X130090859Y-88618828D01*
X130059629Y-88561503D01*
X130043551Y-88533106D01*
X130011508Y-88477057D01*
X129984257Y-88429450D01*
X129961005Y-88388916D01*
X129940958Y-88354087D01*
X129923325Y-88323595D01*
X129907312Y-88296069D01*
X129892125Y-88270143D01*
X129876974Y-88244446D01*
X129861064Y-88217611D01*
X129850768Y-88200300D01*
X129834747Y-88173059D01*
X129816961Y-88142319D01*
X129801090Y-88114443D01*
X129800172Y-88112811D01*
X129790256Y-88095253D01*
X129777116Y-88072161D01*
X129760387Y-88042900D01*
X129739705Y-88006834D01*
X129714704Y-87963327D01*
X129685019Y-87911744D01*
X129650287Y-87851448D01*
X129624270Y-87806312D01*
X129611448Y-87784121D01*
X129594750Y-87755294D01*
X129575982Y-87722947D01*
X129556952Y-87690196D01*
X129548978Y-87676489D01*
X129532030Y-87647306D01*
X129516120Y-87619801D01*
X129502538Y-87596207D01*
X129492570Y-87578759D01*
X129488803Y-87572067D01*
X129466291Y-87531903D01*
X129444449Y-87493606D01*
X129424958Y-87460097D01*
X129412622Y-87439423D01*
X129399593Y-87417560D01*
X129384659Y-87391942D01*
X129373083Y-87371689D01*
X129363019Y-87354035D01*
X129348772Y-87329277D01*
X129331865Y-87300052D01*
X129313822Y-87268997D01*
X129303477Y-87251256D01*
X129287485Y-87223779D01*
X129273687Y-87199899D01*
X129263004Y-87181228D01*
X129256362Y-87169379D01*
X129254578Y-87165891D01*
X129251907Y-87160690D01*
X129244597Y-87147600D01*
X129233700Y-87128480D01*
X129220268Y-87105187D01*
X129217293Y-87100057D01*
X129199119Y-87068678D01*
X129178102Y-87032268D01*
X129156995Y-86995601D01*
X129140449Y-86966765D01*
X129125148Y-86940980D01*
X129111942Y-86920515D01*
X129101821Y-86906798D01*
X129095776Y-86901256D01*
X129095017Y-86901315D01*
X129091829Y-86901293D01*
X129092968Y-86898758D01*
X129091369Y-86892283D01*
X129084769Y-86877577D01*
X129073929Y-86856116D01*
X129059606Y-86829377D01*
X129042559Y-86798840D01*
X129033817Y-86783586D01*
X129012234Y-86746221D01*
X128989523Y-86706883D01*
X128967347Y-86668454D01*
X128947368Y-86633814D01*
X128931249Y-86605843D01*
X128930214Y-86604045D01*
X128911840Y-86572196D01*
X128891848Y-86537634D01*
X128872650Y-86504528D01*
X128856660Y-86477045D01*
X128840095Y-86448448D01*
X128822432Y-86417631D01*
X128806306Y-86389207D01*
X128798590Y-86375445D01*
X128786073Y-86353132D01*
X128771123Y-86326731D01*
X128755196Y-86298789D01*
X128739750Y-86271850D01*
X128726243Y-86248461D01*
X128716130Y-86231166D01*
X128712965Y-86225867D01*
X128708211Y-86217749D01*
X128699216Y-86202164D01*
X128687327Y-86181454D01*
X128675603Y-86160956D01*
X128658148Y-86130679D01*
X128638321Y-86096737D01*
X128619290Y-86064540D01*
X128611126Y-86050889D01*
X128595788Y-86025089D01*
X128580637Y-85999097D01*
X128567846Y-85976668D01*
X128562069Y-85966223D01*
X128550796Y-85945977D01*
X128536462Y-85921023D01*
X128521899Y-85896280D01*
X128519842Y-85892845D01*
X128505123Y-85867973D01*
X128489844Y-85841584D01*
X128477039Y-85818927D01*
X128475778Y-85816645D01*
X128465515Y-85798324D01*
X128451393Y-85773539D01*
X128435280Y-85745553D01*
X128419185Y-85717867D01*
X128404937Y-85693369D01*
X128386554Y-85661572D01*
X128365480Y-85624988D01*
X128343163Y-85586128D01*
X128321049Y-85547506D01*
X128313575Y-85534423D01*
X128289804Y-85492911D01*
X128263368Y-85446964D01*
X128236264Y-85400036D01*
X128210485Y-85355580D01*
X128188027Y-85317050D01*
X128185504Y-85312739D01*
X128166635Y-85280464D01*
X128148942Y-85250104D01*
X128133503Y-85223512D01*
X128121392Y-85202542D01*
X128113685Y-85189048D01*
X128112693Y-85187277D01*
X128103231Y-85170464D01*
X128089219Y-85145835D01*
X128071775Y-85115336D01*
X128052018Y-85080914D01*
X128031067Y-85044515D01*
X128010040Y-85008084D01*
X127990056Y-84973569D01*
X127973202Y-84944578D01*
X127957595Y-84917722D01*
X127942675Y-84891911D01*
X127930086Y-84869995D01*
X127921470Y-84854824D01*
X127921158Y-84854267D01*
X127910466Y-84835356D01*
X127897327Y-84812393D01*
X127887282Y-84795000D01*
X127876165Y-84775835D01*
X127860304Y-84748467D01*
X127840609Y-84714466D01*
X127817989Y-84675401D01*
X127793351Y-84632842D01*
X127767604Y-84588360D01*
X127741658Y-84543523D01*
X127716420Y-84499901D01*
X127692800Y-84459064D01*
X127671706Y-84422581D01*
X127671639Y-84422467D01*
X127642520Y-84372730D01*
X127617480Y-84331529D01*
X127595460Y-84297349D01*
X127575401Y-84268674D01*
X127556245Y-84243987D01*
X127536933Y-84221773D01*
X127517136Y-84201240D01*
X127489282Y-84175776D01*
X127457197Y-84149975D01*
X127423766Y-84125899D01*
X127391875Y-84105608D01*
X127364411Y-84091163D01*
X127360867Y-84089634D01*
X127308722Y-84072675D01*
X127251711Y-84062326D01*
X127193419Y-84058870D01*
X127137429Y-84062590D01*
X127137429Y-84062590D01*
G37*
X127137429Y-84062590D02*
X127102771Y-84069293D01*
X127057312Y-84084309D01*
X127009882Y-84105867D01*
X126965428Y-84131588D01*
X126947958Y-84143705D01*
X126925559Y-84162096D01*
X126899324Y-84186470D01*
X126872240Y-84213817D01*
X126847292Y-84241128D01*
X126828197Y-84264423D01*
X126815604Y-84281054D01*
X126803926Y-84296419D01*
X126800344Y-84301112D01*
X126793178Y-84311662D01*
X126782064Y-84329390D01*
X126768630Y-84351657D01*
X126756897Y-84371667D01*
X126736318Y-84407274D01*
X126713829Y-84446246D01*
X126690223Y-84487203D01*
X126666292Y-84528768D01*
X126642828Y-84569563D01*
X126620623Y-84608208D01*
X126600469Y-84643325D01*
X126583159Y-84673537D01*
X126569485Y-84697464D01*
X126560238Y-84713729D01*
X126557387Y-84718800D01*
X126549457Y-84732826D01*
X126536294Y-84755824D01*
X126518351Y-84787015D01*
X126496079Y-84825618D01*
X126469928Y-84870851D01*
X126440350Y-84921935D01*
X126407796Y-84978087D01*
X126372717Y-85038527D01*
X126360897Y-85058878D01*
X126337415Y-85099331D01*
X126317468Y-85133751D01*
X126301767Y-85160909D01*
X126291023Y-85179578D01*
X126290813Y-85179945D01*
X126283954Y-85191916D01*
X126273009Y-85211013D01*
X126259507Y-85234569D01*
X126245520Y-85258968D01*
X126229299Y-85287277D01*
X126212519Y-85316592D01*
X126197391Y-85343049D01*
X126188028Y-85359445D01*
X126174130Y-85383654D01*
X126159411Y-85409048D01*
X126147135Y-85430000D01*
X126137402Y-85446542D01*
X126128263Y-85462301D01*
X126118200Y-85479938D01*
X126105695Y-85502112D01*
X126089230Y-85531484D01*
X126089165Y-85531600D01*
X126081127Y-85545689D01*
X126068808Y-85566949D01*
X126053687Y-85592844D01*
X126037242Y-85620835D01*
X126031613Y-85630378D01*
X126014714Y-85659142D01*
X125998329Y-85687302D01*
X125984050Y-85712101D01*
X125973470Y-85730784D01*
X125971247Y-85734800D01*
X125962461Y-85750478D01*
X125949383Y-85773383D01*
X125933450Y-85801018D01*
X125916100Y-85830886D01*
X125906281Y-85847689D01*
X125886452Y-85881644D01*
X125863280Y-85921481D01*
X125839035Y-85963285D01*
X125815989Y-86003146D01*
X125804737Y-86022667D01*
X125787319Y-86052901D01*
X125765629Y-86090507D01*
X125741051Y-86133086D01*
X125714971Y-86178243D01*
X125688772Y-86223578D01*
X125664600Y-86265378D01*
X125640669Y-86306770D01*
X125616480Y-86348654D01*
X125593192Y-86389017D01*
X125571966Y-86425847D01*
X125553963Y-86457129D01*
X125540344Y-86480853D01*
X125539293Y-86482689D01*
X125524705Y-86508099D01*
X125511795Y-86530455D01*
X125501765Y-86547687D01*
X125495816Y-86557721D01*
X125495090Y-86558889D01*
X125490755Y-86566153D01*
X125481727Y-86581637D01*
X125468918Y-86603763D01*
X125453242Y-86630952D01*
X125435611Y-86661625D01*
X125429786Y-86671778D01*
X125411228Y-86704121D01*
X125393876Y-86734325D01*
X125378767Y-86760589D01*
X125366936Y-86781113D01*
X125359421Y-86794094D01*
X125358335Y-86795956D01*
X125350228Y-86810048D01*
X125338726Y-86830353D01*
X125325901Y-86853207D01*
X125321630Y-86860867D01*
X125300643Y-86898277D01*
X125280195Y-86934191D01*
X125261615Y-86966300D01*
X125246235Y-86992297D01*
X125238599Y-87004800D01*
X125230974Y-87017437D01*
X125219362Y-87037172D01*
X125205351Y-87061285D01*
X125190767Y-87086645D01*
X125175281Y-87113649D01*
X125156092Y-87147001D01*
X125135168Y-87183288D01*
X125114477Y-87219096D01*
X125104562Y-87236223D01*
X125090419Y-87260667D01*
X125071587Y-87293270D01*
X125049002Y-87332407D01*
X125023603Y-87376450D01*
X124996328Y-87423773D01*
X124968115Y-87472749D01*
X124939902Y-87521752D01*
X124932059Y-87535378D01*
X124889652Y-87609057D01*
X124852191Y-87674120D01*
X124819000Y-87731737D01*
X124789401Y-87783083D01*
X124762720Y-87829328D01*
X124738280Y-87871645D01*
X124715403Y-87911207D01*
X124693413Y-87949185D01*
X124671635Y-87986752D01*
X124661704Y-88003867D01*
X124647628Y-88028186D01*
X124628867Y-88060693D01*
X124606349Y-88099778D01*
X124580998Y-88143833D01*
X124553740Y-88191248D01*
X124525501Y-88240415D01*
X124497207Y-88289725D01*
X124487964Y-88305845D01*
X124461882Y-88351269D01*
X124437237Y-88394056D01*
X124414657Y-88433126D01*
X124394769Y-88467398D01*
X124378202Y-88495792D01*
X124365584Y-88517226D01*
X124357544Y-88530620D01*
X124355110Y-88534445D01*
X124344530Y-88551364D01*
X124330739Y-88576001D01*
X124315049Y-88605734D01*
X124298774Y-88637937D01*
X124283225Y-88669987D01*
X124269714Y-88699260D01*
X124259556Y-88723131D01*
X124256027Y-88732557D01*
X124239039Y-88793424D01*
X124228617Y-88856942D01*
X124225018Y-88919974D01*
X124228497Y-88979383D01*
X124233427Y-89008935D01*
X124252387Y-89072534D01*
X124280884Y-89130425D01*
X124318538Y-89182296D01*
X124364972Y-89227835D01*
X124419807Y-89266731D01*
X124482663Y-89298671D01*
X124553162Y-89323345D01*
X124630926Y-89340440D01*
X124637422Y-89341466D01*
X124644230Y-89342038D01*
X124657172Y-89342583D01*
X124676466Y-89343100D01*
X124702328Y-89343592D01*
X124734978Y-89344058D01*
X124774632Y-89344499D01*
X124821508Y-89344915D01*
X124875824Y-89345309D01*
X124937798Y-89345679D01*
X125007647Y-89346027D01*
X125085589Y-89346354D01*
X125171843Y-89346660D01*
X125266624Y-89346946D01*
X125370152Y-89347212D01*
X125482644Y-89347460D01*
X125604317Y-89347689D01*
X125735389Y-89347901D01*
X125876079Y-89348096D01*
X126026603Y-89348275D01*
X126187180Y-89348439D01*
X126358027Y-89348588D01*
X126539361Y-89348722D01*
X126731402Y-89348844D01*
X126934365Y-89348952D01*
X127078644Y-89349019D01*
X127244067Y-89349083D01*
X127407261Y-89349130D01*
X127567830Y-89349161D01*
X127725376Y-89349175D01*
X127879501Y-89349173D01*
X128029808Y-89349155D01*
X128175899Y-89349123D01*
X128317376Y-89349075D01*
X128453842Y-89349013D01*
X128584899Y-89348937D01*
X128710149Y-89348848D01*
X128829195Y-89348745D01*
X128941640Y-89348629D01*
X129047084Y-89348500D01*
X129145131Y-89348359D01*
X129235384Y-89348207D01*
X129317443Y-89348042D01*
X129390913Y-89347867D01*
X129455395Y-89347681D01*
X129510491Y-89347484D01*
X129555804Y-89347278D01*
X129590936Y-89347062D01*
X129615490Y-89346836D01*
X129627111Y-89346653D01*
X129673149Y-89345533D01*
X129709701Y-89344411D01*
X129738570Y-89343127D01*
X129761558Y-89341518D01*
X129780468Y-89339423D01*
X129797103Y-89336682D01*
X129813264Y-89333131D01*
X129830754Y-89328611D01*
X129831805Y-89328327D01*
X129884994Y-89310556D01*
X126675067Y-89310556D01*
X126672244Y-89313378D01*
X126669422Y-89310556D01*
X126672244Y-89307734D01*
X126675067Y-89310556D01*
X129884994Y-89310556D01*
X129905832Y-89303594D01*
X129971143Y-89271826D01*
X129972282Y-89271045D01*
X127651556Y-89271045D01*
X127648733Y-89273867D01*
X127645911Y-89271045D01*
X127648733Y-89268223D01*
X127651556Y-89271045D01*
X129972282Y-89271045D01*
X130027678Y-89233068D01*
X130035170Y-89225889D01*
X127606400Y-89225889D01*
X127603578Y-89228712D01*
X127600756Y-89225889D01*
X127603578Y-89223067D01*
X127606400Y-89225889D01*
X130035170Y-89225889D01*
X130075376Y-89187366D01*
X130080268Y-89180734D01*
X127561244Y-89180734D01*
X127558422Y-89183556D01*
X127555600Y-89180734D01*
X127558422Y-89177912D01*
X127561244Y-89180734D01*
X130080268Y-89180734D01*
X130113578Y-89135578D01*
X127516089Y-89135578D01*
X127513267Y-89138400D01*
X127510444Y-89135578D01*
X127513267Y-89132756D01*
X127516089Y-89135578D01*
X130113578Y-89135578D01*
X130114179Y-89134764D01*
X130123066Y-89118645D01*
X127499156Y-89118645D01*
X127496333Y-89121467D01*
X127493511Y-89118645D01*
X127496333Y-89115823D01*
X127499156Y-89118645D01*
X130123066Y-89118645D01*
X130131401Y-89103529D01*
X130149998Y-89062284D01*
X130162688Y-89024398D01*
X130170365Y-88985902D01*
X130173924Y-88942829D01*
X130174455Y-88912623D01*
X130174435Y-88911900D01*
X129914159Y-88911900D01*
X129909729Y-88953637D01*
X129895633Y-88990025D01*
X129871891Y-89020918D01*
X129838520Y-89046169D01*
X129795541Y-89065633D01*
X129785666Y-89068858D01*
X129762730Y-89075312D01*
X129740543Y-89079959D01*
X129716005Y-89083222D01*
X129686018Y-89085529D01*
X129652511Y-89087109D01*
X129641122Y-89087331D01*
X129618824Y-89087543D01*
X129585998Y-89087745D01*
X129543026Y-89087936D01*
X129490288Y-89088116D01*
X129428164Y-89088284D01*
X129357036Y-89088441D01*
X129277284Y-89088586D01*
X129189288Y-89088719D01*
X129093430Y-89088839D01*
X128990090Y-89088946D01*
X128879649Y-89089041D01*
X128762487Y-89089122D01*
X128638986Y-89089189D01*
X128509525Y-89089242D01*
X128374486Y-89089281D01*
X128234250Y-89089305D01*
X128089196Y-89089315D01*
X127939706Y-89089309D01*
X127786161Y-89089288D01*
X127628940Y-89089252D01*
X127468426Y-89089199D01*
X127304998Y-89089130D01*
X127139037Y-89089044D01*
X127130628Y-89089039D01*
X126930199Y-89088922D01*
X126740753Y-89088803D01*
X126561986Y-89088680D01*
X126393593Y-89088554D01*
X126235267Y-89088422D01*
X126086705Y-89088283D01*
X125947600Y-89088137D01*
X125817649Y-89087981D01*
X125696545Y-89087816D01*
X125583983Y-89087639D01*
X125479659Y-89087450D01*
X125383267Y-89087247D01*
X125294502Y-89087029D01*
X125213059Y-89086795D01*
X125138633Y-89086544D01*
X125070918Y-89086274D01*
X125009609Y-89085985D01*
X124954402Y-89085675D01*
X124904990Y-89085343D01*
X124861070Y-89084989D01*
X124822335Y-89084609D01*
X124788481Y-89084205D01*
X124759202Y-89083773D01*
X124734193Y-89083314D01*
X124713150Y-89082826D01*
X124695767Y-89082307D01*
X124681738Y-89081757D01*
X124670759Y-89081175D01*
X124662524Y-89080558D01*
X124656729Y-89079907D01*
X124654075Y-89079454D01*
X124601561Y-89064506D01*
X124558649Y-89043693D01*
X124525433Y-89017233D01*
X124502002Y-88985343D01*
X124488450Y-88948238D01*
X124484867Y-88906137D01*
X124491346Y-88859255D01*
X124507977Y-88807809D01*
X124524131Y-88772311D01*
X124535711Y-88750109D01*
X124551121Y-88721720D01*
X124568423Y-88690661D01*
X124585682Y-88660449D01*
X124587118Y-88657975D01*
X124604364Y-88628213D01*
X124622019Y-88597569D01*
X124638110Y-88569479D01*
X124650664Y-88547378D01*
X124651590Y-88545734D01*
X124664195Y-88523386D01*
X124676173Y-88502238D01*
X124685322Y-88486172D01*
X124686772Y-88483645D01*
X124701805Y-88457550D01*
X124721464Y-88423500D01*
X124744704Y-88383303D01*
X124770480Y-88338765D01*
X124797744Y-88291691D01*
X124825452Y-88243888D01*
X124852557Y-88197163D01*
X124878014Y-88153321D01*
X124882862Y-88144978D01*
X124904921Y-88106964D01*
X124927651Y-88067696D01*
X124950049Y-88028913D01*
X124971113Y-87992355D01*
X124989841Y-87959764D01*
X125005230Y-87932880D01*
X125016278Y-87913443D01*
X125018793Y-87908972D01*
X125028503Y-87891784D01*
X125041874Y-87868329D01*
X125058058Y-87840073D01*
X125076209Y-87808481D01*
X125095480Y-87775018D01*
X125115024Y-87741152D01*
X125133995Y-87708346D01*
X125151546Y-87678067D01*
X125166831Y-87651781D01*
X125179003Y-87630953D01*
X125187215Y-87617049D01*
X125190585Y-87611578D01*
X125194850Y-87604756D01*
X125203433Y-87590109D01*
X125215158Y-87569674D01*
X125228849Y-87545486D01*
X125231357Y-87541023D01*
X125245315Y-87516382D01*
X125263533Y-87484558D01*
X125284542Y-87448095D01*
X125306876Y-87409539D01*
X125329066Y-87371435D01*
X125335518Y-87360400D01*
X125357818Y-87322176D01*
X125381114Y-87282028D01*
X125403827Y-87242695D01*
X125424374Y-87206918D01*
X125441174Y-87177436D01*
X125444637Y-87171312D01*
X125461646Y-87141302D01*
X125478997Y-87110937D01*
X125494863Y-87083395D01*
X125507418Y-87061858D01*
X125509447Y-87058423D01*
X125523896Y-87033768D01*
X125539153Y-87007304D01*
X125551757Y-86985045D01*
X125561359Y-86968079D01*
X125575133Y-86944065D01*
X125591533Y-86915685D01*
X125609009Y-86885625D01*
X125616875Y-86872156D01*
X125640783Y-86831152D01*
X125669804Y-86781153D01*
X125703466Y-86722976D01*
X125741296Y-86657437D01*
X125782824Y-86585354D01*
X125827578Y-86507542D01*
X125848342Y-86471400D01*
X125893690Y-86392471D01*
X125933662Y-86322954D01*
X125968483Y-86262458D01*
X125998380Y-86210595D01*
X126023577Y-86166975D01*
X126044298Y-86131208D01*
X126060770Y-86102903D01*
X126073218Y-86081672D01*
X126080426Y-86069522D01*
X126095547Y-86043889D01*
X126112625Y-86014385D01*
X126128179Y-85987030D01*
X126129399Y-85984855D01*
X126139108Y-85967677D01*
X126153382Y-85942641D01*
X126171125Y-85911658D01*
X126191242Y-85876638D01*
X126212638Y-85839491D01*
X126229087Y-85811000D01*
X126254693Y-85766664D01*
X126283841Y-85716136D01*
X126314459Y-85663016D01*
X126344470Y-85610904D01*
X126371801Y-85563398D01*
X126380346Y-85548534D01*
X126401594Y-85511586D01*
X126421973Y-85476200D01*
X126440513Y-85444058D01*
X126456241Y-85416845D01*
X126468186Y-85396243D01*
X126474839Y-85384845D01*
X126485953Y-85365864D01*
X126501159Y-85339761D01*
X126518914Y-85309199D01*
X126537677Y-85276838D01*
X126555903Y-85245339D01*
X126572052Y-85217364D01*
X126584579Y-85195572D01*
X126586090Y-85192934D01*
X126592645Y-85181515D01*
X126603977Y-85161826D01*
X126619216Y-85135374D01*
X126637494Y-85103665D01*
X126657943Y-85068206D01*
X126679694Y-85030504D01*
X126683678Y-85023600D01*
X126705665Y-84985469D01*
X126726582Y-84949138D01*
X126745541Y-84916151D01*
X126761657Y-84888050D01*
X126774044Y-84866381D01*
X126781815Y-84852685D01*
X126782597Y-84851292D01*
X126790744Y-84836913D01*
X126803262Y-84815068D01*
X126818833Y-84788045D01*
X126836141Y-84758130D01*
X126849231Y-84735581D01*
X126869686Y-84700366D01*
X126891973Y-84661943D01*
X126913917Y-84624065D01*
X126933341Y-84590485D01*
X126940732Y-84577689D01*
X126971575Y-84524904D01*
X126998123Y-84481121D01*
X127021208Y-84445287D01*
X127041662Y-84416345D01*
X127060317Y-84393243D01*
X127078005Y-84374924D01*
X127095557Y-84360334D01*
X127113807Y-84348419D01*
X127127294Y-84341178D01*
X127161851Y-84326572D01*
X127192052Y-84320201D01*
X127220844Y-84321690D01*
X127240534Y-84326806D01*
X127269252Y-84338051D01*
X127293923Y-84352243D01*
X127317802Y-84371636D01*
X127344145Y-84398483D01*
X127344312Y-84398666D01*
X127352045Y-84407415D01*
X127359880Y-84417033D01*
X127368306Y-84428322D01*
X127377810Y-84442082D01*
X127388881Y-84459113D01*
X127402007Y-84480216D01*
X127417677Y-84506192D01*
X127436378Y-84537841D01*
X127458600Y-84575964D01*
X127484830Y-84621360D01*
X127515556Y-84674831D01*
X127551268Y-84737177D01*
X127558422Y-84749682D01*
X127582075Y-84790925D01*
X127611264Y-84841635D01*
X127645828Y-84901534D01*
X127685606Y-84970344D01*
X127730437Y-85047787D01*
X127770391Y-85116734D01*
X127790686Y-85151844D01*
X127811906Y-85188734D01*
X127832299Y-85224343D01*
X127850110Y-85255611D01*
X127860949Y-85274778D01*
X127878474Y-85305569D01*
X127898066Y-85339416D01*
X127916938Y-85371533D01*
X127928270Y-85390489D01*
X127945057Y-85418639D01*
X127962980Y-85449277D01*
X127979217Y-85477558D01*
X127985802Y-85489267D01*
X128004124Y-85522085D01*
X128019011Y-85548476D01*
X128032456Y-85571913D01*
X128046454Y-85595866D01*
X128062999Y-85623806D01*
X128065229Y-85627556D01*
X128080614Y-85653659D01*
X128096669Y-85681287D01*
X128110613Y-85705643D01*
X128114321Y-85712223D01*
X128122134Y-85726014D01*
X128134754Y-85748101D01*
X128151334Y-85777012D01*
X128171027Y-85811270D01*
X128192986Y-85849403D01*
X128216364Y-85889937D01*
X128231082Y-85915423D01*
X128258685Y-85963240D01*
X128288735Y-86015369D01*
X128319657Y-86069071D01*
X128349872Y-86121606D01*
X128377805Y-86170233D01*
X128401879Y-86212214D01*
X128404849Y-86217400D01*
X128426828Y-86255711D01*
X128448492Y-86293330D01*
X128468760Y-86328388D01*
X128486547Y-86359016D01*
X128500773Y-86383346D01*
X128509462Y-86398023D01*
X128519672Y-86415295D01*
X128534388Y-86440507D01*
X128552528Y-86471789D01*
X128573010Y-86507271D01*
X128594753Y-86545083D01*
X128613981Y-86578645D01*
X128636149Y-86617360D01*
X128658183Y-86655754D01*
X128678957Y-86691869D01*
X128697344Y-86723750D01*
X128712218Y-86749439D01*
X128721237Y-86764912D01*
X128733950Y-86786715D01*
X128750680Y-86815586D01*
X128769846Y-86848786D01*
X128789867Y-86883579D01*
X128805980Y-86911667D01*
X128824549Y-86944060D01*
X128842646Y-86975576D01*
X128858966Y-87003948D01*
X128872207Y-87026909D01*
X128880653Y-87041489D01*
X128893436Y-87063600D01*
X128906355Y-87086193D01*
X128914582Y-87100756D01*
X128924677Y-87118406D01*
X128937915Y-87141031D01*
X128951562Y-87163963D01*
X128952587Y-87165667D01*
X128964566Y-87185758D01*
X128978671Y-87209806D01*
X128995527Y-87238897D01*
X129015759Y-87274118D01*
X129039994Y-87316556D01*
X129068856Y-87367298D01*
X129082564Y-87391445D01*
X129100081Y-87422157D01*
X129120940Y-87458480D01*
X129142764Y-87496290D01*
X129163179Y-87531465D01*
X129167105Y-87538200D01*
X129184000Y-87567234D01*
X129200028Y-87594918D01*
X129213810Y-87618861D01*
X129223968Y-87636672D01*
X129227309Y-87642623D01*
X129235391Y-87656935D01*
X129247656Y-87678348D01*
X129262585Y-87704222D01*
X129278658Y-87731915D01*
X129282539Y-87738578D01*
X129460533Y-88046200D01*
X129507614Y-88128187D01*
X129549383Y-88200896D01*
X129586139Y-88264844D01*
X129618180Y-88320550D01*
X129645805Y-88368532D01*
X129669312Y-88409308D01*
X129689000Y-88443396D01*
X129705169Y-88471312D01*
X129718115Y-88493576D01*
X129728139Y-88510706D01*
X129735538Y-88523218D01*
X129737188Y-88525978D01*
X129752440Y-88551892D01*
X129769065Y-88580874D01*
X129782549Y-88605000D01*
X129795580Y-88628126D01*
X129811839Y-88656064D01*
X129828547Y-88684065D01*
X129834833Y-88694380D01*
X129869259Y-88756054D01*
X129893943Y-88812963D01*
X129908903Y-88864960D01*
X129914159Y-88911900D01*
X130174435Y-88911900D01*
X130173278Y-88871438D01*
X130169394Y-88832546D01*
X130162273Y-88794414D01*
X130151388Y-88755510D01*
X130136210Y-88714299D01*
X130116210Y-88669249D01*
X130090859Y-88618828D01*
X130059629Y-88561503D01*
X130043551Y-88533106D01*
X130011508Y-88477057D01*
X129984257Y-88429450D01*
X129961005Y-88388916D01*
X129940958Y-88354087D01*
X129923325Y-88323595D01*
X129907312Y-88296069D01*
X129892125Y-88270143D01*
X129876974Y-88244446D01*
X129861064Y-88217611D01*
X129850768Y-88200300D01*
X129834747Y-88173059D01*
X129816961Y-88142319D01*
X129801090Y-88114443D01*
X129800172Y-88112811D01*
X129790256Y-88095253D01*
X129777116Y-88072161D01*
X129760387Y-88042900D01*
X129739705Y-88006834D01*
X129714704Y-87963327D01*
X129685019Y-87911744D01*
X129650287Y-87851448D01*
X129624270Y-87806312D01*
X129611448Y-87784121D01*
X129594750Y-87755294D01*
X129575982Y-87722947D01*
X129556952Y-87690196D01*
X129548978Y-87676489D01*
X129532030Y-87647306D01*
X129516120Y-87619801D01*
X129502538Y-87596207D01*
X129492570Y-87578759D01*
X129488803Y-87572067D01*
X129466291Y-87531903D01*
X129444449Y-87493606D01*
X129424958Y-87460097D01*
X129412622Y-87439423D01*
X129399593Y-87417560D01*
X129384659Y-87391942D01*
X129373083Y-87371689D01*
X129363019Y-87354035D01*
X129348772Y-87329277D01*
X129331865Y-87300052D01*
X129313822Y-87268997D01*
X129303477Y-87251256D01*
X129287485Y-87223779D01*
X129273687Y-87199899D01*
X129263004Y-87181228D01*
X129256362Y-87169379D01*
X129254578Y-87165891D01*
X129251907Y-87160690D01*
X129244597Y-87147600D01*
X129233700Y-87128480D01*
X129220268Y-87105187D01*
X129217293Y-87100057D01*
X129199119Y-87068678D01*
X129178102Y-87032268D01*
X129156995Y-86995601D01*
X129140449Y-86966765D01*
X129125148Y-86940980D01*
X129111942Y-86920515D01*
X129101821Y-86906798D01*
X129095776Y-86901256D01*
X129095017Y-86901315D01*
X129091829Y-86901293D01*
X129092968Y-86898758D01*
X129091369Y-86892283D01*
X129084769Y-86877577D01*
X129073929Y-86856116D01*
X129059606Y-86829377D01*
X129042559Y-86798840D01*
X129033817Y-86783586D01*
X129012234Y-86746221D01*
X128989523Y-86706883D01*
X128967347Y-86668454D01*
X128947368Y-86633814D01*
X128931249Y-86605843D01*
X128930214Y-86604045D01*
X128911840Y-86572196D01*
X128891848Y-86537634D01*
X128872650Y-86504528D01*
X128856660Y-86477045D01*
X128840095Y-86448448D01*
X128822432Y-86417631D01*
X128806306Y-86389207D01*
X128798590Y-86375445D01*
X128786073Y-86353132D01*
X128771123Y-86326731D01*
X128755196Y-86298789D01*
X128739750Y-86271850D01*
X128726243Y-86248461D01*
X128716130Y-86231166D01*
X128712965Y-86225867D01*
X128708211Y-86217749D01*
X128699216Y-86202164D01*
X128687327Y-86181454D01*
X128675603Y-86160956D01*
X128658148Y-86130679D01*
X128638321Y-86096737D01*
X128619290Y-86064540D01*
X128611126Y-86050889D01*
X128595788Y-86025089D01*
X128580637Y-85999097D01*
X128567846Y-85976668D01*
X128562069Y-85966223D01*
X128550796Y-85945977D01*
X128536462Y-85921023D01*
X128521899Y-85896280D01*
X128519842Y-85892845D01*
X128505123Y-85867973D01*
X128489844Y-85841584D01*
X128477039Y-85818927D01*
X128475778Y-85816645D01*
X128465515Y-85798324D01*
X128451393Y-85773539D01*
X128435280Y-85745553D01*
X128419185Y-85717867D01*
X128404937Y-85693369D01*
X128386554Y-85661572D01*
X128365480Y-85624988D01*
X128343163Y-85586128D01*
X128321049Y-85547506D01*
X128313575Y-85534423D01*
X128289804Y-85492911D01*
X128263368Y-85446964D01*
X128236264Y-85400036D01*
X128210485Y-85355580D01*
X128188027Y-85317050D01*
X128185504Y-85312739D01*
X128166635Y-85280464D01*
X128148942Y-85250104D01*
X128133503Y-85223512D01*
X128121392Y-85202542D01*
X128113685Y-85189048D01*
X128112693Y-85187277D01*
X128103231Y-85170464D01*
X128089219Y-85145835D01*
X128071775Y-85115336D01*
X128052018Y-85080914D01*
X128031067Y-85044515D01*
X128010040Y-85008084D01*
X127990056Y-84973569D01*
X127973202Y-84944578D01*
X127957595Y-84917722D01*
X127942675Y-84891911D01*
X127930086Y-84869995D01*
X127921470Y-84854824D01*
X127921158Y-84854267D01*
X127910466Y-84835356D01*
X127897327Y-84812393D01*
X127887282Y-84795000D01*
X127876165Y-84775835D01*
X127860304Y-84748467D01*
X127840609Y-84714466D01*
X127817989Y-84675401D01*
X127793351Y-84632842D01*
X127767604Y-84588360D01*
X127741658Y-84543523D01*
X127716420Y-84499901D01*
X127692800Y-84459064D01*
X127671706Y-84422581D01*
X127671639Y-84422467D01*
X127642520Y-84372730D01*
X127617480Y-84331529D01*
X127595460Y-84297349D01*
X127575401Y-84268674D01*
X127556245Y-84243987D01*
X127536933Y-84221773D01*
X127517136Y-84201240D01*
X127489282Y-84175776D01*
X127457197Y-84149975D01*
X127423766Y-84125899D01*
X127391875Y-84105608D01*
X127364411Y-84091163D01*
X127360867Y-84089634D01*
X127308722Y-84072675D01*
X127251711Y-84062326D01*
X127193419Y-84058870D01*
X127137429Y-84062590D01*
G36*
X127200532Y-85506385D02*
X127185143Y-85508682D01*
X127161676Y-85512498D01*
X127133155Y-85517327D01*
X127102609Y-85522666D01*
X127098400Y-85523415D01*
X127048602Y-85532210D01*
X126999945Y-85540637D01*
X126953791Y-85548474D01*
X126911505Y-85555497D01*
X126874449Y-85561484D01*
X126843986Y-85566212D01*
X126821481Y-85569460D01*
X126808296Y-85571004D01*
X126806300Y-85571101D01*
X126796384Y-85573044D01*
X126793600Y-85576243D01*
X126795907Y-85582663D01*
X126802356Y-85597708D01*
X126812244Y-85619811D01*
X126824864Y-85647404D01*
X126839513Y-85678918D01*
X126844970Y-85690543D01*
X126871326Y-85746595D01*
X126893477Y-85793805D01*
X126912057Y-85833530D01*
X126927702Y-85867128D01*
X126941044Y-85895955D01*
X126948700Y-85912600D01*
X126972129Y-85963344D01*
X126997515Y-86017776D01*
X127021850Y-86069449D01*
X127024268Y-86074550D01*
X127037443Y-86102439D01*
X127051804Y-86133018D01*
X127064541Y-86160300D01*
X127066156Y-86163778D01*
X127077399Y-86187867D01*
X127091293Y-86217430D01*
X127105620Y-86247755D01*
X127112645Y-86262556D01*
X127124711Y-86288065D01*
X127139898Y-86320377D01*
X127156592Y-86356047D01*
X127173178Y-86391631D01*
X127180080Y-86406489D01*
X127207521Y-86465587D01*
X127233517Y-86521480D01*
X127257581Y-86573123D01*
X127279224Y-86619473D01*
X127297958Y-86659483D01*
X127313295Y-86692112D01*
X127324747Y-86716313D01*
X127330453Y-86728223D01*
X127338087Y-86744789D01*
X127342873Y-86756752D01*
X127343796Y-86761121D01*
X127337891Y-86760019D01*
X127322392Y-86755191D01*
X127298237Y-86746975D01*
X127266366Y-86735706D01*
X127227717Y-86721722D01*
X127183228Y-86705360D01*
X127133839Y-86686956D01*
X127080487Y-86666847D01*
X127070178Y-86662937D01*
X127042988Y-86652740D01*
X127008417Y-86639967D01*
X126969722Y-86625809D01*
X126930162Y-86611460D01*
X126900844Y-86600919D01*
X126856512Y-86585043D01*
X126819876Y-86571898D01*
X126788004Y-86560421D01*
X126757959Y-86549551D01*
X126726806Y-86538225D01*
X126691610Y-86525383D01*
X126652824Y-86511201D01*
X126626791Y-86501711D01*
X126604921Y-86493804D01*
X126589210Y-86488196D01*
X126581657Y-86485605D01*
X126581288Y-86485512D01*
X126582730Y-86490294D01*
X126587710Y-86503050D01*
X126595283Y-86521393D01*
X126598612Y-86529256D01*
X126636379Y-86617976D01*
X126670029Y-86697209D01*
X126699933Y-86767827D01*
X126726457Y-86830701D01*
X126749973Y-86886704D01*
X126756874Y-86903200D01*
X126774436Y-86945159D01*
X126794498Y-86992986D01*
X126815156Y-87042155D01*
X126834511Y-87088139D01*
X126844592Y-87112045D01*
X126859156Y-87146583D01*
X126873209Y-87179964D01*
X126885782Y-87209887D01*
X126895910Y-87234051D01*
X126902625Y-87250154D01*
X126902699Y-87250334D01*
X126911733Y-87271863D01*
X126923164Y-87298725D01*
X126934858Y-87325915D01*
X126937574Y-87332178D01*
X126947649Y-87355625D01*
X126960509Y-87385923D01*
X126974639Y-87419486D01*
X126988524Y-87452727D01*
X126991204Y-87459178D01*
X127013877Y-87513748D01*
X127035101Y-87564663D01*
X127055957Y-87614494D01*
X127077525Y-87665815D01*
X127100884Y-87721197D01*
X127127114Y-87783213D01*
X127140303Y-87814350D01*
X127155944Y-87851409D01*
X127169952Y-87884874D01*
X127181771Y-87913400D01*
X127190848Y-87935640D01*
X127196628Y-87950248D01*
X127198559Y-87955877D01*
X127198547Y-87955898D01*
X127193087Y-87958017D01*
X127178603Y-87963448D01*
X127156668Y-87971608D01*
X127128852Y-87981913D01*
X127096727Y-87993777D01*
X127085700Y-87997842D01*
X127052583Y-88010250D01*
X127023379Y-88021582D01*
X126999640Y-88031204D01*
X126982919Y-88038480D01*
X126974767Y-88042777D01*
X126974222Y-88043423D01*
X126975096Y-88045272D01*
X126978034Y-88049140D01*
X126983512Y-88055527D01*
X126992006Y-88064935D01*
X127003990Y-88077862D01*
X127019940Y-88094809D01*
X127040332Y-88116277D01*
X127065640Y-88142765D01*
X127096342Y-88174774D01*
X127132911Y-88212804D01*
X127175823Y-88257355D01*
X127225554Y-88308928D01*
X127282580Y-88368022D01*
X127293391Y-88379223D01*
X127328627Y-88415731D01*
X127364248Y-88452650D01*
X127398760Y-88488431D01*
X127430669Y-88521523D01*
X127458480Y-88550378D01*
X127480700Y-88573446D01*
X127489340Y-88582423D01*
X127515174Y-88608640D01*
X127534013Y-88626294D01*
X127546036Y-88635539D01*
X127551422Y-88636528D01*
X127551648Y-88636045D01*
X127553071Y-88627381D01*
X127555221Y-88609146D01*
X127557942Y-88583025D01*
X127561081Y-88550702D01*
X127564482Y-88513861D01*
X127567992Y-88474185D01*
X127571455Y-88433359D01*
X127574717Y-88393066D01*
X127577624Y-88354992D01*
X127578324Y-88345356D01*
X127580618Y-88314837D01*
X127583670Y-88276286D01*
X127587217Y-88232914D01*
X127590997Y-88187933D01*
X127594746Y-88144552D01*
X127595206Y-88139334D01*
X127601468Y-88068506D01*
X127606819Y-88008114D01*
X127611304Y-87957346D01*
X127614969Y-87915390D01*
X127617860Y-87881433D01*
X127620022Y-87854663D01*
X127621502Y-87834269D01*
X127622346Y-87819437D01*
X127622599Y-87809357D01*
X127622308Y-87803215D01*
X127621517Y-87800199D01*
X127620274Y-87799498D01*
X127618624Y-87800298D01*
X127616613Y-87801789D01*
X127614287Y-87803158D01*
X127614202Y-87803192D01*
X127603577Y-87807232D01*
X127586171Y-87813590D01*
X127566889Y-87820486D01*
X127544670Y-87828488D01*
X127516680Y-87838761D01*
X127487693Y-87849548D01*
X127476578Y-87853731D01*
X127453416Y-87862266D01*
X127433972Y-87869032D01*
X127420803Y-87873160D01*
X127416790Y-87874017D01*
X127412626Y-87868981D01*
X127406445Y-87855412D01*
X127399237Y-87835662D01*
X127394833Y-87821834D01*
X127389137Y-87803106D01*
X127382793Y-87782475D01*
X127375458Y-87758853D01*
X127366788Y-87731149D01*
X127356441Y-87698273D01*
X127344074Y-87659138D01*
X127329344Y-87612652D01*
X127311907Y-87557726D01*
X127291421Y-87493271D01*
X127288657Y-87484578D01*
X127273626Y-87437199D01*
X127256672Y-87383567D01*
X127239100Y-87327824D01*
X127222216Y-87274114D01*
X127207325Y-87226579D01*
X127205929Y-87222112D01*
X127193683Y-87182980D01*
X127181730Y-87144926D01*
X127170752Y-87110107D01*
X127161427Y-87080678D01*
X127154438Y-87058795D01*
X127152034Y-87051367D01*
X127145829Y-87031968D01*
X127141449Y-87017549D01*
X127139677Y-87010704D01*
X127139710Y-87010471D01*
X127145282Y-87011575D01*
X127160226Y-87014640D01*
X127182865Y-87019317D01*
X127211520Y-87025262D01*
X127244514Y-87032126D01*
X127250800Y-87033435D01*
X127324163Y-87048719D01*
X127387108Y-87061822D01*
X127440268Y-87072874D01*
X127484274Y-87082007D01*
X127519759Y-87089350D01*
X127547354Y-87095035D01*
X127567692Y-87099193D01*
X127581404Y-87101954D01*
X127589123Y-87103449D01*
X127589520Y-87103522D01*
X127599399Y-87105493D01*
X127618291Y-87109423D01*
X127644175Y-87114885D01*
X127675029Y-87121453D01*
X127707902Y-87128500D01*
X127740628Y-87135392D01*
X127769398Y-87141171D01*
X127792463Y-87145509D01*
X127808074Y-87148076D01*
X127814481Y-87148546D01*
X127814521Y-87148517D01*
X127813601Y-87142628D01*
X127809409Y-87128155D01*
X127802576Y-87107107D01*
X127795514Y-87086645D01*
X127578178Y-87086645D01*
X127575356Y-87089467D01*
X127572533Y-87086645D01*
X127575356Y-87083823D01*
X127578178Y-87086645D01*
X127795514Y-87086645D01*
X127793735Y-87081493D01*
X127791083Y-87074047D01*
X127782220Y-87049303D01*
X127779425Y-87041489D01*
X127533022Y-87041489D01*
X127530200Y-87044312D01*
X127527378Y-87041489D01*
X127530200Y-87038667D01*
X127533022Y-87041489D01*
X127779425Y-87041489D01*
X127770360Y-87016157D01*
X127763272Y-86996334D01*
X127487867Y-86996334D01*
X127485044Y-86999156D01*
X127482222Y-86996334D01*
X127485044Y-86993512D01*
X127487867Y-86996334D01*
X127763272Y-86996334D01*
X127756301Y-86976841D01*
X127747129Y-86951178D01*
X127442711Y-86951178D01*
X127439889Y-86954000D01*
X127437067Y-86951178D01*
X127439889Y-86948356D01*
X127442711Y-86951178D01*
X127747129Y-86951178D01*
X127740840Y-86933585D01*
X127730994Y-86906023D01*
X127397556Y-86906023D01*
X127394733Y-86908845D01*
X127391911Y-86906023D01*
X127394733Y-86903200D01*
X127397556Y-86906023D01*
X127730994Y-86906023D01*
X127724776Y-86888621D01*
X127714864Y-86860867D01*
X127352400Y-86860867D01*
X127349578Y-86863689D01*
X127346756Y-86860867D01*
X127349578Y-86858045D01*
X127352400Y-86860867D01*
X127714864Y-86860867D01*
X127708904Y-86844180D01*
X127708816Y-86843934D01*
X127698726Y-86815712D01*
X127307244Y-86815712D01*
X127304422Y-86818534D01*
X127301600Y-86815712D01*
X127304422Y-86812889D01*
X127307244Y-86815712D01*
X127698726Y-86815712D01*
X127692749Y-86798997D01*
X127676290Y-86753073D01*
X127660279Y-86708501D01*
X127645556Y-86667617D01*
X127632963Y-86632759D01*
X127623559Y-86606867D01*
X127609992Y-86569514D01*
X127594614Y-86526920D01*
X127579354Y-86484439D01*
X127566636Y-86448823D01*
X127556467Y-86420330D01*
X127547430Y-86395215D01*
X127540294Y-86375598D01*
X127535828Y-86363601D01*
X127534929Y-86361334D01*
X127530818Y-86350400D01*
X127529867Y-86347223D01*
X127527605Y-86340529D01*
X127522034Y-86324765D01*
X127513705Y-86301470D01*
X127503170Y-86272182D01*
X127490979Y-86238440D01*
X127482331Y-86214578D01*
X127463322Y-86162137D01*
X127444073Y-86108912D01*
X127424019Y-86053335D01*
X127402595Y-85993837D01*
X127379237Y-85928850D01*
X127353380Y-85856805D01*
X127324460Y-85776133D01*
X127315718Y-85751734D01*
X127301613Y-85712370D01*
X127287018Y-85671656D01*
X127272990Y-85632539D01*
X127260587Y-85597966D01*
X127250866Y-85570886D01*
X127250364Y-85569486D01*
X127226463Y-85502950D01*
X127200532Y-85506385D01*
X127200532Y-85506385D01*
G37*
X127200532Y-85506385D02*
X127185143Y-85508682D01*
X127161676Y-85512498D01*
X127133155Y-85517327D01*
X127102609Y-85522666D01*
X127098400Y-85523415D01*
X127048602Y-85532210D01*
X126999945Y-85540637D01*
X126953791Y-85548474D01*
X126911505Y-85555497D01*
X126874449Y-85561484D01*
X126843986Y-85566212D01*
X126821481Y-85569460D01*
X126808296Y-85571004D01*
X126806300Y-85571101D01*
X126796384Y-85573044D01*
X126793600Y-85576243D01*
X126795907Y-85582663D01*
X126802356Y-85597708D01*
X126812244Y-85619811D01*
X126824864Y-85647404D01*
X126839513Y-85678918D01*
X126844970Y-85690543D01*
X126871326Y-85746595D01*
X126893477Y-85793805D01*
X126912057Y-85833530D01*
X126927702Y-85867128D01*
X126941044Y-85895955D01*
X126948700Y-85912600D01*
X126972129Y-85963344D01*
X126997515Y-86017776D01*
X127021850Y-86069449D01*
X127024268Y-86074550D01*
X127037443Y-86102439D01*
X127051804Y-86133018D01*
X127064541Y-86160300D01*
X127066156Y-86163778D01*
X127077399Y-86187867D01*
X127091293Y-86217430D01*
X127105620Y-86247755D01*
X127112645Y-86262556D01*
X127124711Y-86288065D01*
X127139898Y-86320377D01*
X127156592Y-86356047D01*
X127173178Y-86391631D01*
X127180080Y-86406489D01*
X127207521Y-86465587D01*
X127233517Y-86521480D01*
X127257581Y-86573123D01*
X127279224Y-86619473D01*
X127297958Y-86659483D01*
X127313295Y-86692112D01*
X127324747Y-86716313D01*
X127330453Y-86728223D01*
X127338087Y-86744789D01*
X127342873Y-86756752D01*
X127343796Y-86761121D01*
X127337891Y-86760019D01*
X127322392Y-86755191D01*
X127298237Y-86746975D01*
X127266366Y-86735706D01*
X127227717Y-86721722D01*
X127183228Y-86705360D01*
X127133839Y-86686956D01*
X127080487Y-86666847D01*
X127070178Y-86662937D01*
X127042988Y-86652740D01*
X127008417Y-86639967D01*
X126969722Y-86625809D01*
X126930162Y-86611460D01*
X126900844Y-86600919D01*
X126856512Y-86585043D01*
X126819876Y-86571898D01*
X126788004Y-86560421D01*
X126757959Y-86549551D01*
X126726806Y-86538225D01*
X126691610Y-86525383D01*
X126652824Y-86511201D01*
X126626791Y-86501711D01*
X126604921Y-86493804D01*
X126589210Y-86488196D01*
X126581657Y-86485605D01*
X126581288Y-86485512D01*
X126582730Y-86490294D01*
X126587710Y-86503050D01*
X126595283Y-86521393D01*
X126598612Y-86529256D01*
X126636379Y-86617976D01*
X126670029Y-86697209D01*
X126699933Y-86767827D01*
X126726457Y-86830701D01*
X126749973Y-86886704D01*
X126756874Y-86903200D01*
X126774436Y-86945159D01*
X126794498Y-86992986D01*
X126815156Y-87042155D01*
X126834511Y-87088139D01*
X126844592Y-87112045D01*
X126859156Y-87146583D01*
X126873209Y-87179964D01*
X126885782Y-87209887D01*
X126895910Y-87234051D01*
X126902625Y-87250154D01*
X126902699Y-87250334D01*
X126911733Y-87271863D01*
X126923164Y-87298725D01*
X126934858Y-87325915D01*
X126937574Y-87332178D01*
X126947649Y-87355625D01*
X126960509Y-87385923D01*
X126974639Y-87419486D01*
X126988524Y-87452727D01*
X126991204Y-87459178D01*
X127013877Y-87513748D01*
X127035101Y-87564663D01*
X127055957Y-87614494D01*
X127077525Y-87665815D01*
X127100884Y-87721197D01*
X127127114Y-87783213D01*
X127140303Y-87814350D01*
X127155944Y-87851409D01*
X127169952Y-87884874D01*
X127181771Y-87913400D01*
X127190848Y-87935640D01*
X127196628Y-87950248D01*
X127198559Y-87955877D01*
X127198547Y-87955898D01*
X127193087Y-87958017D01*
X127178603Y-87963448D01*
X127156668Y-87971608D01*
X127128852Y-87981913D01*
X127096727Y-87993777D01*
X127085700Y-87997842D01*
X127052583Y-88010250D01*
X127023379Y-88021582D01*
X126999640Y-88031204D01*
X126982919Y-88038480D01*
X126974767Y-88042777D01*
X126974222Y-88043423D01*
X126975096Y-88045272D01*
X126978034Y-88049140D01*
X126983512Y-88055527D01*
X126992006Y-88064935D01*
X127003990Y-88077862D01*
X127019940Y-88094809D01*
X127040332Y-88116277D01*
X127065640Y-88142765D01*
X127096342Y-88174774D01*
X127132911Y-88212804D01*
X127175823Y-88257355D01*
X127225554Y-88308928D01*
X127282580Y-88368022D01*
X127293391Y-88379223D01*
X127328627Y-88415731D01*
X127364248Y-88452650D01*
X127398760Y-88488431D01*
X127430669Y-88521523D01*
X127458480Y-88550378D01*
X127480700Y-88573446D01*
X127489340Y-88582423D01*
X127515174Y-88608640D01*
X127534013Y-88626294D01*
X127546036Y-88635539D01*
X127551422Y-88636528D01*
X127551648Y-88636045D01*
X127553071Y-88627381D01*
X127555221Y-88609146D01*
X127557942Y-88583025D01*
X127561081Y-88550702D01*
X127564482Y-88513861D01*
X127567992Y-88474185D01*
X127571455Y-88433359D01*
X127574717Y-88393066D01*
X127577624Y-88354992D01*
X127578324Y-88345356D01*
X127580618Y-88314837D01*
X127583670Y-88276286D01*
X127587217Y-88232914D01*
X127590997Y-88187933D01*
X127594746Y-88144552D01*
X127595206Y-88139334D01*
X127601468Y-88068506D01*
X127606819Y-88008114D01*
X127611304Y-87957346D01*
X127614969Y-87915390D01*
X127617860Y-87881433D01*
X127620022Y-87854663D01*
X127621502Y-87834269D01*
X127622346Y-87819437D01*
X127622599Y-87809357D01*
X127622308Y-87803215D01*
X127621517Y-87800199D01*
X127620274Y-87799498D01*
X127618624Y-87800298D01*
X127616613Y-87801789D01*
X127614287Y-87803158D01*
X127614202Y-87803192D01*
X127603577Y-87807232D01*
X127586171Y-87813590D01*
X127566889Y-87820486D01*
X127544670Y-87828488D01*
X127516680Y-87838761D01*
X127487693Y-87849548D01*
X127476578Y-87853731D01*
X127453416Y-87862266D01*
X127433972Y-87869032D01*
X127420803Y-87873160D01*
X127416790Y-87874017D01*
X127412626Y-87868981D01*
X127406445Y-87855412D01*
X127399237Y-87835662D01*
X127394833Y-87821834D01*
X127389137Y-87803106D01*
X127382793Y-87782475D01*
X127375458Y-87758853D01*
X127366788Y-87731149D01*
X127356441Y-87698273D01*
X127344074Y-87659138D01*
X127329344Y-87612652D01*
X127311907Y-87557726D01*
X127291421Y-87493271D01*
X127288657Y-87484578D01*
X127273626Y-87437199D01*
X127256672Y-87383567D01*
X127239100Y-87327824D01*
X127222216Y-87274114D01*
X127207325Y-87226579D01*
X127205929Y-87222112D01*
X127193683Y-87182980D01*
X127181730Y-87144926D01*
X127170752Y-87110107D01*
X127161427Y-87080678D01*
X127154438Y-87058795D01*
X127152034Y-87051367D01*
X127145829Y-87031968D01*
X127141449Y-87017549D01*
X127139677Y-87010704D01*
X127139710Y-87010471D01*
X127145282Y-87011575D01*
X127160226Y-87014640D01*
X127182865Y-87019317D01*
X127211520Y-87025262D01*
X127244514Y-87032126D01*
X127250800Y-87033435D01*
X127324163Y-87048719D01*
X127387108Y-87061822D01*
X127440268Y-87072874D01*
X127484274Y-87082007D01*
X127519759Y-87089350D01*
X127547354Y-87095035D01*
X127567692Y-87099193D01*
X127581404Y-87101954D01*
X127589123Y-87103449D01*
X127589520Y-87103522D01*
X127599399Y-87105493D01*
X127618291Y-87109423D01*
X127644175Y-87114885D01*
X127675029Y-87121453D01*
X127707902Y-87128500D01*
X127740628Y-87135392D01*
X127769398Y-87141171D01*
X127792463Y-87145509D01*
X127808074Y-87148076D01*
X127814481Y-87148546D01*
X127814521Y-87148517D01*
X127813601Y-87142628D01*
X127809409Y-87128155D01*
X127802576Y-87107107D01*
X127795514Y-87086645D01*
X127578178Y-87086645D01*
X127575356Y-87089467D01*
X127572533Y-87086645D01*
X127575356Y-87083823D01*
X127578178Y-87086645D01*
X127795514Y-87086645D01*
X127793735Y-87081493D01*
X127791083Y-87074047D01*
X127782220Y-87049303D01*
X127779425Y-87041489D01*
X127533022Y-87041489D01*
X127530200Y-87044312D01*
X127527378Y-87041489D01*
X127530200Y-87038667D01*
X127533022Y-87041489D01*
X127779425Y-87041489D01*
X127770360Y-87016157D01*
X127763272Y-86996334D01*
X127487867Y-86996334D01*
X127485044Y-86999156D01*
X127482222Y-86996334D01*
X127485044Y-86993512D01*
X127487867Y-86996334D01*
X127763272Y-86996334D01*
X127756301Y-86976841D01*
X127747129Y-86951178D01*
X127442711Y-86951178D01*
X127439889Y-86954000D01*
X127437067Y-86951178D01*
X127439889Y-86948356D01*
X127442711Y-86951178D01*
X127747129Y-86951178D01*
X127740840Y-86933585D01*
X127730994Y-86906023D01*
X127397556Y-86906023D01*
X127394733Y-86908845D01*
X127391911Y-86906023D01*
X127394733Y-86903200D01*
X127397556Y-86906023D01*
X127730994Y-86906023D01*
X127724776Y-86888621D01*
X127714864Y-86860867D01*
X127352400Y-86860867D01*
X127349578Y-86863689D01*
X127346756Y-86860867D01*
X127349578Y-86858045D01*
X127352400Y-86860867D01*
X127714864Y-86860867D01*
X127708904Y-86844180D01*
X127708816Y-86843934D01*
X127698726Y-86815712D01*
X127307244Y-86815712D01*
X127304422Y-86818534D01*
X127301600Y-86815712D01*
X127304422Y-86812889D01*
X127307244Y-86815712D01*
X127698726Y-86815712D01*
X127692749Y-86798997D01*
X127676290Y-86753073D01*
X127660279Y-86708501D01*
X127645556Y-86667617D01*
X127632963Y-86632759D01*
X127623559Y-86606867D01*
X127609992Y-86569514D01*
X127594614Y-86526920D01*
X127579354Y-86484439D01*
X127566636Y-86448823D01*
X127556467Y-86420330D01*
X127547430Y-86395215D01*
X127540294Y-86375598D01*
X127535828Y-86363601D01*
X127534929Y-86361334D01*
X127530818Y-86350400D01*
X127529867Y-86347223D01*
X127527605Y-86340529D01*
X127522034Y-86324765D01*
X127513705Y-86301470D01*
X127503170Y-86272182D01*
X127490979Y-86238440D01*
X127482331Y-86214578D01*
X127463322Y-86162137D01*
X127444073Y-86108912D01*
X127424019Y-86053335D01*
X127402595Y-85993837D01*
X127379237Y-85928850D01*
X127353380Y-85856805D01*
X127324460Y-85776133D01*
X127315718Y-85751734D01*
X127301613Y-85712370D01*
X127287018Y-85671656D01*
X127272990Y-85632539D01*
X127260587Y-85597966D01*
X127250866Y-85570886D01*
X127250364Y-85569486D01*
X127226463Y-85502950D01*
X127200532Y-85506385D01*
M02*
