G04 #@! TF.FileFunction,Soldermask,Bot*
%FSLAX46Y46*%
G04 Gerber Fmt 4.6, Leading zero omitted, Abs format (unit mm)*
G04 Created by KiCad (PCBNEW 4.0.1-stable) date 9.10.2016. 16:00:34*
%MOMM*%
G01*
G04 APERTURE LIST*
%ADD10C,0.100000*%
%ADD11R,1.300000X2.100000*%
%ADD12R,1.900000X3.000000*%
%ADD13C,2.000000*%
%ADD14C,2.600000*%
G04 APERTURE END LIST*
D10*
D11*
X181550000Y-109250000D03*
X184450000Y-109250000D03*
D12*
X180950000Y-92500000D03*
X184050000Y-92500000D03*
X180950000Y-114500000D03*
X184050000Y-114500000D03*
X169950000Y-114500000D03*
X173050000Y-114500000D03*
X158950000Y-114500000D03*
X162050000Y-114500000D03*
X147950000Y-114500000D03*
X151050000Y-114500000D03*
X136950000Y-114500000D03*
X140050000Y-114500000D03*
X125950000Y-114500000D03*
X129050000Y-114500000D03*
X114950000Y-114500000D03*
X118050000Y-114500000D03*
X103950000Y-114500000D03*
X107050000Y-114500000D03*
X184050000Y-103500000D03*
X180950000Y-103500000D03*
X173050000Y-103500000D03*
X169950000Y-103500000D03*
X162050000Y-103500000D03*
X158950000Y-103500000D03*
X151050000Y-103500000D03*
X147950000Y-103500000D03*
X140050000Y-103500000D03*
X136950000Y-103500000D03*
X129050000Y-103500000D03*
X125950000Y-103500000D03*
X118050000Y-103500000D03*
X114950000Y-103500000D03*
X107050000Y-103500000D03*
X103950000Y-103500000D03*
X169950000Y-92500000D03*
X173050000Y-92500000D03*
X158950000Y-92500000D03*
X162050000Y-92500000D03*
X147950000Y-92500000D03*
X151050000Y-92500000D03*
X136950000Y-92500000D03*
X140050000Y-92500000D03*
X125950000Y-92500000D03*
X129050000Y-92500000D03*
X114950000Y-92500000D03*
X118050000Y-92500000D03*
X103950000Y-92500000D03*
X107050000Y-92500000D03*
X184050000Y-81500000D03*
X180950000Y-81500000D03*
X173050000Y-81500000D03*
X169950000Y-81500000D03*
X162050000Y-81500000D03*
X158950000Y-81500000D03*
X151050000Y-81500000D03*
X147950000Y-81500000D03*
X140050000Y-81500000D03*
X136950000Y-81500000D03*
X129050000Y-81500000D03*
X125950000Y-81500000D03*
X118050000Y-81500000D03*
X114950000Y-81500000D03*
X107050000Y-81500000D03*
X103950000Y-81500000D03*
X180950000Y-70500000D03*
X184050000Y-70500000D03*
X169950000Y-70500000D03*
X173050000Y-70500000D03*
X158950000Y-70500000D03*
X162050000Y-70500000D03*
X147950000Y-70500000D03*
X151050000Y-70500000D03*
X136950000Y-70500000D03*
X140050000Y-70500000D03*
X125950000Y-70500000D03*
X129050000Y-70500000D03*
X114950000Y-70500000D03*
X118050000Y-70500000D03*
X103950000Y-70500000D03*
X107050000Y-70500000D03*
X184050000Y-59500000D03*
X180950000Y-59500000D03*
X173050000Y-59500000D03*
X169950000Y-59500000D03*
X162050000Y-59500000D03*
X158950000Y-59500000D03*
X151050000Y-59500000D03*
X147950000Y-59500000D03*
X140050000Y-59500000D03*
X136950000Y-59500000D03*
X129050000Y-59500000D03*
X125950000Y-59500000D03*
X118050000Y-59500000D03*
X114950000Y-59500000D03*
X107050000Y-59500000D03*
X103950000Y-59500000D03*
D13*
X186000000Y-118000000D03*
X102000000Y-56000000D03*
X102000000Y-118000000D03*
X186000000Y-56000000D03*
D14*
X134000000Y-86500000D03*
X111500000Y-86500000D03*
D11*
X181150000Y-75750000D03*
X184050000Y-75750000D03*
X181050000Y-87250000D03*
X183950000Y-87250000D03*
M02*
